<svg width="514" height="955" viewBox="0 0 514 955" fill="none" xmlns="http://www.w3.org/2000/svg">
<rect x="1" width="512.271" height="954.433" rx="37.3921" fill="#9747FF"/>
<rect x="1" y="110.305" width="512.271" height="285.115" fill="#1B1B1B"/>
<rect x="1" y="395.418" width="512.271" height="448.705" fill="black"/>
<path d="M226.939 40.5664V68.8477H221.822V45.5273H221.666L215.064 49.7461V45.0977L222.057 40.5664H226.939ZM262.213 37.0508V63.0664H257.877V51.3086H248.658V47.8711H257.877V44.668H248.658V41.2305H257.877V37.0508H262.213ZM234.674 58.2617V39.3945H238.971V54.668C243.463 54.6094 247.721 54.3359 252.447 53.4961L252.877 57.0117C247.447 58.0469 242.682 58.2422 237.447 58.2617H234.674ZM239.01 71.6211V60.7617H243.385V68.1055H263.111V71.6211H239.01ZM297.057 37.0508V63.6523H292.642V59.3945H285.455V55.957H292.642V37.0508H297.057ZM266.978 50.6055C271.275 50.5859 276.607 50.5273 281.9 50.2148C282.447 46.9336 282.603 44.3164 282.662 42.4023H270.182V38.9258H287.017V40.2539C287.017 42.1094 287.017 45.3906 286.295 49.8633C287.525 49.7461 288.736 49.5898 289.908 49.4336L290.221 52.5195C287.174 53.0469 284.029 53.3984 280.924 53.6328V61.3867H276.627V53.8867C273.346 54.043 270.24 54.082 267.525 54.082L266.978 50.6055ZM272.017 71.6211V60.8398H276.353V68.1055H297.877V71.6211H272.017Z" fill="#1B1B1B"/>
<path d="M186.039 616.605V637.816H182.787V619.828H182.67L177.602 623.139V620.062L182.875 616.605H186.039ZM198.813 638.109C193.905 638.109 191.02 634.154 191.02 627.211C191.02 620.312 193.935 616.312 198.813 616.312C203.676 616.312 206.591 620.312 206.606 627.211C206.591 634.154 203.72 638.109 198.813 638.109ZM194.242 627.211C194.228 632.499 195.941 635.326 198.813 635.326C201.669 635.326 203.383 632.499 203.383 627.211C203.383 621.938 201.654 619.052 198.813 619.037C195.956 619.052 194.242 621.938 194.242 627.211ZM217.328 638.109C212.421 638.109 209.535 634.154 209.535 627.211C209.535 620.312 212.45 616.312 217.328 616.312C222.191 616.312 225.107 620.312 225.121 627.211C225.107 634.154 222.235 638.109 217.328 638.109ZM212.758 627.211C212.743 632.499 214.457 635.326 217.328 635.326C220.185 635.326 221.898 632.499 221.898 627.211C221.898 621.938 220.17 619.052 217.328 619.037C214.472 619.052 212.758 621.938 212.758 627.211ZM249.262 614.057V640.307H246.479V614.057H249.262ZM227.699 633.158C229.867 633.144 232.328 633.129 234.906 633.07V630.434C231.845 630.023 229.853 628.222 229.867 625.658C229.853 622.699 232.431 620.751 236.225 620.736C240.063 620.751 242.685 622.699 242.699 625.658C242.685 628.192 240.707 629.979 237.66 630.419V632.968C240.092 632.851 242.553 632.675 244.867 632.367L245.072 634.447C239.242 635.414 232.885 635.487 228.08 635.473L227.699 633.158ZM228.256 619.418V617.191H234.906V614.115H237.69V617.191H244.281V619.418H228.256ZM232.504 625.658C232.475 627.328 234.027 628.368 236.225 628.354C238.495 628.368 240.033 627.328 240.033 625.658C240.033 623.974 238.495 622.904 236.225 622.904C234.027 622.904 232.475 623.974 232.504 625.658ZM282.543 614.057V627.621H279.789V614.057H282.543ZM261.098 625.541C265.17 624.281 267.704 621.117 267.719 617.719H261.83V615.463H276.303V617.719H270.531C270.531 620.927 273.036 623.886 277.123 625.043L275.775 627.182C272.67 626.259 270.356 624.281 269.169 621.762C268.012 624.545 265.609 626.728 262.387 627.738L261.098 625.541ZM265.316 630.961V628.822H282.572V635.326H268.1V637.875H283.451V640.043H265.404V633.305H279.818V630.961H265.316ZM310.727 627.328V629.584H300.297V634.682H297.543V629.584H286.703V627.328H310.727ZM289.691 639.75V632.191H292.475V637.494H308.061V639.75H289.691ZM289.779 624.604V615.287H307.621V624.604H289.779ZM292.504 622.406H304.867V617.484H292.504V622.406ZM334.633 614.086V633.891H331.82V630.463H326.254V628.236H331.82V614.086H334.633ZM312.484 624.311C315.78 624.296 319.882 624.252 323.94 623.988C324.379 621.322 324.496 619.271 324.511 617.807H314.857V615.551H327.309V616.576C327.294 617.997 327.294 620.429 326.752 623.769C327.719 623.666 328.671 623.563 329.594 623.432L329.799 625.453C327.44 625.849 324.994 626.112 322.592 626.273V632.191H319.809V626.42C317.304 626.537 314.931 626.566 312.865 626.566L312.484 624.311ZM316.322 639.75V631.752H319.106V637.494H335.277V639.75H316.322Z" fill="white"/>
<path d="M86.5323 686.598V689.059C86.5176 692.252 86.5469 695.885 85.419 701.334L82.6944 701.041C83.1778 698.8 83.4415 696.822 83.6026 695.05L67.8116 695.973L67.4014 693.57L83.7344 692.926C83.793 691.505 83.8077 690.245 83.8077 689.059V688.883H68.1924V686.598H86.5323ZM65.3506 707.018V704.703H74.462V698.053H77.2159V704.703H89.2862V707.018H65.3506ZM112.548 696.617V698.902H94.2667V686.51H112.314V688.795H97.0206V696.617H112.548ZM91.2784 706.959V704.645H115.302V706.959H91.2784ZM139.003 684.166V710.416H136.22V684.166H139.003ZM118.817 703.736V686.715H121.571V701.334C125.409 701.319 129.438 700.982 133.642 700.133L134.023 702.477C129.379 703.429 125.16 703.751 121.015 703.736H118.817ZM167.128 699.078V701.393H156.405V710.416H153.681V701.393H143.105V699.078H167.128ZM145.712 690.992C145.727 687.418 149.506 685.162 155.058 685.162C160.609 685.162 164.418 687.418 164.403 690.992C164.418 694.522 160.609 696.764 155.058 696.764C149.506 696.764 145.727 694.522 145.712 690.992ZM148.583 690.992C148.568 693.175 151.161 694.537 155.058 694.537C158.969 694.537 161.547 693.175 161.562 690.992C161.547 688.78 158.969 687.403 155.058 687.389C151.161 687.403 148.568 688.78 148.583 690.992ZM182.392 687.887C182.392 692.164 186.947 696.207 192.001 697.115L190.712 699.43C186.508 698.521 182.655 695.768 180.956 692.076C179.228 695.753 175.375 698.492 171.171 699.43L169.94 697.115C174.921 696.178 179.447 692.164 179.462 687.887V685.895H182.392V687.887ZM169.062 706.959V704.645H193.085V706.959H169.062ZM202.87 685.836C206.913 685.836 209.916 688.385 209.931 692.076C209.916 695.328 207.587 697.687 204.276 698.214V702.374C206.606 702.257 208.935 702.081 211.103 701.803L211.308 703.883C205.756 704.85 199.648 704.894 195.107 704.85L194.667 702.564C196.703 702.55 199.047 702.535 201.493 702.477V698.214C198.109 697.716 195.795 695.343 195.81 692.076C195.795 688.385 198.754 685.836 202.87 685.836ZM198.505 692.076C198.49 694.405 200.351 695.958 202.87 695.943C205.36 695.958 207.191 694.405 207.206 692.076C207.191 689.732 205.36 688.209 202.87 688.18C200.351 688.209 198.49 689.732 198.505 692.076ZM212.685 710.416V684.166H215.468V694.83H219.511V697.174H215.468V710.416H212.685ZM242.948 686.07V688.326H240.429V696.266C241.542 696.178 242.611 696.075 243.651 695.943L243.769 698.053C238.715 698.844 232.826 698.932 228.622 698.932L228.271 696.617C229.252 696.617 230.336 696.617 231.464 696.603V688.326H229.003V686.07H242.948ZM232.46 705.611C232.445 702.55 235.785 700.807 241.337 700.807C246.874 700.807 250.199 702.55 250.214 705.611C250.199 708.614 246.874 710.372 241.337 710.357C235.785 710.372 232.445 708.614 232.46 705.611ZM234.159 696.559C235.346 696.529 236.547 696.485 237.763 696.427V688.326H234.159V696.559ZM235.214 705.611C235.199 707.267 237.455 708.204 241.337 708.219C245.19 708.204 247.445 707.267 247.46 705.611C247.445 703.912 245.19 702.96 241.337 702.975C237.455 702.96 235.199 703.912 235.214 705.611ZM243.329 695.738V693.512H247.343V690.963H243.329V688.736H247.343V684.166H250.126V700.309H247.343V695.738H243.329ZM276.552 684.166V700.719H273.915V693.395H270.868V699.811H268.261V684.664H270.868V691.109H273.915V684.166H276.552ZM254.023 689.352V687.154H259.325V684.371H262.079V687.154H267.294V689.352H254.023ZM255.048 695.094C255.048 692.369 257.392 690.582 260.673 690.582C264.027 690.582 266.357 692.369 266.357 695.094C266.357 697.818 264.027 699.605 260.673 699.605C257.392 699.605 255.048 697.818 255.048 695.094ZM257.538 695.094C257.538 696.588 258.813 697.569 260.673 697.584C262.563 697.569 263.852 696.588 263.837 695.094C263.852 693.6 262.563 692.618 260.673 692.633C258.813 692.618 257.538 693.6 257.538 695.094ZM258.886 705.758C258.857 702.784 262.196 701.1 267.763 701.1C273.344 701.1 276.684 702.784 276.698 705.758C276.684 708.702 273.344 710.372 267.763 710.357C262.196 710.372 258.857 708.702 258.886 705.758ZM261.64 705.758C261.61 707.34 263.866 708.248 267.763 708.219C271.674 708.248 273.9 707.34 273.915 705.758C273.9 704.103 271.674 703.224 267.763 703.238C263.866 703.224 261.61 704.103 261.64 705.758ZM304.091 699.078V701.393H293.368V710.416H290.644V701.393H280.067V699.078H304.091ZM282.675 690.992C282.69 687.418 286.469 685.162 292.021 685.162C297.572 685.162 301.381 687.418 301.366 690.992C301.381 694.522 297.572 696.764 292.021 696.764C286.469 696.764 282.69 694.522 282.675 690.992ZM285.546 690.992C285.531 693.175 288.124 694.537 292.021 694.537C295.932 694.537 298.51 693.175 298.524 690.992C298.51 688.78 295.932 687.403 292.021 687.389C288.124 687.403 285.531 688.78 285.546 690.992ZM329.96 698.961V701.217H319.296V710.387H316.571V701.217H306.024V698.961H329.96ZM307.372 694.771C312.265 694.098 316.337 691.183 316.425 687.945H308.251V685.719H327.704V687.945H319.589C319.633 691.183 323.676 694.098 328.642 694.771L327.616 696.969C323.31 696.295 319.589 694.171 317.992 691.183C316.381 694.171 312.675 696.295 308.427 696.969L307.372 694.771ZM363.271 697.438V699.693H352.841V704.791H350.087V699.693H339.247V697.438H363.271ZM342.235 709.859V702.301H345.019V707.604H360.605V709.859H342.235ZM342.323 694.713V685.396H360.165V694.713H342.323ZM345.048 692.516H357.411V687.594H345.048V692.516ZM385.771 684.166V695.152H389.726V697.496H385.771V710.416H382.987V684.166H385.771ZM364.882 703.268C366.947 703.268 369.35 703.268 371.855 703.194V700.528C368.896 700.089 366.962 698.302 366.991 695.768C366.962 692.809 369.525 690.86 373.261 690.846C376.982 690.86 379.574 692.809 379.589 695.768C379.574 698.302 377.611 700.104 374.638 700.528V703.092C376.967 702.975 379.311 702.784 381.493 702.477L381.669 704.527C375.985 705.538 369.848 705.597 365.321 705.582L364.882 703.268ZM365.38 689.498V687.271H371.855V684.225H374.638V687.271H381.112V689.498H365.38ZM369.599 695.768C369.599 697.438 371.064 698.478 373.261 698.463C375.458 698.478 376.908 697.438 376.923 695.768C376.908 694.083 375.458 693.014 373.261 693.014C371.064 693.014 369.599 694.083 369.599 695.768ZM422.392 697.965V700.162H398.398V697.965H422.392ZM401.122 704.674V702.447H419.345V710.416H416.503V704.674H401.122ZM401.532 695.738V684.84H419.462V687.037H404.345V689.176H418.788V691.285H404.345V693.6H419.638V695.738H401.532ZM445.009 684.166V690.787H448.817V693.043H445.009V699.752H442.226V684.166H445.009ZM424.355 697.701C430.507 695.973 434.272 692.545 434.784 688.297H425.526V686.041H437.802C437.802 692.823 433.188 697.73 425.497 699.957L424.355 697.701ZM427.929 705.201C427.899 702.008 431.357 700.03 436.63 700.045C441.918 700.03 445.302 702.008 445.302 705.201C445.302 708.424 441.918 710.372 436.63 710.387C431.357 710.372 427.899 708.424 427.929 705.201ZM430.683 705.201C430.668 707.047 432.953 708.175 436.63 708.189C440.277 708.175 442.577 707.047 442.577 705.201C442.577 703.355 440.277 702.228 436.63 702.242C432.953 702.228 430.668 703.355 430.683 705.201Z" fill="white"/>
<path d="M50.4678 756.18V758.436H47.9483V766.375C49.0616 766.287 50.1309 766.185 51.171 766.053L51.2881 768.162C46.2344 768.953 40.3458 769.041 36.1417 769.041L35.7901 766.727C36.7715 766.727 37.8555 766.727 38.9835 766.712V758.436H36.5225V756.18H50.4678ZM39.9796 775.721C39.9649 772.659 43.3047 770.916 48.8565 770.916C54.3936 770.916 57.7188 772.659 57.7335 775.721C57.7188 778.724 54.3936 780.481 48.8565 780.467C43.3047 780.481 39.9649 778.724 39.9796 775.721ZM41.6788 766.668C42.8653 766.639 44.0665 766.595 45.2823 766.536V758.436H41.6788V766.668ZM42.7335 775.721C42.7188 777.376 44.9747 778.313 48.8565 778.328C52.709 778.313 54.9649 777.376 54.9796 775.721C54.9649 774.021 52.709 773.069 48.8565 773.084C44.9747 773.069 42.7188 774.021 42.7335 775.721ZM50.8487 765.848V763.621H54.8624V761.072H50.8487V758.846H54.8624V754.275H57.6456V770.418H54.8624V765.848H50.8487ZM84.0714 754.275V770.828H81.4346V763.504H78.3878V769.92H75.7803V754.773H78.3878V761.219H81.4346V754.275H84.0714ZM61.5421 759.461V757.264H66.8448V754.48H69.5987V757.264H74.8135V759.461H61.5421ZM62.5674 765.203C62.5674 762.479 64.9112 760.691 68.1924 760.691C71.5469 760.691 73.876 762.479 73.876 765.203C73.876 767.928 71.5469 769.715 68.1924 769.715C64.9112 769.715 62.5674 767.928 62.5674 765.203ZM65.0577 765.203C65.0577 766.697 66.3321 767.679 68.1924 767.693C70.0821 767.679 71.3712 766.697 71.3565 765.203C71.3712 763.709 70.0821 762.728 68.1924 762.742C66.3321 762.728 65.0577 763.709 65.0577 765.203ZM66.4053 775.867C66.376 772.894 69.7159 771.209 75.2823 771.209C80.8633 771.209 84.2032 772.894 84.2178 775.867C84.2032 778.812 80.8633 780.481 75.2823 780.467C69.7159 780.481 66.376 778.812 66.4053 775.867ZM69.1592 775.867C69.1299 777.449 71.3858 778.357 75.2823 778.328C79.1934 778.357 81.42 777.449 81.4346 775.867C81.42 774.212 79.1934 773.333 75.2823 773.348C71.3858 773.333 69.1299 774.212 69.1592 775.867ZM111.61 769.188V771.502H100.888V780.525H98.1631V771.502H87.587V769.188H111.61ZM90.1944 761.102C90.209 757.527 93.9883 755.271 99.5401 755.271C105.092 755.271 108.9 757.527 108.886 761.102C108.9 764.632 105.092 766.873 99.5401 766.873C93.9883 766.873 90.209 764.632 90.1944 761.102ZM93.0655 761.102C93.0508 763.284 95.6436 764.646 99.5401 764.646C103.451 764.646 106.029 763.284 106.044 761.102C106.029 758.89 103.451 757.513 99.5401 757.498C95.6436 757.513 93.0508 758.89 93.0655 761.102ZM137.48 769.07V771.326H126.815V780.496H124.091V771.326H113.544V769.07H137.48ZM114.892 764.881C119.784 764.207 123.857 761.292 123.944 758.055H115.771V755.828H135.224V758.055H127.108C127.152 761.292 131.195 764.207 136.161 764.881L135.136 767.078C130.829 766.404 127.108 764.28 125.512 761.292C123.9 764.28 120.194 766.404 115.946 767.078L114.892 764.881ZM162.06 754.275V780.525H159.394V754.275H162.06ZM139.765 765.613C139.765 759.93 141.991 756.37 145.419 756.385C148.612 756.37 150.766 759.402 151.088 764.324H154.062V754.773H156.728V779.236H154.062V766.58H151.103C150.854 771.707 148.671 774.886 145.419 774.871C141.991 774.886 139.765 771.312 139.765 765.613ZM142.343 765.613C142.343 769.788 143.529 772.249 145.419 772.234C147.353 772.249 148.554 769.788 148.554 765.613C148.554 761.424 147.353 758.978 145.419 758.992C143.529 758.978 142.343 761.424 142.343 765.613ZM193.993 766.375V768.602H186.054V775.018H196.747V777.303H172.724V775.018H183.3V768.602H175.712V756.297H193.759V758.553H178.495V766.375H193.993ZM222.558 765.789V767.869H211.982V770.066H219.569V775.984H204.276V778.152H220.302V780.262H201.552V774.051H216.815V772.088H201.523V770.066H209.228V767.869H198.681V765.789H222.558ZM199.853 762.654C204.877 762.376 208.422 760.838 208.993 758.611H201.054V756.473H209.228V754.158H211.982V756.473H220.185V758.611H212.201C212.758 760.838 216.303 762.376 221.386 762.654L220.536 764.764C215.966 764.427 212.245 763.094 210.605 760.794C208.964 763.094 205.243 764.427 200.644 764.764L199.853 762.654ZM245.204 754.305V762.742H249.013V765.057H245.204V773.934H242.421V754.305H245.204ZM224.608 759.607V757.352H231.054V754.275H233.837V757.352H240.253V759.607H224.608ZM226.044 765.818C226.029 762.815 228.622 760.853 232.431 760.867C236.195 760.853 238.788 762.815 238.788 765.818C238.788 768.792 236.195 770.726 232.431 770.74C228.622 770.726 226.029 768.792 226.044 765.818ZM228.564 779.969V772.381H231.347V777.713H246.317V779.969H228.564ZM228.739 765.818C228.71 767.532 230.204 768.587 232.431 768.572C234.657 768.587 236.151 767.532 236.181 765.818C236.151 764.09 234.657 763.021 232.431 763.006C230.204 763.021 228.71 764.09 228.739 765.818ZM264.862 756.238C268.788 756.253 271.586 759.827 271.601 765.438C271.586 771.106 268.788 774.681 264.862 774.666C260.937 774.681 258.139 771.106 258.153 765.438C258.139 759.827 260.937 756.253 264.862 756.238ZM260.819 765.438C260.805 769.612 262.475 772.176 264.862 772.176C267.294 772.176 268.935 769.612 268.935 765.438C268.935 761.321 267.294 758.743 264.862 758.729C262.475 758.743 260.805 761.321 260.819 765.438ZM275.497 780.525V754.275H278.28V764.559H282.499V766.902H278.28V780.525H275.497ZM305.497 754.275V780.584H302.714V754.275H305.497ZM284.667 765.438C284.667 759.827 287.494 756.253 291.464 756.238C295.36 756.253 298.232 759.827 298.232 765.438C298.232 771.106 295.36 774.681 291.464 774.666C287.494 774.681 284.667 771.106 284.667 765.438ZM287.362 765.438C287.348 769.612 289.018 772.176 291.464 772.176C293.866 772.176 295.536 769.612 295.536 765.438C295.536 761.321 293.866 758.743 291.464 758.729C289.018 758.743 287.348 761.321 287.362 765.438ZM331.425 754.275V780.584H328.642V754.275H331.425ZM311.357 774.139V756.707H323.925V759.021H314.169V771.766C319.135 771.751 322.328 771.604 326.034 770.945L326.327 773.26C322.401 773.978 318.974 774.124 313.524 774.139H311.357ZM342.733 756.238C346.308 756.253 348.9 759.271 349.325 764.119H354.745V754.275H357.499V780.584H354.745V766.375H349.355C349.047 771.502 346.396 774.681 342.733 774.666C338.822 774.681 336.054 771.106 336.083 765.438C336.054 759.827 338.822 756.253 342.733 756.238ZM338.72 765.438C338.734 769.612 340.36 772.176 342.733 772.176C345.107 772.176 346.732 769.612 346.747 765.438C346.732 761.321 345.107 758.743 342.733 758.729C340.36 758.743 338.734 761.321 338.72 765.438ZM389.491 754.305V762.039H393.3V764.383H389.491V773.582H386.708V754.305H389.491ZM369.892 769.246V756.18H372.616V760.369H379.501V756.18H382.255V769.246H369.892ZM372.616 767.02H379.501V762.566H372.616V767.02ZM372.851 779.969V771.678H375.634V777.713H390.605V779.969H372.851ZM418.73 766.873V769.1H394.794V766.873H418.73ZM397.372 759.959C397.357 756.824 401.005 754.905 406.747 754.891C412.475 754.905 416.107 756.824 416.122 759.959C416.107 763.108 412.475 764.969 406.747 764.969C401.005 764.969 397.357 763.108 397.372 759.959ZM397.636 775.809C397.636 772.762 401.034 771.062 406.747 771.092C412.387 771.062 415.785 772.762 415.8 775.809C415.785 778.841 412.387 780.54 406.747 780.525C401.034 780.54 397.636 778.841 397.636 775.809ZM400.243 759.959C400.229 761.761 402.704 762.786 406.747 762.801C410.761 762.786 413.266 761.761 413.251 759.959C413.266 758.128 410.761 757.103 406.747 757.117C402.704 757.103 400.229 758.128 400.243 759.959ZM400.448 775.809C400.434 777.449 402.733 778.372 406.747 778.357C410.702 778.372 413.017 777.449 413.017 775.809C413.017 774.109 410.702 773.201 406.747 773.201C402.733 773.201 400.434 774.109 400.448 775.809ZM449.931 754.305V773.523H447.148V763.65H442.138V761.395H447.148V754.305H449.931ZM428.075 768.045C432.104 766.683 434.623 763.226 434.608 759.607V758.582H428.925V756.297H443.075V758.582H437.45V759.607C437.436 762.874 439.809 766.17 443.778 767.488L442.343 769.715C439.398 768.689 437.216 766.58 436.073 763.973C434.931 766.873 432.631 769.188 429.511 770.301L428.075 768.045ZM432.88 779.969V771.795H435.663V777.713H450.634V779.969H432.88ZM466.806 755.74V757.967H457.841V764.354C462.792 764.354 465.766 764.163 469.179 763.475L469.501 765.672C465.868 766.448 462.66 766.58 457.167 766.58H455.087V755.74H466.806ZM457.636 770.916V768.689H474.599V775.398H460.419V777.947H475.507V780.203H457.694V773.26H471.845V770.916H457.636ZM471.815 767.459V754.275H474.599V759.637H478.407V761.922H474.599V767.459H471.815Z" fill="white"/>
<path d="M70.0235 458.172V460.428H51.7715V450.818H54.5547V458.172H70.0235ZM48.7247 466.346V464.061H72.7481V466.346H61.9962V475.779H59.2422V466.346H48.7247ZM95.5411 451.17V453.484C95.5411 455.975 95.5411 458.685 94.8087 462.42H98.588V464.705H87.9532V475.809H85.1407V464.705H74.6524V462.42H91.9962C92.7725 458.67 92.7725 455.931 92.7872 453.484V453.455H77.5821V451.17H95.5411ZM124.604 470.213V472.527H100.58V470.213H111.156V464.822H103.334V451.316H106.117V455.828H119.008V451.316H121.762V464.822H113.91V470.213H124.604ZM106.117 462.566H119.008V458.084H106.117V462.566ZM146.957 449.529V459.695H151.176V461.98H146.957V475.838H144.174V449.529H146.957ZM127.621 469.305V452.049H139.897V454.305H130.404V466.99C134.814 466.976 138.109 466.785 141.859 466.111L142.211 468.455C138.095 469.188 134.608 469.319 129.731 469.305H127.621ZM182.348 449.529V475.779H179.682V462.098H176.43V474.49H173.793V450.027H176.43V459.812H179.682V449.529H182.348ZM160.639 468.865V452.488H170.834V468.865H160.639ZM163.275 466.639H168.227V454.686H163.275V466.639ZM199.076 451.346C199.091 454.627 203.295 457.806 208.275 458.523L207.191 460.721C203.017 460.032 199.355 457.879 197.67 454.935C196 457.923 192.309 460.091 188.119 460.779L187.065 458.582C192.045 457.82 196.22 454.729 196.234 451.346V450.203H199.076V451.346ZM185.658 464.998V462.742H209.682V464.998H199.252V470.066H196.498V464.998H185.658ZM188.647 475.223V467.605H191.43V472.967H207.016V475.223H188.647ZM232.24 449.529V457.293H236.049V459.607H232.24V468.602H229.428V449.529H232.24ZM211.586 463.504C217.738 461.658 221.547 458.157 222.089 453.836H212.699V451.521H225.121C225.121 458.406 220.434 463.401 212.758 465.73L211.586 463.504ZM215.57 475.223V466.639H218.383V472.967H233.324V475.223H215.57ZM251.898 451.492C255.824 451.507 258.622 455.081 258.637 460.691C258.622 466.36 255.824 469.935 251.898 469.92C247.973 469.935 245.175 466.36 245.19 460.691C245.175 455.081 247.973 451.507 251.898 451.492ZM247.856 460.691C247.841 464.866 249.511 467.43 251.898 467.43C254.33 467.43 255.971 464.866 255.971 460.691C255.971 456.575 254.33 453.997 251.898 453.982C249.511 453.997 247.841 456.575 247.856 460.691ZM262.533 475.779V449.529H265.316V459.812H269.535V462.156H265.316V475.779H262.533ZM292.533 449.529V475.838H289.75V449.529H292.533ZM271.703 460.691C271.703 455.081 274.53 451.507 278.5 451.492C282.397 451.507 285.268 455.081 285.268 460.691C285.268 466.36 282.397 469.935 278.5 469.92C274.53 469.935 271.703 466.36 271.703 460.691ZM274.398 460.691C274.384 464.866 276.054 467.43 278.5 467.43C280.902 467.43 282.572 464.866 282.572 460.691C282.572 456.575 280.902 453.997 278.5 453.982C276.054 453.997 274.384 456.575 274.398 460.691ZM318.461 449.529V475.838H315.678V449.529H318.461ZM298.393 469.393V451.961H310.961V454.275H301.205V467.02C306.171 467.005 309.364 466.858 313.07 466.199L313.363 468.514C309.438 469.231 306.01 469.378 300.561 469.393H298.393ZM329.77 451.492C333.344 451.507 335.937 454.524 336.361 459.373H341.781V449.529H344.535V475.838H341.781V461.629H336.391C336.083 466.756 333.432 469.935 329.77 469.92C325.858 469.935 323.09 466.36 323.119 460.691C323.09 455.081 325.858 451.507 329.77 451.492ZM325.756 460.691C325.771 464.866 327.397 467.43 329.77 467.43C332.143 467.43 333.769 464.866 333.783 460.691C333.769 456.575 332.143 453.997 329.77 453.982C327.397 453.997 325.771 456.575 325.756 460.691ZM377.641 449.529V475.838H374.857V449.529H377.641ZM357.572 469.393V451.961H370.141V454.275H360.385V467.02C365.351 467.005 368.544 466.858 372.25 466.199L372.543 468.514C368.617 469.231 365.19 469.378 359.74 469.393H357.572ZM404.213 449.559V463.27H401.576V449.559H404.213ZM382.943 462.156V451.053H385.58V454.334H390.648V451.053H393.227V455.33H396.332V450.057H398.94V463.123H396.332V457.615H393.227V462.156H382.943ZM385.58 459.959H390.648V456.443H385.58V459.959ZM386.606 466.639V464.441H404.213V470.887H389.447V473.348H405.209V475.516H386.664V468.807H401.459V466.639H386.606ZM431.752 462.83V465.086H407.729V462.83H418.363V460.633H410.805V454.246H425.951V452.195H410.746V450.027H428.734V456.297H413.559V458.465H429.262V460.633H421.117V462.83H431.752ZM410.893 475.457V466.287H413.676V468.572H426.01V466.287H428.764V475.457H410.893ZM413.676 473.26H426.01V470.711H413.676V473.26ZM455.424 449.529V475.838H452.641V449.529H455.424ZM434.594 460.691C434.594 455.081 437.421 451.507 441.391 451.492C445.287 451.507 448.158 455.081 448.158 460.691C448.158 466.36 445.287 469.935 441.391 469.92C437.421 469.935 434.594 466.36 434.594 460.691ZM437.289 460.691C437.274 464.866 438.944 467.43 441.391 467.43C443.793 467.43 445.463 464.866 445.463 460.691C445.463 456.575 443.793 453.997 441.391 453.982C438.944 453.997 437.274 456.575 437.289 460.691ZM181.469 494.529V508.094H178.656V494.529H181.469ZM160.082 505.076C161.078 505.076 162.162 505.062 163.275 505.047V498.455H160.785V496.258H175.053V498.455H172.533V504.666C173.808 504.578 175.067 504.461 176.254 504.314L176.371 506.336C171.127 507.127 165.019 507.317 160.404 507.303L160.082 505.076ZM164.037 511.492V509.295H181.469V515.799H166.85V518.289H182.377V520.516H164.125V513.777H178.715V511.492H164.037ZM165.941 504.988C167.231 504.944 168.549 504.9 169.867 504.827V498.455H165.941V504.988ZM209.594 515.184V517.498H185.57V515.184H191.313V508.328C189.159 507.142 187.841 505.267 187.856 502.908C187.841 498.777 191.898 496.067 197.523 496.053C203.163 496.067 207.221 498.777 207.221 502.908C207.221 505.223 205.961 507.083 203.852 508.27V515.184H209.594ZM190.551 502.908C190.551 505.721 193.407 507.552 197.523 507.566C201.61 507.552 204.511 505.721 204.525 502.908C204.511 500.081 201.61 498.279 197.523 498.279C193.407 498.279 190.551 500.081 190.551 502.908ZM194.066 515.184H201.039V509.354C199.97 509.603 198.783 509.734 197.523 509.734C196.293 509.734 195.121 509.603 194.066 509.354V515.184ZM232.123 494.559V502.996H235.932V505.311H232.123V514.188H229.34V494.559H232.123ZM211.527 499.861V497.605H217.973V494.529H220.756V497.605H227.172V499.861H211.527ZM212.963 506.072C212.948 503.069 215.541 501.106 219.35 501.121C223.114 501.106 225.707 503.069 225.707 506.072C225.707 509.046 223.114 510.979 219.35 510.994C215.541 510.979 212.948 509.046 212.963 506.072ZM215.482 520.223V512.635H218.266V517.967H233.236V520.223H215.482ZM215.658 506.072C215.629 507.786 217.123 508.841 219.35 508.826C221.576 508.841 223.07 507.786 223.1 506.072C223.07 504.344 221.576 503.274 219.35 503.26C217.123 503.274 215.629 504.344 215.658 506.072ZM265.404 494.529V501.18H269.184V503.465H265.404V510.027H262.592V494.529H265.404ZM245.863 508.123V496.463H257.582V498.719H248.617V505.867C253.788 505.838 256.703 505.691 260.014 505.018L260.277 507.273C256.762 507.991 253.627 508.123 247.943 508.123H245.863ZM248.09 515.623C248.09 512.415 251.488 510.54 256.908 510.525C262.27 510.54 265.609 512.415 265.609 515.623C265.609 518.86 262.27 520.735 256.908 520.721C251.488 520.735 248.09 518.86 248.09 515.623ZM250.844 515.623C250.829 517.439 253.114 518.509 256.908 518.494C260.629 518.509 262.929 517.439 262.943 515.623C262.929 513.807 260.629 512.767 256.908 512.781C253.114 512.767 250.829 513.807 250.844 515.623ZM292.445 494.559V513.777H289.662V494.559H292.445ZM270.824 507.859C274.94 506.336 277.372 502.557 277.387 498.602V495.994H280.229V498.602C280.214 502.439 282.646 505.955 286.703 507.361L285.268 509.588C282.235 508.46 279.994 506.233 278.822 503.392C277.665 506.438 275.395 508.87 272.318 510.057L270.824 507.859ZM275.277 520.223V511.961H278.09V517.967H293.236V520.223H275.277ZM319.193 494.529V520.779H316.527V494.529H319.193ZM296.898 505.867C296.898 500.184 299.125 496.624 302.553 496.639C305.746 496.624 307.899 499.656 308.222 504.578H311.195V495.027H313.861V519.49H311.195V506.834H308.236C307.987 511.961 305.805 515.14 302.553 515.125C299.125 515.14 296.898 511.565 296.898 505.867ZM299.477 505.867C299.477 510.042 300.663 512.503 302.553 512.488C304.486 512.503 305.688 510.042 305.688 505.867C305.688 501.678 304.486 499.231 302.553 499.246C300.663 499.231 299.477 501.678 299.477 505.867ZM345.092 494.529V520.779H342.455V494.529H345.092ZM322.445 513.191C328.012 509.881 330.678 505.472 331.161 500.066H323.676V497.781H333.93C333.915 500.345 333.564 502.791 332.758 505.076H336.918V495.203H339.555V519.49H336.918V507.303H331.791C330.238 510.35 327.733 513.016 324.027 515.184L322.445 513.191ZM351.449 518.494C350.307 518.479 349.355 517.557 349.369 516.414C349.355 515.271 350.307 514.334 351.449 514.334C352.577 514.334 353.515 515.271 353.529 516.414C353.515 517.557 352.577 518.479 351.449 518.494Z" fill="white"/>
<path d="M155.523 290.846V282.887C140.143 282.057 130.426 274.195 130.035 259.889H144.293C144.732 266.139 149.127 269.703 155.523 270.484V251.979L151.129 250.904C139.215 247.975 131.891 242.018 131.891 231.666C131.842 219.703 141.656 211.451 155.523 210.377V202.369H161.188V210.377C175.445 211.256 184.625 219.654 184.82 231.471H170.758C170.27 226.588 166.803 223.463 161.188 222.73V240.211L164.605 241.041C176.715 243.824 185.748 249.977 185.797 261.744C185.748 274 176.764 282.057 161.188 282.887V290.846H155.523ZM146.93 230.689C146.881 235.035 150.641 237.33 155.523 238.795V222.779C150.006 223.609 146.979 226.686 146.93 230.689ZM161.188 270.436C167.193 269.654 170.953 266.334 170.953 261.744C170.953 257.447 167.438 255.152 161.188 253.395V270.436ZM193.805 269.459V257.838L223.688 211.256H242.145V257.643H251.129V269.459H242.145V281.959H228.18V269.459H193.805ZM208.648 257.643H228.375V227.369H227.691L208.648 257.057V257.643ZM259.527 269.459V257.838L289.41 211.256H307.867V257.643H316.852V269.459H307.867V281.959H293.902V269.459H259.527ZM274.371 257.643H294.098V227.369H293.414L274.371 257.057V257.643ZM325.25 269.459V257.838L355.133 211.256H373.59V257.643H382.574V269.459H373.59V281.959H359.625V269.459H325.25ZM340.094 257.643H359.82V227.369H359.137L340.094 257.057V257.643Z" fill="white"/>
<g clip-path="url(#clip0_225_261)">
<path d="M184 894.605H202.56V899.908H199.909V897.257H191.954V910.514H199.909V907.863H202.56V913.166H184V894.605Z" fill="black"/>
<path d="M205.615 894.605H224.176V913.166H205.615V894.605ZM208.267 910.514H216.221V897.257H208.267V910.514Z" fill="black"/>
<path d="M227.231 894.605H243.14V897.257H245.791V910.514H243.14V913.166H227.231V894.605ZM235.185 910.514H243.14V897.257H235.185V910.514Z" fill="black"/>
<path d="M248.846 894.605H251.498V899.908H254.149V902.56H256.801V905.211H259.452V894.605H267.407V913.166H259.452V907.863H256.801V905.211H254.149V902.56H251.498V913.166H248.846V894.605Z" fill="black"/>
<path d="M270.462 894.605H289.022V897.257H283.719V910.514H289.022V913.166H270.462V910.514H275.765V897.257H270.462V894.605Z" fill="black"/>
<path d="M292.077 894.605H294.729V910.514H302.683V894.605H310.638V913.166H292.077V894.605Z" fill="black"/>
<path d="M313.693 894.605H332.253V897.257H321.647V902.56H332.253V913.166H313.693V910.514H324.299V905.211H313.693V894.605Z" fill="black"/>
</g>
<defs>
<clipPath id="clip0_225_261">
<rect width="145.829" height="18.5604" fill="white" transform="translate(184 894.605)"/>
</clipPath>
</defs>
</svg>
