<svg width="514" height="955" fill="none" xmlns="http://www.w3.org/2000/svg"><rect x="1" width="512.271" height="954.433" rx="37.392" fill="#9747FF"/><path fill="#1B1B1B" d="M1 110.305h512.271V395.42H1z"/><path fill="#000" d="M1 395.418h512.271v448.705H1z"/><path d="M226.939 40.566v28.282h-5.117v-23.32h-.156l-6.602 4.218v-4.648l6.993-4.532h4.882Zm35.274-3.515v26.015h-4.336V51.31h-9.219V47.87h9.219v-3.203h-9.219V41.23h9.219v-4.18h4.336Zm-27.539 21.21V39.395h4.297v15.274c4.492-.059 8.75-.332 13.476-1.172l.43 3.516c-5.43 1.035-10.195 1.23-15.43 1.25h-2.773Zm4.336 13.36v-10.86h4.375v7.345h19.726v3.515H239.01Zm58.047-34.57v26.601h-4.415v-4.258h-7.187v-3.437h7.187V37.051h4.415Zm-30.079 13.554c4.297-.02 9.629-.078 14.922-.39.547-3.281.703-5.899.762-7.813h-12.48v-3.476h16.835v1.328c0 1.855 0 5.137-.722 9.61a96.818 96.818 0 0 0 3.613-.43l.313 3.086c-3.047.527-6.192.878-9.297 1.113v7.754h-4.297v-7.5c-3.281.156-6.387.195-9.102.195l-.547-3.477Zm5.039 21.016V60.84h4.336v7.266h21.524v3.515h-25.86Z" fill="#1B1B1B"/><path d="M186.039 616.605v21.211h-3.252v-17.988h-.117l-5.068 3.311v-3.077l5.273-3.457h3.164Zm12.774 21.504c-4.908 0-7.793-3.955-7.793-10.898 0-6.899 2.915-10.899 7.793-10.899 4.863 0 7.778 4 7.793 10.899-.015 6.943-2.886 10.898-7.793 10.898Zm-4.571-10.898c-.014 5.288 1.699 8.115 4.571 8.115 2.856 0 4.57-2.827 4.57-8.115 0-5.273-1.729-8.159-4.57-8.174-2.857.015-4.571 2.901-4.571 8.174Zm23.086 10.898c-4.907 0-7.793-3.955-7.793-10.898 0-6.899 2.915-10.899 7.793-10.899 4.863 0 7.779 4 7.793 10.899-.014 6.943-2.886 10.898-7.793 10.898Zm-4.57-10.898c-.015 5.288 1.699 8.115 4.57 8.115 2.857 0 4.57-2.827 4.57-8.115 0-5.273-1.728-8.159-4.57-8.174-2.856.015-4.57 2.901-4.57 8.174Zm36.504-13.154v26.25h-2.783v-26.25h2.783Zm-21.563 19.101c2.168-.014 4.629-.029 7.207-.088v-2.636c-3.061-.411-5.053-2.212-5.039-4.776-.014-2.959 2.564-4.907 6.358-4.922 3.838.015 6.46 1.963 6.474 4.922-.014 2.534-1.992 4.321-5.039 4.761v2.549c2.432-.117 4.893-.293 7.207-.601l.205 2.08c-5.83.967-12.187 1.04-16.992 1.026l-.381-2.315Zm.557-13.74v-2.227h6.65v-3.076h2.784v3.076h6.591v2.227h-16.025Zm4.248 6.24c-.029 1.67 1.523 2.71 3.721 2.696 2.27.014 3.808-1.026 3.808-2.696 0-1.684-1.538-2.754-3.808-2.754-2.198 0-3.75 1.07-3.721 2.754Zm50.039-11.601v13.564h-2.754v-13.564h2.754Zm-21.445 11.484c4.072-1.26 6.606-4.424 6.621-7.822h-5.889v-2.256h14.473v2.256h-5.772c0 3.208 2.505 6.167 6.592 7.324l-1.348 2.139c-3.105-.923-5.419-2.901-6.606-5.42-1.157 2.783-3.56 4.966-6.782 5.976l-1.289-2.197Zm4.218 5.42v-2.139h17.256v6.504H268.1v2.549h15.351v2.168h-18.047v-6.738h14.414v-2.344h-14.502Zm45.411-3.633v2.256h-10.43v5.098h-2.754v-5.098h-10.84v-2.256h24.024Zm-21.036 12.422v-7.559h2.784v5.303h15.586v2.256h-18.37Zm.088-15.146v-9.317h17.842v9.317h-17.842Zm2.725-2.198h12.363v-4.922h-12.363v4.922Zm42.129-8.32v19.805h-2.813v-3.428h-5.566v-2.227h5.566v-14.15h2.813Zm-22.149 10.225c3.296-.015 7.398-.059 11.456-.323.439-2.666.556-4.717.571-6.181h-9.654v-2.256h12.452v1.025c-.015 1.421-.015 3.853-.557 7.193a82.764 82.764 0 0 0 2.842-.337l.205 2.021a73.623 73.623 0 0 1-7.207.82v5.918h-2.783v-5.771c-2.505.117-4.878.146-6.944.146l-.381-2.255Zm3.838 15.439v-7.998h2.784v5.742h16.171v2.256h-18.955ZM86.532 686.598v2.461c-.014 3.193.015 6.826-1.113 12.275l-2.725-.293c.484-2.241.748-4.219.909-5.991l-15.791.923-.41-2.403 16.332-.644c.059-1.421.074-2.681.074-3.867v-.176H68.192v-2.285h18.34Zm-21.181 20.42v-2.315h9.111v-6.65h2.754v6.65h12.07v2.315H65.351Zm47.197-10.401v2.285H94.267V686.51h18.047v2.285H97.021v7.822h15.527Zm-21.27 10.342v-2.314h24.024v2.314H91.278Zm47.725-22.793v26.25h-2.783v-26.25h2.783Zm-20.186 19.57v-17.021h2.754v14.619c3.838-.015 7.867-.352 12.071-1.201l.381 2.344c-4.644.952-8.863 1.274-13.008 1.259h-2.198Zm48.311-4.658v2.315h-10.723v9.023h-2.724v-9.023h-10.576v-2.315h24.023Zm-21.416-8.086c.015-3.574 3.794-5.83 9.346-5.83 5.551 0 9.36 2.256 9.345 5.83.015 3.53-3.794 5.772-9.345 5.772-5.552 0-9.331-2.242-9.346-5.772Zm2.871 0c-.015 2.183 2.578 3.545 6.475 3.545 3.911 0 6.489-1.362 6.504-3.545-.015-2.212-2.593-3.589-6.504-3.603-3.897.014-6.49 1.391-6.475 3.603Zm33.809-3.105c0 4.277 4.555 8.32 9.609 9.228l-1.289 2.315c-4.204-.909-8.057-3.662-9.756-7.354-1.728 3.677-5.581 6.416-9.785 7.354l-1.231-2.315c4.981-.937 9.507-4.951 9.522-9.228v-1.992h2.93v1.992Zm-13.33 19.072v-2.314h24.023v2.314h-24.023Zm33.808-21.123c4.043 0 7.046 2.549 7.061 6.24-.015 3.252-2.344 5.611-5.655 6.138v4.16c2.33-.117 4.659-.293 6.827-.571l.205 2.08c-5.552.967-11.66 1.011-16.201.967l-.44-2.286c2.036-.014 4.38-.029 6.826-.087v-4.263c-3.384-.498-5.698-2.871-5.683-6.138-.015-3.691 2.944-6.24 7.06-6.24Zm-4.365 6.24c-.015 2.329 1.846 3.882 4.365 3.867 2.49.015 4.321-1.538 4.336-3.867-.015-2.344-1.846-3.867-4.336-3.896-2.519.029-4.38 1.552-4.365 3.896Zm14.18 18.34v-26.25h2.783v10.664h4.043v2.344h-4.043v13.242h-2.783Zm30.263-24.346v2.256h-2.519v7.94a68.442 68.442 0 0 0 3.222-.323l.118 2.11c-5.054.791-10.943.879-15.147.879l-.351-2.315c.981 0 2.065 0 3.193-.014v-8.277h-2.461v-2.256h13.945Zm-10.488 19.541c-.015-3.061 3.325-4.804 8.877-4.804 5.537 0 8.862 1.743 8.877 4.804-.015 3.003-3.34 4.761-8.877 4.746-5.552.015-8.892-1.743-8.877-4.746Zm1.699-9.052c1.187-.03 2.388-.074 3.604-.132v-8.101h-3.604v8.233Zm1.055 9.052c-.015 1.656 2.241 2.593 6.123 2.608 3.853-.015 6.108-.952 6.123-2.608-.015-1.699-2.27-2.651-6.123-2.636-3.882-.015-6.138.937-6.123 2.636Zm8.115-9.873v-2.226h4.014v-2.549h-4.014v-2.227h4.014v-4.57h2.783v16.143h-2.783v-4.571h-4.014Zm33.223-11.572v16.553h-2.637v-7.324h-3.047v6.416h-2.607v-15.147h2.607v6.445h3.047v-6.943h2.637Zm-22.529 5.186v-2.198h5.302v-2.783h2.754v2.783h5.215v2.198h-13.271Zm1.025 5.742c0-2.725 2.344-4.512 5.625-4.512 3.354 0 5.684 1.787 5.684 4.512 0 2.724-2.33 4.511-5.684 4.511-3.281 0-5.625-1.787-5.625-4.511Zm2.49 0c0 1.494 1.275 2.475 3.135 2.49 1.89-.015 3.179-.996 3.164-2.49.015-1.494-1.274-2.476-3.164-2.461-1.86-.015-3.135.967-3.135 2.461Zm1.348 10.664c-.029-2.974 3.31-4.658 8.877-4.658 5.581 0 8.921 1.684 8.935 4.658-.014 2.944-3.354 4.614-8.935 4.599-5.567.015-8.906-1.655-8.877-4.599Zm2.754 0c-.03 1.582 2.226 2.49 6.123 2.461 3.911.029 6.137-.879 6.152-2.461-.015-1.655-2.241-2.534-6.152-2.52-3.897-.014-6.153.865-6.123 2.52Zm42.451-6.68v2.315h-10.723v9.023h-2.724v-9.023h-10.577v-2.315h24.024Zm-21.416-8.086c.015-3.574 3.794-5.83 9.346-5.83 5.551 0 9.36 2.256 9.345 5.83.015 3.53-3.794 5.772-9.345 5.772-5.552 0-9.331-2.242-9.346-5.772Zm2.871 0c-.015 2.183 2.578 3.545 6.475 3.545 3.911 0 6.489-1.362 6.503-3.545-.014-2.212-2.592-3.589-6.503-3.603-3.897.014-6.49 1.391-6.475 3.603Zm44.414 7.969v2.256h-10.664v9.17h-2.725v-9.17h-10.547v-2.256h23.936Zm-22.588-4.19c4.893-.673 8.965-3.588 9.053-6.826h-8.174v-2.226h19.453v2.226h-8.115c.044 3.238 4.087 6.153 9.053 6.826l-1.026 2.198c-4.306-.674-8.027-2.798-9.624-5.786-1.611 2.988-5.317 5.112-9.565 5.786l-1.055-2.198Zm55.899 2.667v2.255h-10.43v5.098h-2.754v-5.098h-10.84v-2.255h24.024Zm-21.036 12.421v-7.558h2.784v5.303h15.586v2.255h-18.37Zm.088-15.146v-9.317h17.842v9.317h-17.842Zm2.725-2.197h12.363v-4.922h-12.363v4.922Zm40.723-8.35v10.986h3.955v2.344h-3.955v12.92h-2.784v-26.25h2.784Zm-20.889 19.102c2.065 0 4.468 0 6.973-.074v-2.666c-2.959-.439-4.893-2.226-4.864-4.76-.029-2.959 2.534-4.908 6.27-4.922 3.721.014 6.313 1.963 6.328 4.922-.015 2.534-1.978 4.336-4.951 4.76v2.564c2.329-.117 4.673-.308 6.855-.615l.176 2.05c-5.684 1.011-11.821 1.07-16.348 1.055l-.439-2.314Zm.498-13.77v-2.227h6.475v-3.046h2.783v3.046h6.474v2.227H365.38Zm4.219 6.27c0 1.67 1.465 2.71 3.662 2.695 2.197.015 3.647-1.025 3.662-2.695-.015-1.685-1.465-2.754-3.662-2.754s-3.662 1.069-3.662 2.754Zm52.793 2.197v2.197h-23.994v-2.197h23.994Zm-21.27 6.709v-2.227h18.223v7.969h-2.842v-5.742h-15.381Zm.41-8.936V684.84h17.93v2.197h-15.117v2.139h14.443v2.109h-14.443v2.315h15.293v2.138h-18.106Zm43.477-11.572v6.621h3.808v2.256h-3.808v6.709h-2.783v-15.586h2.783Zm-20.654 13.535c6.152-1.728 9.917-5.156 10.429-9.404h-9.258v-2.256h12.276c0 6.782-4.614 11.689-12.305 13.916l-1.142-2.256Zm3.574 7.5c-.03-3.193 3.428-5.171 8.701-5.156 5.288-.015 8.672 1.963 8.672 5.156 0 3.223-3.384 5.171-8.672 5.186-5.273-.015-8.731-1.963-8.701-5.186Zm2.754 0c-.015 1.846 2.27 2.974 5.947 2.988 3.647-.014 5.947-1.142 5.947-2.988s-2.3-2.973-5.947-2.959c-3.677-.014-5.962 1.113-5.947 2.959ZM50.468 756.18v2.256h-2.52v7.939a68.471 68.471 0 0 0 3.223-.322l.117 2.109c-5.054.791-10.942.879-15.146.879l-.352-2.314c.982 0 2.066 0 3.194-.015v-8.276h-2.462v-2.256h13.946ZM39.98 775.721c-.015-3.062 3.325-4.805 8.877-4.805 5.537 0 8.862 1.743 8.877 4.805-.015 3.003-3.34 4.76-8.878 4.746-5.551.014-8.891-1.743-8.876-4.746Zm1.699-9.053c1.186-.029 2.387-.073 3.603-.132v-8.1H41.68v8.232Zm1.054 9.053c-.014 1.655 2.242 2.592 6.123 2.607 3.853-.015 6.109-.952 6.124-2.607-.015-1.7-2.271-2.652-6.123-2.637-3.882-.015-6.138.937-6.123 2.637Zm8.116-9.873v-2.227h4.013v-2.549H50.85v-2.226h4.013v-4.571h2.784v16.143h-2.784v-4.57H50.85Zm33.222-11.573v16.553h-2.636v-7.324h-3.047v6.416H75.78v-15.147h2.608v6.446h3.047v-6.944h2.636Zm-22.529 5.186v-2.197h5.303v-2.784h2.754v2.784h5.215v2.197H61.542Zm1.025 5.742c0-2.724 2.344-4.512 5.625-4.512 3.355 0 5.684 1.788 5.684 4.512 0 2.725-2.33 4.512-5.684 4.512-3.28 0-5.625-1.787-5.625-4.512Zm2.49 0c0 1.494 1.275 2.476 3.135 2.49 1.89-.014 3.18-.996 3.165-2.49.014-1.494-1.275-2.475-3.165-2.461-1.86-.014-3.134.967-3.134 2.461Zm1.348 10.664c-.029-2.973 3.31-4.658 8.877-4.658 5.581 0 8.921 1.685 8.936 4.658-.015 2.945-3.355 4.614-8.936 4.6-5.566.014-8.906-1.655-8.877-4.6Zm2.754 0c-.03 1.582 2.227 2.49 6.123 2.461 3.911.029 6.138-.879 6.153-2.461-.015-1.655-2.242-2.534-6.153-2.519-3.896-.015-6.152.864-6.123 2.519Zm42.451-6.679v2.314h-10.722v9.023h-2.725v-9.023H87.587v-2.314h24.023Zm-21.416-8.086c.015-3.575 3.794-5.831 9.346-5.831s9.36 2.256 9.346 5.831c.014 3.53-3.794 5.771-9.346 5.771s-9.331-2.241-9.346-5.771Zm2.871 0c-.014 2.182 2.579 3.544 6.475 3.544 3.911 0 6.489-1.362 6.504-3.544-.015-2.212-2.593-3.589-6.504-3.604-3.896.015-6.49 1.392-6.475 3.604Zm44.415 7.968v2.256h-10.665v9.17h-2.724v-9.17h-10.547v-2.256h23.936Zm-22.588-4.189c4.892-.674 8.965-3.589 9.052-6.826h-8.173v-2.227h19.453v2.227h-8.116c.044 3.237 4.087 6.152 9.053 6.826l-1.025 2.197c-4.307-.674-8.028-2.798-9.624-5.786-1.612 2.988-5.318 5.112-9.566 5.786l-1.054-2.197Zm47.168-10.606v26.25h-2.666v-26.25h2.666Zm-22.295 11.338c0-5.683 2.226-9.243 5.654-9.228 3.193-.015 5.347 3.017 5.669 7.939h2.974v-9.551h2.666v24.463h-2.666V766.58h-2.959c-.249 5.127-2.432 8.306-5.684 8.291-3.428.015-5.654-3.559-5.654-9.258Zm2.578 0c0 4.175 1.186 6.636 3.076 6.621 1.934.015 3.135-2.446 3.135-6.621 0-4.189-1.201-6.635-3.135-6.621-1.89-.014-3.076 2.432-3.076 6.621Zm51.65.762v2.227h-7.939v6.416h10.693v2.285h-24.023v-2.285H183.3v-6.416h-7.588v-12.305h18.047v2.256h-15.264v7.822h15.498Zm28.565-.586v2.08h-10.576v2.197h7.587v5.918h-15.293v2.168h16.026v2.11h-18.75v-6.211h15.263v-1.963h-15.292v-2.022h7.705v-2.197h-10.547v-2.08h23.877Zm-22.705-3.135c5.024-.278 8.569-1.816 9.14-4.043h-7.939v-2.138h8.174v-2.315h2.754v2.315h8.203v2.138h-7.984c.557 2.227 4.102 3.765 9.185 4.043l-.85 2.11c-4.57-.337-8.291-1.67-9.931-3.97-1.641 2.3-5.362 3.633-9.961 3.97l-.791-2.11Zm45.351-8.349v8.437h3.809v2.315h-3.809v8.877h-2.783v-19.629h2.783Zm-20.596 5.302v-2.255h6.446v-3.077h2.783v3.077h6.416v2.255h-15.645Zm1.436 6.211c-.015-3.003 2.578-4.965 6.387-4.951 3.764-.014 6.357 1.948 6.357 4.951 0 2.974-2.593 4.908-6.357 4.922-3.809-.014-6.402-1.948-6.387-4.922Zm2.52 14.151v-7.588h2.783v5.332h14.97v2.256h-17.753Zm.175-14.151c-.029 1.714 1.465 2.769 3.692 2.754 2.226.015 3.72-1.04 3.75-2.754-.03-1.728-1.524-2.797-3.75-2.812-2.227.015-3.721 1.084-3.692 2.812Zm36.123-9.58c3.926.015 6.724 3.589 6.739 9.2-.015 5.668-2.813 9.243-6.739 9.228-3.925.015-6.723-3.56-6.709-9.228-.014-5.611 2.784-9.185 6.709-9.2Zm-4.043 9.2c-.014 4.174 1.656 6.738 4.043 6.738 2.432 0 4.073-2.564 4.073-6.738 0-4.117-1.641-6.695-4.073-6.709-2.387.014-4.057 2.592-4.043 6.709Zm14.678 15.087v-26.25h2.783v10.284h4.219v2.343h-4.219v13.623h-2.783Zm30-26.25v26.309h-2.783v-26.309h2.783Zm-20.83 11.163c0-5.611 2.827-9.185 6.797-9.2 3.896.015 6.768 3.589 6.768 9.2 0 5.668-2.872 9.243-6.768 9.228-3.97.015-6.797-3.56-6.797-9.228Zm2.695 0c-.014 4.174 1.656 6.738 4.102 6.738 2.402 0 4.072-2.564 4.072-6.738 0-4.117-1.67-6.695-4.072-6.709-2.446.014-4.116 2.592-4.102 6.709Zm44.063-11.163v26.309h-2.783v-26.309h2.783Zm-20.068 19.864v-17.432h12.568v2.314h-9.756v12.745c4.966-.015 8.159-.162 11.865-.821l.293 2.315c-3.926.718-7.353.864-12.803.879h-2.167Zm31.376-17.901c3.575.015 6.167 3.033 6.592 7.881h5.42v-9.844h2.754v26.309h-2.754v-14.209h-5.39c-.308 5.127-2.959 8.306-6.622 8.291-3.911.015-6.679-3.56-6.65-9.228-.029-5.611 2.739-9.185 6.65-9.2Zm-4.013 9.2c.014 4.174 1.64 6.738 4.013 6.738 2.374 0 3.999-2.564 4.014-6.738-.015-4.117-1.64-6.695-4.014-6.709-2.373.014-3.999 2.592-4.013 6.709Zm50.771-11.133v7.734h3.809v2.344h-3.809v9.199h-2.783v-19.277h2.783Zm-19.599 14.941V756.18h2.724v4.189h6.885v-4.189h2.754v13.066h-12.363Zm2.724-2.226h6.885v-4.454h-6.885v4.454Zm.235 12.949v-8.291h2.783v6.035h14.971v2.256h-17.754Zm45.879-13.096v2.227h-23.936v-2.227h23.936Zm-21.358-6.914c-.015-3.135 3.633-5.054 9.375-5.068 5.728.014 9.36 1.933 9.375 5.068-.015 3.149-3.647 5.01-9.375 5.01-5.742 0-9.39-1.861-9.375-5.01Zm.264 15.85c0-3.047 3.398-4.747 9.111-4.717 5.64-.03 9.038 1.67 9.053 4.717-.015 3.032-3.413 4.731-9.053 4.716-5.713.015-9.111-1.684-9.111-4.716Zm2.607-15.85c-.014 1.802 2.461 2.827 6.504 2.842 4.014-.015 6.519-1.04 6.504-2.842.015-1.831-2.49-2.856-6.504-2.842-4.043-.014-6.518 1.011-6.504 2.842Zm.205 15.85c-.014 1.64 2.285 2.563 6.299 2.548 3.955.015 6.27-.908 6.27-2.548 0-1.7-2.315-2.608-6.27-2.608-4.014 0-6.313.908-6.299 2.608Zm49.483-21.504v19.218h-2.783v-9.873h-5.01v-2.255h5.01v-7.09h2.783Zm-21.856 13.74c4.029-1.362 6.548-4.819 6.533-8.438v-1.025h-5.683v-2.285h14.15v2.285h-5.625v1.025c-.014 3.267 2.359 6.563 6.328 7.881l-1.435 2.227c-2.945-1.026-5.127-3.135-6.27-5.742-1.142 2.9-3.442 5.215-6.562 6.328l-1.436-2.256Zm4.805 11.924v-8.174h2.783v5.918h14.971v2.256H432.88Zm33.926-24.229v2.227h-8.965v6.387c4.951 0 7.925-.191 11.338-.879l.322 2.197c-3.633.776-6.841.908-12.334.908h-2.08v-10.84h11.719Zm-9.17 15.176v-2.227h16.963v6.709h-14.18v2.549h15.088v2.256h-17.813v-6.943h14.151v-2.344h-14.209Zm14.179-3.457v-13.184h2.784v5.362h3.808v2.285h-3.808v5.537h-2.784ZM70.023 458.172v2.256H51.772v-9.61h2.783v7.354h15.468Zm-21.298 8.174v-2.285h24.023v2.285H61.996v9.433h-2.754v-9.433H48.725ZM95.54 451.17v2.314c0 2.491 0 5.201-.732 8.936h3.779v2.285H87.953v11.104h-2.812v-11.104H74.652v-2.285h17.344c.776-3.75.776-6.489.791-8.936v-.029H77.582v-2.285h17.96Zm29.063 19.043v2.314H100.58v-2.314h10.576v-5.391h-7.822v-13.506h2.783v4.512h12.891v-4.512h2.754v13.506h-7.852v5.391h10.694Zm-18.487-7.647h12.891v-4.482h-12.891v4.482Zm40.84-13.037v10.166h4.219v2.285h-4.219v13.858h-2.783v-26.309h2.783Zm-19.336 19.776v-17.256h12.276v2.256h-9.493v12.685c4.41-.014 7.705-.205 11.455-.879l.352 2.344c-4.116.733-7.603.864-12.48.85h-2.11Zm54.727-19.776v26.25h-2.666v-13.681h-3.252v12.392h-2.637v-24.463h2.637v9.785h3.252v-10.283h2.666Zm-21.709 19.336v-16.377h10.195v16.377h-10.195Zm2.636-2.226h4.952v-11.953h-4.952v11.953Zm35.801-15.293c.015 3.281 4.219 6.46 9.199 7.177l-1.084 2.198c-4.174-.689-7.836-2.842-9.521-5.786-1.67 2.988-5.361 5.156-9.551 5.844l-1.054-2.197c4.98-.762 9.155-3.853 9.169-7.236v-1.143h2.842v1.143Zm-13.418 13.652v-2.256h24.024v2.256h-10.43v5.068h-2.754v-5.068h-10.84Zm2.989 10.225v-7.618h2.783v5.362h15.586v2.256h-18.369Zm43.593-25.694v7.764h3.809v2.314h-3.809v8.995h-2.812v-19.073h2.812Zm-20.654 13.975c6.152-1.846 9.961-5.347 10.503-9.668h-9.39v-2.315h12.422c0 6.885-4.687 11.88-12.363 14.209l-1.172-2.226Zm3.984 11.719v-8.584h2.813v6.328h14.941v2.256H215.57Zm36.328-23.731c3.926.015 6.724 3.589 6.739 9.199-.015 5.669-2.813 9.244-6.739 9.229-3.925.015-6.723-3.56-6.708-9.229-.015-5.61 2.783-9.184 6.708-9.199Zm-4.042 9.199c-.015 4.175 1.655 6.739 4.042 6.739 2.432 0 4.073-2.564 4.073-6.739 0-4.116-1.641-6.694-4.073-6.709-2.387.015-4.057 2.593-4.042 6.709Zm14.677 15.088v-26.25h2.783v10.283h4.219v2.344h-4.219v13.623h-2.783Zm30-26.25v26.309h-2.783v-26.309h2.783Zm-20.83 11.162c0-5.61 2.827-9.184 6.797-9.199 3.897.015 6.768 3.589 6.768 9.199 0 5.669-2.871 9.244-6.768 9.229-3.97.015-6.797-3.56-6.797-9.229Zm2.695 0c-.014 4.175 1.656 6.739 4.102 6.739 2.402 0 4.072-2.564 4.072-6.739 0-4.116-1.67-6.694-4.072-6.709-2.446.015-4.116 2.593-4.102 6.709Zm44.063-11.162v26.309h-2.783v-26.309h2.783Zm-20.068 19.864v-17.432h12.568v2.314h-9.756v12.745c4.966-.015 8.159-.162 11.865-.821l.293 2.315c-3.925.717-7.353.864-12.802.879h-2.168Zm31.377-17.901c3.574.015 6.167 3.032 6.591 7.881h5.42v-9.844h2.754v26.309h-2.754v-14.209h-5.39c-.308 5.127-2.959 8.306-6.621 8.291-3.912.015-6.68-3.56-6.651-9.229-.029-5.61 2.739-9.184 6.651-9.199Zm-4.014 9.199c.015 4.175 1.641 6.739 4.014 6.739s3.999-2.564 4.013-6.739c-.014-4.116-1.64-6.694-4.013-6.709-2.373.015-3.999 2.593-4.014 6.709Zm51.885-11.162v26.309h-2.784v-26.309h2.784Zm-20.069 19.864v-17.432h12.569v2.314h-9.756v12.745c4.966-.015 8.159-.162 11.865-.821l.293 2.315c-3.926.717-7.353.864-12.803.879h-2.168Zm46.641-19.834v13.711h-2.637v-13.711h2.637Zm-21.27 12.597v-11.103h2.637v3.281h5.068v-3.281h2.579v4.277h3.105v-5.273h2.608v13.066h-2.608v-5.508h-3.105v4.541h-10.284Zm2.637-2.197h5.068v-3.516h-5.068v3.516Zm1.026 6.68v-2.198h17.607v6.446h-14.766v2.461h15.762v2.168h-18.545v-6.709h14.795v-2.168h-14.853Zm45.146-3.809v2.256h-24.023v-2.256h10.634v-2.197h-7.558v-6.387h15.146v-2.051h-15.205v-2.168h17.988v6.27h-15.175v2.168h15.703v2.168h-8.145v2.197h10.635Zm-20.859 12.627v-9.17h2.783v2.285h12.334v-2.285h2.754v9.17h-17.871Zm2.783-2.197h12.334v-2.549h-12.334v2.549Zm41.748-23.731v26.309h-2.783v-26.309h2.783Zm-20.83 11.162c0-5.61 2.827-9.184 6.797-9.199 3.896.015 6.767 3.589 6.767 9.199 0 5.669-2.871 9.244-6.767 9.229-3.97.015-6.797-3.56-6.797-9.229Zm2.695 0c-.015 4.175 1.655 6.739 4.102 6.739 2.402 0 4.072-2.564 4.072-6.739 0-4.116-1.67-6.694-4.072-6.709-2.447.015-4.117 2.593-4.102 6.709Zm-255.82 33.838v13.565h-2.813v-13.565h2.813Zm-21.387 10.547c.996 0 2.08-.014 3.193-.029v-6.592h-2.49v-2.197h14.268v2.197h-2.52v6.211a69.469 69.469 0 0 0 3.721-.352l.117 2.022c-5.244.791-11.352.981-15.967.967l-.322-2.227Zm3.955 6.416v-2.197h17.432v6.504H166.85v2.49h15.527v2.227h-18.252v-6.739h14.59v-2.285h-14.678Zm1.904-6.504c1.29-.044 2.608-.088 3.926-.161v-6.372h-3.926v6.533Zm43.653 10.196v2.314H185.57v-2.314h5.743v-6.856c-2.154-1.186-3.472-3.061-3.457-5.42-.015-4.131 4.042-6.841 9.667-6.855 5.64.014 9.698 2.724 9.698 6.855 0 2.315-1.26 4.175-3.369 5.362v6.914h5.742Zm-19.043-12.276c0 2.813 2.856 4.644 6.972 4.658 4.087-.014 6.988-1.845 7.002-4.658-.014-2.827-2.915-4.629-7.002-4.629-4.116 0-6.972 1.802-6.972 4.629Zm3.515 12.276h6.973v-5.83c-1.069.249-2.256.38-3.516.38-1.23 0-2.402-.131-3.457-.38v5.83Zm38.057-20.625v8.437h3.809v2.315h-3.809v8.877h-2.783v-19.629h2.783Zm-20.596 5.302v-2.256h6.446v-3.076h2.783v3.076h6.416v2.256h-15.645Zm1.436 6.211c-.015-3.003 2.578-4.966 6.387-4.951 3.764-.015 6.357 1.948 6.357 4.951 0 2.974-2.593 4.907-6.357 4.922-3.809-.015-6.402-1.948-6.387-4.922Zm2.519 14.151v-7.588h2.784v5.332h14.97v2.256h-17.754Zm.176-14.151c-.029 1.714 1.465 2.769 3.692 2.754 2.226.015 3.72-1.04 3.75-2.754-.03-1.728-1.524-2.798-3.75-2.812-2.227.014-3.721 1.084-3.692 2.812Zm49.746-11.543v6.651h3.78v2.285h-3.78v6.562h-2.812v-15.498h2.812Zm-19.541 13.594v-11.66h11.719v2.256h-8.965v7.148c5.171-.029 8.086-.176 11.397-.849l.263 2.255c-3.515.718-6.65.85-12.334.85h-2.08Zm2.227 7.5c0-3.208 3.398-5.083 8.818-5.098 5.362.015 8.701 1.89 8.701 5.098 0 3.237-3.339 5.112-8.701 5.098-5.42.014-8.818-1.861-8.818-5.098Zm2.754 0c-.015 1.816 2.27 2.886 6.064 2.871 3.721.015 6.021-1.055 6.035-2.871-.014-1.816-2.314-2.856-6.035-2.842-3.794-.014-6.079 1.026-6.064 2.842Zm41.601-21.064v19.218h-2.783v-19.218h2.783Zm-21.621 13.3c4.116-1.523 6.548-5.302 6.563-9.257v-2.608h2.842v2.608c-.015 3.837 2.417 7.353 6.474 8.759l-1.435 2.227c-3.033-1.128-5.274-3.355-6.446-6.196-1.157 3.046-3.427 5.478-6.504 6.665l-1.494-2.198Zm4.453 12.364v-8.262h2.813v6.006h15.146v2.256h-17.959Zm43.916-25.694v26.25h-2.666v-26.25h2.666Zm-22.295 11.338c0-5.683 2.227-9.243 5.655-9.228 3.193-.015 5.346 3.017 5.669 7.939h2.973v-9.551h2.666v24.463h-2.666v-12.656h-2.959c-.249 5.127-2.431 8.306-5.683 8.291-3.428.015-5.655-3.56-5.655-9.258Zm2.579 0c0 4.175 1.186 6.636 3.076 6.621 1.933.015 3.135-2.446 3.135-6.621 0-4.189-1.202-6.636-3.135-6.621-1.89-.015-3.076 2.432-3.076 6.621Zm45.615-11.338v26.25h-2.637v-26.25h2.637Zm-22.647 18.662c5.567-3.31 8.233-7.719 8.716-13.125h-7.485v-2.285h10.254c-.015 2.564-.366 5.01-1.172 7.295h4.16v-9.873h2.637v24.287h-2.637v-12.187h-5.127c-1.553 3.047-4.058 5.713-7.764 7.881l-1.582-1.993Zm29.004 5.303c-1.142-.015-2.094-.937-2.08-2.08-.014-1.143.938-2.08 2.08-2.08 1.128 0 2.066.937 2.08 2.08a2.117 2.117 0 0 1-2.08 2.08ZM155.523 290.846v-7.959c-15.38-.83-25.097-8.692-25.488-22.998h14.258c.439 6.25 4.834 9.814 11.23 10.595v-18.505l-4.394-1.075c-11.914-2.929-19.238-8.886-19.238-19.238-.049-11.963 9.765-20.215 23.632-21.289v-8.008h5.665v8.008c14.257.879 23.437 9.277 23.632 21.094h-14.062c-.488-4.883-3.955-8.008-9.57-8.741v17.481l3.417.83c12.11 2.783 21.143 8.936 21.192 20.703-.049 12.256-9.033 20.313-24.609 21.143v7.959h-5.665Zm-8.593-60.157c-.049 4.346 3.711 6.641 8.593 8.106v-16.016c-5.517.83-8.544 3.907-8.593 7.91Zm14.258 39.747c6.005-.782 9.765-4.102 9.765-8.692 0-4.297-3.515-6.592-9.765-8.349v17.041Zm32.617-.977v-11.621l29.883-46.582h18.457v46.387h8.984v11.816h-8.984v12.5H228.18v-12.5h-34.375Zm14.843-11.816h19.727v-30.274h-.684l-19.043 29.688v.586Zm50.879 11.816v-11.621l29.883-46.582h18.457v46.387h8.985v11.816h-8.985v12.5h-13.965v-12.5h-34.375Zm14.844-11.816h19.727v-30.274h-.684l-19.043 29.688v.586Zm50.879 11.816v-11.621l29.883-46.582h18.457v46.387h8.984v11.816h-8.984v12.5h-13.965v-12.5H325.25Zm14.844-11.816h19.726v-30.274h-.683l-19.043 29.688v.586Z" fill="#fff"/><g clip-path="url(#a)" fill="#000"><path d="M184 894.605h18.56v5.303h-2.651v-2.651h-7.955v13.257h7.955v-2.651h2.651v5.303H184v-18.561ZM205.615 894.605h18.561v18.561h-18.561v-18.561Zm2.652 15.909h7.954v-13.257h-7.954v13.257ZM227.231 894.605h15.909v2.652h2.651v13.257h-2.651v2.652h-15.909v-18.561Zm7.954 15.909h7.955v-13.257h-7.955v13.257ZM248.846 894.605h2.652v5.303h2.651v2.652h2.652v2.651h2.651v-10.606h7.955v18.561h-7.955v-5.303h-2.651v-2.652h-2.652v-2.651h-2.651v10.606h-2.652v-18.561ZM270.462 894.605h18.56v2.652h-5.303v13.257h5.303v2.652h-18.56v-2.652h5.303v-13.257h-5.303v-2.652ZM292.077 894.605h2.652v15.909h7.954v-15.909h7.955v18.561h-18.561v-18.561ZM313.693 894.605h18.56v2.652h-10.606v5.303h10.606v10.606h-18.56v-2.652h10.606v-5.303h-10.606v-10.606Z"/></g><defs><clipPath id="a"><path fill="#fff" transform="translate(184 894.605)" d="M0 0h145.829v18.56H0z"/></clipPath></defs></svg>