<svg width="513" height="955" viewBox="0 0 513 955" fill="none" xmlns="http://www.w3.org/2000/svg">
<rect width="512.271" height="954.433" rx="37.3921" fill="#9747FF"/>
<rect y="110.305" width="512.271" height="285.115" fill="#1B1B1B"/>
<rect y="395.418" width="512.271" height="448.705" fill="black"/>
<path d="M225.939 40.5664V68.8477H220.822V45.5273H220.666L214.064 49.7461V45.0977L221.057 40.5664H225.939ZM248.83 38.9258V42.4023H237.307V50.2539C243.732 50.2148 247.58 49.9609 251.955 49.082L252.424 52.4414C247.678 53.5156 243.381 53.6719 235.861 53.6523H233.01V38.9258H248.83ZM236.408 59.668V56.1914H259.494V65.5664H240.744V68.3789H260.588V71.8945H236.447V62.2852H255.158V59.668H236.408ZM255.158 54.668V37.0117H259.494V43.9648H264.416V47.5195H259.494V54.668H255.158ZM296.057 37.0508V63.6523H291.642V59.3945H284.455V55.957H291.642V37.0508H296.057ZM265.978 50.6055C270.275 50.5859 275.607 50.5273 280.9 50.2148C281.447 46.9336 281.603 44.3164 281.662 42.4023H269.182V38.9258H286.017V40.2539C286.017 42.1094 286.017 45.3906 285.295 49.8633C286.525 49.7461 287.736 49.5898 288.908 49.4336L289.221 52.5195C286.174 53.0469 283.029 53.3984 279.924 53.6328V61.3867H275.627V53.8867C272.346 54.043 269.24 54.082 266.525 54.082L265.978 50.6055ZM271.017 71.6211V60.8398H275.353V68.1055H296.877V71.6211H271.017Z" fill="#1B1B1B"/>
<path d="M189.252 290.846V282.887C173.871 282.057 164.154 274.195 163.764 259.889H178.021C178.461 266.139 182.855 269.703 189.252 270.484V251.979L184.857 250.904C172.943 247.975 165.619 242.018 165.619 231.666C165.57 219.703 175.385 211.451 189.252 210.377V202.369H194.916V210.377C209.174 211.256 218.354 219.654 218.549 231.471H204.486C203.998 226.588 200.531 223.463 194.916 222.73V240.211L198.334 241.041C210.443 243.824 219.477 249.977 219.525 261.744C219.477 274 210.492 282.057 194.916 282.887V290.846H189.252ZM180.658 230.689C180.609 235.035 184.369 237.33 189.252 238.795V222.779C183.734 223.609 180.707 226.686 180.658 230.689ZM194.916 270.436C200.922 269.654 204.682 266.334 204.682 261.744C204.682 257.447 201.166 255.152 194.916 253.395V270.436ZM254.682 282.936C239.936 282.936 229.145 274.244 228.9 262.037H243.158C243.5 267.555 248.529 271.363 254.682 271.314C262.006 271.363 267.23 266.188 267.182 258.814C267.23 251.295 261.908 246.07 254.486 246.021C249.164 246.021 245.453 248.023 243.354 251.979H230.072L233.881 211.256H277.436V223.268H245.99L244.037 241.139H244.623C247.211 237.672 252.582 235.133 258.783 235.182C271.771 235.133 281.439 244.85 281.439 258.424C281.439 272.73 270.6 282.936 254.682 282.936ZM318.842 282.936C301.117 282.936 290.424 269.752 290.424 246.607C290.424 223.512 301.215 210.279 318.842 210.279C336.469 210.279 347.26 223.512 347.26 246.607C347.26 269.85 336.518 282.936 318.842 282.936ZM305.463 246.607C305.365 262.916 310.639 270.826 318.842 270.826C327.045 270.826 332.27 262.916 332.221 246.607C332.27 230.445 326.996 222.34 318.842 222.291C310.688 222.34 305.463 230.445 305.463 246.607Z" fill="white"/>
<path d="M184.314 637.816V635.473L191.668 628.061C193.997 625.644 195.154 624.296 195.154 622.436C195.154 620.341 193.455 619.008 191.228 619.008C188.87 619.008 187.376 620.502 187.361 622.758H184.314C184.285 618.876 187.244 616.312 191.287 616.312C195.374 616.312 198.201 618.905 198.23 622.348C198.201 624.721 197.088 626.61 193.103 630.521L188.797 634.887V635.062H198.582V637.816H184.314ZM209.539 638.109C204.632 638.109 201.746 634.154 201.746 627.211C201.746 620.312 204.661 616.312 209.539 616.312C214.402 616.312 217.317 620.312 217.332 627.211C217.317 634.154 214.446 638.109 209.539 638.109ZM204.969 627.211C204.954 632.499 206.668 635.326 209.539 635.326C212.395 635.326 214.109 632.499 214.109 627.211C214.109 621.938 212.381 619.052 209.539 619.037C206.683 619.052 204.969 621.938 204.969 627.211ZM241.473 614.057V640.307H238.689V614.057H241.473ZM219.91 633.158C222.078 633.144 224.539 633.129 227.117 633.07V630.434C224.056 630.023 222.063 628.222 222.078 625.658C222.063 622.699 224.642 620.751 228.435 620.736C232.273 620.751 234.895 622.699 234.91 625.658C234.895 628.192 232.918 629.979 229.871 630.419V632.968C232.303 632.851 234.764 632.675 237.078 632.367L237.283 634.447C231.453 635.414 225.096 635.487 220.291 635.473L219.91 633.158ZM220.467 619.418V617.191H227.117V614.115H229.9V617.191H236.492V619.418H220.467ZM224.715 625.658C224.685 627.328 226.238 628.368 228.435 628.354C230.706 628.368 232.244 627.328 232.244 625.658C232.244 623.974 230.706 622.904 228.435 622.904C226.238 622.904 224.685 623.974 224.715 625.658ZM274.754 614.057V627.621H272V614.057H274.754ZM253.309 625.541C257.381 624.281 259.915 621.117 259.93 617.719H254.041V615.463H268.514V617.719H262.742C262.742 620.927 265.247 623.886 269.334 625.043L267.986 627.182C264.881 626.259 262.566 624.281 261.38 621.762C260.223 624.545 257.82 626.728 254.598 627.738L253.309 625.541ZM257.527 630.961V628.822H274.783V635.326H260.31V637.875H275.662V640.043H257.615V633.305H272.029V630.961H257.527ZM302.937 627.328V629.584H292.508V634.682H289.754V629.584H278.914V627.328H302.937ZM281.902 639.75V632.191H284.685V637.494H300.271V639.75H281.902ZM281.99 624.604V615.287H299.832V624.604H281.99ZM284.715 622.406H297.078V617.484H284.715V622.406ZM326.844 614.086V633.891H324.031V630.463H318.465V628.236H324.031V614.086H326.844ZM304.695 624.311C307.991 624.296 312.093 624.252 316.15 623.988C316.59 621.322 316.707 619.271 316.722 617.807H307.068V615.551H319.519V616.576C319.505 617.997 319.505 620.429 318.963 623.769C319.93 623.666 320.882 623.563 321.805 623.432L322.01 625.453C319.651 625.849 317.205 626.112 314.803 626.273V632.191H312.019V626.42C309.515 626.537 307.142 626.566 305.076 626.566L304.695 624.311ZM308.533 639.75V631.752H311.316V637.494H327.488V639.75H308.533Z" fill="white"/>
<path d="M98.7675 686.598V689.059C98.7529 692.252 98.7822 695.885 97.6542 701.334L94.9296 701.041C95.413 698.8 95.6767 696.822 95.8378 695.05L80.0468 695.973L79.6367 693.57L95.9697 692.926C96.0283 691.505 96.0429 690.245 96.0429 689.059V688.883H80.4277V686.598H98.7675ZM77.5859 707.018V704.703H86.6972V698.053H89.4511V704.703H101.521V707.018H77.5859ZM124.783 696.617V698.902H106.502V686.51H124.549V688.795H109.256V696.617H124.783ZM103.514 706.959V704.645H127.537V706.959H103.514ZM151.238 684.166V710.416H148.455V684.166H151.238ZM131.053 703.736V686.715H133.807V701.334C137.644 701.319 141.673 700.982 145.877 700.133L146.258 702.477C141.614 703.429 137.395 703.751 133.25 703.736H131.053ZM179.363 699.078V701.393H168.641V710.416H165.916V701.393H155.34V699.078H179.363ZM157.947 690.992C157.962 687.418 161.741 685.162 167.293 685.162C172.845 685.162 176.653 687.418 176.639 690.992C176.653 694.522 172.845 696.764 167.293 696.764C161.741 696.764 157.962 694.522 157.947 690.992ZM160.818 690.992C160.804 693.175 163.396 694.537 167.293 694.537C171.204 694.537 173.782 693.175 173.797 690.992C173.782 688.78 171.204 687.403 167.293 687.389C163.396 687.403 160.804 688.78 160.818 690.992ZM194.627 687.887C194.627 692.164 199.183 696.207 204.236 697.115L202.947 699.43C198.743 698.521 194.891 695.768 193.191 692.076C191.463 695.753 187.61 698.492 183.406 699.43L182.176 697.115C187.156 696.178 191.683 692.164 191.697 687.887V685.895H194.627V687.887ZM181.297 706.959V704.645H205.32V706.959H181.297ZM215.105 685.836C219.148 685.836 222.151 688.385 222.166 692.076C222.151 695.328 219.822 697.687 216.512 698.214V702.374C218.841 702.257 221.17 702.081 223.338 701.803L223.543 703.883C217.991 704.85 211.883 704.894 207.342 704.85L206.902 702.564C208.938 702.55 211.282 702.535 213.728 702.477V698.214C210.345 697.716 208.03 695.343 208.045 692.076C208.03 688.385 210.989 685.836 215.105 685.836ZM210.74 692.076C210.726 694.405 212.586 695.958 215.105 695.943C217.596 695.958 219.427 694.405 219.441 692.076C219.427 689.732 217.596 688.209 215.105 688.18C212.586 688.209 210.726 689.732 210.74 692.076ZM224.92 710.416V684.166H227.703V694.83H231.746V697.174H227.703V710.416H224.92ZM255.184 686.07V688.326H252.664V696.266C253.777 696.178 254.847 696.075 255.887 695.943L256.004 698.053C250.95 698.844 245.061 698.932 240.857 698.932L240.506 696.617C241.487 696.617 242.571 696.617 243.699 696.603V688.326H241.238V686.07H255.184ZM244.695 705.611C244.681 702.55 248.02 700.807 253.572 700.807C259.109 700.807 262.435 702.55 262.449 705.611C262.435 708.614 259.109 710.372 253.572 710.357C248.02 710.372 244.681 708.614 244.695 705.611ZM246.394 696.559C247.581 696.529 248.782 696.485 249.998 696.427V688.326H246.394V696.559ZM247.449 705.611C247.435 707.267 249.69 708.204 253.572 708.219C257.425 708.204 259.681 707.267 259.695 705.611C259.681 703.912 257.425 702.96 253.572 702.975C249.69 702.96 247.435 703.912 247.449 705.611ZM255.564 695.738V693.512H259.578V690.963H255.564V688.736H259.578V684.166H262.361V700.309H259.578V695.738H255.564ZM288.787 684.166V700.719H286.15V693.395H283.103V699.811H280.496V684.664H283.103V691.109H286.15V684.166H288.787ZM266.258 689.352V687.154H271.56V684.371H274.314V687.154H279.529V689.352H266.258ZM267.283 695.094C267.283 692.369 269.627 690.582 272.908 690.582C276.263 690.582 278.592 692.369 278.592 695.094C278.592 697.818 276.263 699.605 272.908 699.605C269.627 699.605 267.283 697.818 267.283 695.094ZM269.773 695.094C269.773 696.588 271.048 697.569 272.908 697.584C274.798 697.569 276.087 696.588 276.072 695.094C276.087 693.6 274.798 692.618 272.908 692.633C271.048 692.618 269.773 693.6 269.773 695.094ZM271.121 705.758C271.092 702.784 274.432 701.1 279.998 701.1C285.579 701.1 288.919 702.784 288.934 705.758C288.919 708.702 285.579 710.372 279.998 710.357C274.432 710.372 271.092 708.702 271.121 705.758ZM273.875 705.758C273.846 707.34 276.102 708.248 279.998 708.219C283.909 708.248 286.136 707.34 286.15 705.758C286.136 704.103 283.909 703.224 279.998 703.238C276.102 703.224 273.846 704.103 273.875 705.758ZM323.65 699.078V701.393H312.928V710.416H310.203V701.393H299.627V699.078H323.65ZM302.234 690.992C302.249 687.418 306.028 685.162 311.58 685.162C317.132 685.162 320.94 687.418 320.926 690.992C320.94 694.522 317.132 696.764 311.58 696.764C306.028 696.764 302.249 694.522 302.234 690.992ZM305.105 690.992C305.091 693.175 307.684 694.537 311.58 694.537C315.491 694.537 318.069 693.175 318.084 690.992C318.069 688.78 315.491 687.403 311.58 687.389C307.684 687.403 305.091 688.78 305.105 690.992ZM349.519 698.961V701.217H338.855V710.387H336.131V701.217H325.584V698.961H349.519ZM326.932 694.771C331.824 694.098 335.896 691.183 335.984 687.945H327.81V685.719H347.264V687.945H339.148C339.192 691.183 343.235 694.098 348.201 694.771L347.176 696.969C342.869 696.295 339.148 694.171 337.552 691.183C335.94 694.171 332.234 696.295 327.986 696.969L326.932 694.771ZM371.932 686.1V697.906H359.861V686.1H371.932ZM361.297 708.102C366.219 707.34 369.954 704.557 369.969 701.07V700.309H372.723V701.07C372.693 704.557 376.458 707.34 381.424 708.102L380.31 710.299C376.311 709.61 372.942 707.677 371.36 704.864C369.749 707.677 366.38 709.61 362.381 710.299L361.297 708.102ZM362.586 695.68H369.178V688.355H362.586V695.68ZM376.678 701.568V684.166H379.461V691.139H383.269V693.482H379.461V701.568H376.678ZM408.787 704.85V707.164H384.764V704.85H395.34V699.459H387.518V685.953H390.301V690.465H403.191V685.953H405.945V699.459H398.094V704.85H408.787ZM390.301 697.203H403.191V692.721H390.301V697.203ZM432.518 684.166V710.416H429.705V684.166H432.518ZM410.955 703.385C417.928 700.06 421.341 695.328 421.883 689.205H412.215V686.979H424.695C424.695 694.669 421.429 701.319 412.42 705.641L410.955 703.385Z" fill="white"/>
<path d="M91.4433 778.035L100.906 759.754V759.578H89.9785V756.824H104.246V759.695L94.8124 778.035H91.4433ZM114.412 778.328C109.505 778.328 106.619 774.373 106.619 767.43C106.619 760.53 109.534 756.531 114.412 756.531C119.275 756.531 122.19 760.53 122.205 767.43C122.19 774.373 119.319 778.328 114.412 778.328ZM109.842 767.43C109.827 772.718 111.541 775.545 114.412 775.545C117.268 775.545 118.982 772.718 118.982 767.43C118.982 762.156 117.254 759.271 114.412 759.256C111.556 759.271 109.842 762.156 109.842 767.43ZM132.928 778.328C128.02 778.328 125.135 774.373 125.135 767.43C125.135 760.53 128.05 756.531 132.928 756.531C137.791 756.531 140.706 760.53 140.721 767.43C140.706 774.373 137.835 778.328 132.928 778.328ZM128.357 767.43C128.343 772.718 130.057 775.545 132.928 775.545C135.784 775.545 137.498 772.718 137.498 767.43C137.498 762.156 135.769 759.271 132.928 759.256C130.071 759.271 128.357 762.156 128.357 767.43ZM165.037 754.305V773.699H162.254V764.764H155.047V762.537H162.254V759.783H155.047V757.557H162.254V754.305H165.037ZM144.705 769.949V756.121H147.459V767.605C150.945 767.591 154.256 767.4 158.006 766.697L158.299 768.982C154.139 769.759 150.579 769.92 146.727 769.949H144.705ZM147.928 779.969V772H150.74V777.713H165.711V779.969H147.928ZM198.289 754.305V769.832H195.506V766.639H188.885V764.354H195.506V761.16H189.163C187.464 765.379 183.523 768.353 177.84 769.979L176.727 767.811C182.937 766.038 186.57 762.698 187.068 758.465H178.074V756.18H190.086C190.086 757.146 189.983 758.084 189.808 758.963H195.506V754.305H198.289ZM180.799 775.252C180.799 772.073 184.256 770.14 189.646 770.125C194.964 770.14 198.45 772.073 198.465 775.252C198.45 778.445 194.964 780.408 189.646 780.408C184.256 780.408 180.799 778.445 180.799 775.252ZM183.553 775.252C183.553 777.098 185.896 778.167 189.646 778.182C193.323 778.167 195.667 777.098 195.682 775.252C195.667 773.377 193.323 772.308 189.646 772.322C185.896 772.308 183.553 773.377 183.553 775.252ZM214.842 755.857V763.504H206.17V767.137C210.74 767.137 213.23 767.034 216.189 766.492L216.453 768.748C213.245 769.29 210.55 769.378 205.32 769.393H203.416V761.395H212.059V758.084H203.387V755.857H214.842ZM206.404 774.021V771.766H224.217V780.555H221.434V774.021H206.404ZM216.512 765.818V763.592H221.434V760.34H216.512V758.113H221.434V754.305H224.217V770.447H221.434V765.818H216.512ZM236.814 756.15C240.96 756.136 243.948 758.699 243.963 762.391C243.948 766.082 240.96 768.646 236.814 768.66C232.684 768.646 229.651 766.082 229.666 762.391C229.651 758.699 232.684 756.136 236.814 756.15ZM228.406 772.615C233.182 772.615 239.803 772.571 245.545 771.736L245.75 773.758C239.817 774.9 233.445 774.93 228.758 774.93L228.406 772.615ZM232.42 762.391C232.391 764.72 234.266 766.229 236.814 766.229C239.363 766.229 241.238 764.72 241.238 762.391C241.238 760.091 239.363 758.553 236.814 758.553C234.266 758.553 232.391 760.091 232.42 762.391ZM247.185 780.584V754.275H249.969V780.584H247.185ZM283.279 754.305V773.523H280.496V754.305H283.279ZM261.658 767.605C265.774 766.082 268.206 762.303 268.221 758.348V755.74H271.062V758.348C271.048 762.186 273.479 765.701 277.537 767.107L276.102 769.334C273.069 768.206 270.828 765.979 269.656 763.138C268.499 766.185 266.228 768.616 263.152 769.803L261.658 767.605ZM266.111 779.969V771.707H268.924V777.713H284.07V779.969H266.111ZM311.404 765.027V767.254H287.439V765.027H311.404ZM290.31 771.473V769.334H308.357V775.691H293.064V778.035H309.09V780.232H290.34V773.641H305.603V771.473H290.31ZM290.574 763.123V755.037H308.299V757.293H293.357V760.896H308.562V763.123H290.574ZM335.105 754.305V773.611H332.352V754.305H335.105ZM314.685 758.348V756.121H326.756V763.943H317.469V767.723C322.288 767.693 325.584 767.547 329.48 766.844L329.773 769.129C325.643 769.847 322.156 769.993 316.941 770.008H314.744V761.834H324.002V758.348H314.685ZM317.762 779.969V772.088H320.545V777.713H335.838V779.969H317.762ZM368.445 754.275V780.525H365.633V754.275H368.445ZM346.56 771.854C347.644 771.854 348.802 771.839 350.018 771.824V759.256H347.264V756.971H362.205V759.256H359.48V771.473C360.843 771.37 362.19 771.238 363.494 771.092L363.641 773.143C357.957 774.065 351.717 774.153 346.883 774.168L346.56 771.854ZM352.713 771.78C354.031 771.751 355.393 771.692 356.756 771.634V759.256H352.713V771.78ZM393.816 766.727V769.012H375.535V756.619H393.582V758.904H378.289V766.727H393.816ZM372.547 777.068V774.754H396.57V777.068H372.547ZM402.225 755.945V759.959H407.293V755.945H409.871V768.338H399.588V755.945H402.225ZM402.225 766.082H407.293V762.127H402.225V766.082ZM403.016 773.787V771.531H420.857V780.525H418.103V773.787H403.016ZM412.566 769.891V754.773H415.144V760.984H418.221V754.305H420.857V770.066H418.221V763.27H415.144V769.891H412.566Z" fill="white"/>
<path d="M63.7138 454.393C63.6845 456.019 64.2119 458.479 65.9257 460.164C67.5956 458.509 68.1523 456.136 68.1669 454.393V453.221H66.4677V450.936H73.8505V453.221H70.8036V454.393C70.789 456.604 72.0195 459.476 74.9345 460.838L73.5869 462.83C71.5507 461.907 70.2617 460.237 69.5439 458.392C68.9726 460.267 67.8886 462.068 65.9111 463.094C63.9628 462.068 62.8788 460.267 62.3076 458.406C61.5751 460.237 60.3007 461.893 58.2939 462.83L56.9462 460.838C59.8173 459.461 61.0917 456.531 61.1064 454.393V453.221H57.913V450.936H65.413V453.221H63.7138V454.393ZM60.1103 466.844V464.793H68.4599V470.975H62.8642V473.406C65.413 473.406 67.0097 473.362 69.0165 472.967L69.2509 475.047C66.8339 475.486 64.9882 475.516 61.5751 475.516H60.1689V468.982H65.7646V466.844H60.1103ZM70.0126 475.516V464.559H72.5322V467.723H76.0771V464.559H78.538V475.516H70.0126ZM72.5322 473.377H76.0771V469.803H72.5322V473.377ZM75.7841 463.211V449.529H78.538V454.92H81.7314V457.264H78.538V463.211H75.7841ZM107.161 463.24V465.467H83.2255V463.24H107.161ZM85.8036 455.652C85.789 452.356 89.4658 450.394 95.1786 450.408C100.862 450.394 104.539 452.356 104.554 455.652C104.539 458.963 100.862 460.97 95.1786 460.984C89.4658 460.97 85.789 458.963 85.8036 455.652ZM86.2431 475.223V467.605H89.0556V472.967H104.466V475.223H86.2431ZM88.6747 455.652C88.6601 457.601 91.1503 458.699 95.1786 458.699C99.1923 458.699 101.697 457.601 101.683 455.652C101.697 453.777 99.1923 452.635 95.1786 452.635C91.1503 452.635 88.6601 453.777 88.6747 455.652ZM126.116 456.209C126.087 460.999 128.987 465.833 133.06 467.635L131.39 469.832C128.372 468.396 125.984 465.452 124.754 461.863C123.538 465.716 121.121 468.88 117.972 470.418L116.272 468.074C120.403 466.243 123.304 461.219 123.304 456.209V451.727H126.116V456.209ZM135.433 475.838V449.529H138.216V475.838H135.433ZM163.03 449.529V457.293H166.839V459.607H163.03V468.602H160.218V449.529H163.03ZM142.376 463.504C148.528 461.658 152.337 458.157 152.879 453.836H143.489V451.521H155.911C155.911 458.406 151.224 463.401 143.548 465.73L142.376 463.504ZM146.36 475.223V466.639H149.173V472.967H164.114V475.223H146.36ZM199.622 462.303V464.529H175.657V462.303H186.292V459.52H178.645V450.73H196.663V452.928H181.399V457.293H196.839V459.52H188.987V462.303H199.622ZM178.499 471.004C178.499 467.957 181.912 466.243 187.61 466.229C193.265 466.243 196.648 467.957 196.663 471.004C196.648 474.051 193.265 475.765 187.61 475.779C181.912 475.765 178.499 474.051 178.499 471.004ZM181.311 471.004C181.297 472.688 183.597 473.611 187.61 473.582C191.565 473.611 193.88 472.688 193.88 471.004C193.88 469.349 191.565 468.396 187.61 468.396C183.597 468.396 181.297 469.349 181.311 471.004ZM222.21 449.5V457.352H226.018V459.695H222.21V468.807H219.427V449.5H222.21ZM201.995 457.85C201.966 454.026 205.013 451.331 208.968 451.316C212.937 451.331 215.94 454.026 215.97 457.85C215.94 461.673 212.937 464.397 208.968 464.383C205.013 464.397 201.966 461.673 201.995 457.85ZM204.72 457.85C204.69 460.296 206.565 461.951 208.968 461.951C211.399 461.951 213.23 460.296 213.245 457.85C213.23 455.403 211.399 453.748 208.968 453.748C206.565 453.748 204.69 455.403 204.72 457.85ZM205.569 475.223V466.785H208.352V472.967H223.323V475.223H205.569ZM241.868 451.492C245.794 451.507 248.592 455.081 248.606 460.691C248.592 466.36 245.794 469.935 241.868 469.92C237.942 469.935 235.144 466.36 235.159 460.691C235.144 455.081 237.942 451.507 241.868 451.492ZM237.825 460.691C237.81 464.866 239.48 467.43 241.868 467.43C244.3 467.43 245.94 464.866 245.94 460.691C245.94 456.575 244.3 453.997 241.868 453.982C239.48 453.997 237.81 456.575 237.825 460.691ZM252.503 475.779V449.529H255.286V459.812H259.505V462.156H255.286V475.779H252.503ZM282.503 449.529V475.838H279.72V449.529H282.503ZM261.673 460.691C261.673 455.081 264.5 451.507 268.47 451.492C272.366 451.507 275.237 455.081 275.237 460.691C275.237 466.36 272.366 469.935 268.47 469.92C264.5 469.935 261.673 466.36 261.673 460.691ZM264.368 460.691C264.353 464.866 266.023 467.43 268.47 467.43C270.872 467.43 272.542 464.866 272.542 460.691C272.542 456.575 270.872 453.997 268.47 453.982C266.023 453.997 264.353 456.575 264.368 460.691ZM308.431 449.529V475.838H305.647V449.529H308.431ZM288.362 469.393V451.961H300.931V454.275H291.175V467.02C296.141 467.005 299.334 466.858 303.04 466.199L303.333 468.514C299.407 469.231 295.979 469.378 290.53 469.393H288.362ZM319.739 451.492C323.313 451.507 325.906 454.524 326.331 459.373H331.751V449.529H334.505V475.838H331.751V461.629H326.36C326.053 466.756 323.401 469.935 319.739 469.92C315.828 469.935 313.06 466.36 313.089 460.691C313.06 455.081 315.828 451.507 319.739 451.492ZM315.726 460.691C315.74 464.866 317.366 467.43 319.739 467.43C322.112 467.43 323.738 464.866 323.753 460.691C323.738 456.575 322.112 453.997 319.739 453.982C317.366 453.997 315.74 456.575 315.726 460.691ZM367.61 449.529V475.838H364.827V449.529H367.61ZM347.542 469.393V451.961H360.11V454.275H350.354V467.02C355.32 467.005 358.514 466.858 362.22 466.199L362.513 468.514C358.587 469.231 355.159 469.378 349.71 469.393H347.542ZM394.183 449.559V463.27H391.546V449.559H394.183ZM372.913 462.156V451.053H375.55V454.334H380.618V451.053H383.196V455.33H386.302V450.057H388.909V463.123H386.302V457.615H383.196V462.156H372.913ZM375.55 459.959H380.618V456.443H375.55V459.959ZM376.575 466.639V464.441H394.183V470.887H379.417V473.348H395.179V475.516H376.634V468.807H391.429V466.639H376.575ZM421.722 462.83V465.086H397.698V462.83H408.333V460.633H400.774V454.246H415.921V452.195H400.716V450.027H418.704V456.297H403.528V458.465H419.231V460.633H411.087V462.83H421.722ZM400.862 475.457V466.287H403.645V468.572H415.979V466.287H418.733V475.457H400.862ZM403.645 473.26H415.979V470.711H403.645V473.26ZM445.393 449.529V475.838H442.61V449.529H445.393ZM424.563 460.691C424.563 455.081 427.391 451.507 431.36 451.492C435.257 451.507 438.128 455.081 438.128 460.691C438.128 466.36 435.257 469.935 431.36 469.92C427.391 469.935 424.563 466.36 424.563 460.691ZM427.259 460.691C427.244 464.866 428.914 467.43 431.36 467.43C433.763 467.43 435.433 464.866 435.433 460.691C435.433 456.575 433.763 453.997 431.36 453.982C428.914 453.997 427.244 456.575 427.259 460.691ZM180.74 494.529V508.094H177.928V494.529H180.74ZM159.353 505.076C160.35 505.076 161.434 505.062 162.547 505.047V498.455H160.057V496.258H174.324V498.455H171.805V504.666C173.079 504.578 174.339 504.461 175.525 504.314L175.643 506.336C170.398 507.127 164.29 507.317 159.676 507.303L159.353 505.076ZM163.309 511.492V509.295H180.74V515.799H166.121V518.289H181.648V520.516H163.396V513.777H177.986V511.492H163.309ZM165.213 504.988C166.502 504.944 167.82 504.9 169.139 504.827V498.455H165.213V504.988ZM208.865 515.184V517.498H184.842V515.184H190.584V508.328C188.431 507.142 187.112 505.267 187.127 502.908C187.112 498.777 191.17 496.067 196.795 496.053C202.435 496.067 206.492 498.777 206.492 502.908C206.492 505.223 205.232 507.083 203.123 508.27V515.184H208.865ZM189.822 502.908C189.822 505.721 192.679 507.552 196.795 507.566C200.882 507.552 203.782 505.721 203.797 502.908C203.782 500.081 200.882 498.279 196.795 498.279C192.679 498.279 189.822 500.081 189.822 502.908ZM193.338 515.184H200.31V509.354C199.241 509.603 198.055 509.734 196.795 509.734C195.564 509.734 194.393 509.603 193.338 509.354V515.184ZM231.394 494.559V502.996H235.203V505.311H231.394V514.188H228.611V494.559H231.394ZM210.799 499.861V497.605H217.244V494.529H220.027V497.605H226.443V499.861H210.799ZM212.234 506.072C212.22 503.069 214.812 501.106 218.621 501.121C222.386 501.106 224.978 503.069 224.978 506.072C224.978 509.046 222.386 510.979 218.621 510.994C214.812 510.979 212.22 509.046 212.234 506.072ZM214.754 520.223V512.635H217.537V517.967H232.508V520.223H214.754ZM214.93 506.072C214.9 507.786 216.394 508.841 218.621 508.826C220.848 508.841 222.342 507.786 222.371 506.072C222.342 504.344 220.848 503.274 218.621 503.26C216.394 503.274 214.9 504.344 214.93 506.072ZM264.676 494.529V501.18H268.455V503.465H264.676V510.027H261.863V494.529H264.676ZM245.135 508.123V496.463H256.853V498.719H247.889V505.867C253.06 505.838 255.975 505.691 259.285 505.018L259.549 507.273C256.033 507.991 252.898 508.123 247.215 508.123H245.135ZM247.361 515.623C247.361 512.415 250.76 510.54 256.18 510.525C261.541 510.54 264.881 512.415 264.881 515.623C264.881 518.86 261.541 520.735 256.18 520.721C250.76 520.735 247.361 518.86 247.361 515.623ZM250.115 515.623C250.101 517.439 252.386 518.509 256.18 518.494C259.9 518.509 262.2 517.439 262.215 515.623C262.2 513.807 259.9 512.767 256.18 512.781C252.386 512.767 250.101 513.807 250.115 515.623ZM291.717 494.559V513.777H288.934V494.559H291.717ZM270.096 507.859C274.212 506.336 276.643 502.557 276.658 498.602V495.994H279.5V498.602C279.485 502.439 281.917 505.955 285.975 507.361L284.539 509.588C281.507 508.46 279.266 506.233 278.094 503.392C276.936 506.438 274.666 508.87 271.59 510.057L270.096 507.859ZM274.549 520.223V511.961H277.361V517.967H292.508V520.223H274.549ZM318.465 494.529V520.779H315.799V494.529H318.465ZM296.17 505.867C296.17 500.184 298.396 496.624 301.824 496.639C305.018 496.624 307.171 499.656 307.493 504.578H310.467V495.027H313.133V519.49H310.467V506.834H307.508C307.259 511.961 305.076 515.14 301.824 515.125C298.396 515.14 296.17 511.565 296.17 505.867ZM298.748 505.867C298.748 510.042 299.935 512.503 301.824 512.488C303.758 512.503 304.959 510.042 304.959 505.867C304.959 501.678 303.758 499.231 301.824 499.246C299.935 499.231 298.748 501.678 298.748 505.867ZM344.363 494.529V520.779H341.727V494.529H344.363ZM321.717 513.191C327.283 509.881 329.949 505.472 330.433 500.066H322.947V497.781H333.201C333.186 500.345 332.835 502.791 332.029 505.076H336.189V495.203H338.826V519.49H336.189V507.303H331.062C329.51 510.35 327.005 513.016 323.299 515.184L321.717 513.191ZM350.721 518.494C349.578 518.479 348.626 517.557 348.641 516.414C348.626 515.271 349.578 514.334 350.721 514.334C351.849 514.334 352.786 515.271 352.801 516.414C352.786 517.557 351.849 518.479 350.721 518.494Z" fill="white"/>
<g clip-path="url(#clip0_225_280)">
<path d="M183 894.605H201.56V899.908H198.909V897.257H190.954V910.514H198.909V907.863H201.56V913.166H183V894.605Z" fill="#1B1B1B"/>
<path d="M204.615 894.605H223.176V913.166H204.615V894.605ZM207.267 910.514H215.221V897.257H207.267V910.514Z" fill="#1B1B1B"/>
<path d="M226.231 894.605H242.14V897.257H244.791V910.514H242.14V913.166H226.231V894.605ZM234.185 910.514H242.14V897.257H234.185V910.514Z" fill="#1B1B1B"/>
<path d="M247.846 894.605H250.498V899.908H253.149V902.56H255.801V905.211H258.452V894.605H266.407V913.166H258.452V907.863H255.801V905.211H253.149V902.56H250.498V913.166H247.846V894.605Z" fill="#1B1B1B"/>
<path d="M269.462 894.605H288.022V897.257H282.719V910.514H288.022V913.166H269.462V910.514H274.765V897.257H269.462V894.605Z" fill="#1B1B1B"/>
<path d="M291.077 894.605H293.729V910.514H301.683V894.605H309.638V913.166H291.077V894.605Z" fill="#1B1B1B"/>
<path d="M312.693 894.605H331.253V897.257H320.647V902.56H331.253V913.166H312.693V910.514H323.299V905.211H312.693V894.605Z" fill="#1B1B1B"/>
</g>
<defs>
<clipPath id="clip0_225_280">
<rect width="145.829" height="18.5604" fill="white" transform="translate(183 894.605)"/>
</clipPath>
</defs>
</svg>
