<svg width="513" height="955" fill="none" xmlns="http://www.w3.org/2000/svg"><rect width="512.271" height="954.433" rx="37.392" fill="#9747FF"/><path fill="#1B1B1B" d="M0 110.305h512.271V395.42H0z"/><path fill="#000" d="M0 395.418h512.271v448.705H0z"/><path d="M225.939 40.566v28.282h-5.117v-23.32h-.156l-6.602 4.218v-4.648l6.993-4.532h4.882Zm22.891-1.64v3.476h-11.523v7.852c6.425-.04 10.273-.293 14.648-1.172l.469 3.36c-4.746 1.074-9.043 1.23-16.563 1.21h-2.851V38.926h15.82Zm-12.422 20.742v-3.477h23.086v9.375h-18.75v2.813h19.844v3.515h-24.141v-9.609h18.711v-2.617h-18.75Zm18.75-5V37.012h4.336v6.953h4.922v3.554h-4.922v7.149h-4.336Zm40.899-17.617v26.601h-4.415v-4.258h-7.187v-3.437h7.187V37.051h4.415Zm-30.079 13.554c4.297-.02 9.629-.078 14.922-.39.547-3.281.703-5.899.762-7.813h-12.48v-3.476h16.835v1.328c0 1.855 0 5.137-.722 9.61a96.818 96.818 0 0 0 3.613-.43l.313 3.086c-3.047.527-6.192.878-9.297 1.113v7.754h-4.297v-7.5c-3.281.156-6.387.195-9.102.195l-.547-3.477Zm5.039 21.016V60.84h4.336v7.266h21.524v3.515h-25.86Z" fill="#1B1B1B"/><path d="M189.252 290.846v-7.959c-15.381-.83-25.098-8.692-25.488-22.998h14.257c.44 6.25 4.834 9.814 11.231 10.595v-18.505l-4.395-1.075c-11.914-2.929-19.238-8.886-19.238-19.238-.049-11.963 9.766-20.215 23.633-21.289v-8.008h5.664v8.008c14.258.879 23.438 9.277 23.633 21.094h-14.063c-.488-4.883-3.955-8.008-9.57-8.741v17.481l3.418.83c12.109 2.783 21.143 8.936 21.191 20.703-.048 12.256-9.033 20.313-24.609 21.143v7.959h-5.664Zm-8.594-60.157c-.049 4.346 3.711 6.641 8.594 8.106v-16.016c-5.518.83-8.545 3.907-8.594 7.91Zm14.258 39.747c6.006-.782 9.766-4.102 9.766-8.692 0-4.297-3.516-6.592-9.766-8.349v17.041Zm59.766 12.5c-14.746 0-25.537-8.692-25.782-20.899h14.258c.342 5.518 5.371 9.326 11.524 9.277 7.324.049 12.548-5.126 12.5-12.5.048-7.519-5.274-12.744-12.696-12.793-5.322 0-9.033 2.002-11.132 5.958h-13.282l3.809-40.723h43.555v12.012H245.99l-1.953 17.871h.586c2.588-3.467 7.959-6.006 14.16-5.957 12.988-.049 22.656 9.668 22.656 23.242 0 14.306-10.839 24.512-26.757 24.512Zm64.16 0c-17.725 0-28.418-13.184-28.418-36.329 0-23.095 10.791-36.328 28.418-36.328s28.418 13.233 28.418 36.328c0 23.243-10.742 36.329-28.418 36.329Zm-13.379-36.329c-.098 16.309 5.176 24.219 13.379 24.219s13.428-7.91 13.379-24.219c.049-16.162-5.225-24.267-13.379-24.316-8.154.049-13.379 8.154-13.379 24.316ZM184.314 637.816v-2.343l7.354-7.412c2.329-2.417 3.486-3.765 3.486-5.625 0-2.095-1.699-3.428-3.926-3.428-2.358 0-3.852 1.494-3.867 3.75h-3.047c-.029-3.882 2.93-6.446 6.973-6.446 4.087 0 6.914 2.593 6.943 6.036-.029 2.373-1.142 4.262-5.127 8.173l-4.306 4.366v.175h9.785v2.754h-14.268Zm25.225.293c-4.907 0-7.793-3.955-7.793-10.898 0-6.899 2.915-10.899 7.793-10.899 4.863 0 7.778 4 7.793 10.899-.015 6.943-2.886 10.898-7.793 10.898Zm-4.57-10.898c-.015 5.288 1.699 8.115 4.57 8.115 2.856 0 4.57-2.827 4.57-8.115 0-5.273-1.728-8.159-4.57-8.174-2.856.015-4.57 2.901-4.57 8.174Zm36.504-13.154v26.25h-2.784v-26.25h2.784Zm-21.563 19.101c2.168-.014 4.629-.029 7.207-.088v-2.636c-3.061-.411-5.054-2.212-5.039-4.776-.015-2.959 2.564-4.907 6.357-4.922 3.838.015 6.46 1.963 6.475 4.922-.015 2.534-1.992 4.321-5.039 4.761v2.549c2.432-.117 4.893-.293 7.207-.601l.205 2.08c-5.83.967-12.187 1.04-16.992 1.026l-.381-2.315Zm.557-13.74v-2.227h6.65v-3.076h2.783v3.076h6.592v2.227h-16.025Zm4.248 6.24c-.03 1.67 1.523 2.71 3.72 2.696 2.271.014 3.809-1.026 3.809-2.696 0-1.684-1.538-2.754-3.809-2.754-2.197 0-3.75 1.07-3.72 2.754Zm50.039-11.601v13.564H272v-13.564h2.754Zm-21.445 11.484c4.072-1.26 6.606-4.424 6.621-7.822h-5.889v-2.256h14.473v2.256h-5.772c0 3.208 2.505 6.167 6.592 7.324l-1.348 2.139c-3.105-.923-5.42-2.901-6.606-5.42-1.157 2.783-3.56 4.966-6.782 5.976l-1.289-2.197Zm4.218 5.42v-2.139h17.256v6.504H260.31v2.549h15.352v2.168h-18.047v-6.738h14.414v-2.344h-14.502Zm45.41-3.633v2.256h-10.429v5.098h-2.754v-5.098h-10.84v-2.256h24.023Zm-21.035 12.422v-7.559h2.783v5.303h15.586v2.256h-18.369Zm.088-15.146v-9.317h17.842v9.317H281.99Zm2.725-2.198h12.363v-4.922h-12.363v4.922Zm42.129-8.32v19.805h-2.813v-3.428h-5.566v-2.227h5.566v-14.15h2.813Zm-22.149 10.225c3.296-.015 7.398-.059 11.455-.323.44-2.666.557-4.717.572-6.181h-9.654v-2.256h12.451v1.025c-.014 1.421-.014 3.853-.556 7.193a82.764 82.764 0 0 0 2.842-.337l.205 2.021a73.623 73.623 0 0 1-7.207.82v5.918h-2.784v-5.771c-2.504.117-4.877.146-6.943.146l-.381-2.255Zm3.838 15.439v-7.998h2.783v5.742h16.172v2.256h-18.955ZM98.767 686.598v2.461c-.014 3.193.015 6.826-1.113 12.275l-2.724-.293c.483-2.241.747-4.219.908-5.991l-15.791.923-.41-2.403 16.333-.644c.058-1.421.073-2.681.073-3.867v-.176H80.428v-2.285h18.34Zm-21.181 20.42v-2.315h9.111v-6.65h2.754v6.65h12.07v2.315H77.586Zm47.197-10.401v2.285h-18.281V686.51h18.047v2.285h-15.293v7.822h15.527Zm-21.269 10.342v-2.314h24.023v2.314h-24.023Zm47.724-22.793v26.25h-2.783v-26.25h2.783Zm-20.185 19.57v-17.021h2.754v14.619c3.837-.015 7.866-.352 12.07-1.201l.381 2.344c-4.644.952-8.863 1.274-13.008 1.259h-2.197Zm48.31-4.658v2.315h-10.722v9.023h-2.725v-9.023H155.34v-2.315h24.023Zm-21.416-8.086c.015-3.574 3.794-5.83 9.346-5.83s9.36 2.256 9.346 5.83c.014 3.53-3.794 5.772-9.346 5.772s-9.331-2.242-9.346-5.772Zm2.871 0c-.014 2.183 2.578 3.545 6.475 3.545 3.911 0 6.489-1.362 6.504-3.545-.015-2.212-2.593-3.589-6.504-3.603-3.897.014-6.489 1.391-6.475 3.603Zm33.809-3.105c0 4.277 4.556 8.32 9.609 9.228l-1.289 2.315c-4.204-.909-8.056-3.662-9.756-7.354-1.728 3.677-5.581 6.416-9.785 7.354l-1.23-2.315c4.98-.937 9.507-4.951 9.521-9.228v-1.992h2.93v1.992Zm-13.33 19.072v-2.314h24.023v2.314h-24.023Zm33.808-21.123c4.043 0 7.046 2.549 7.061 6.24-.015 3.252-2.344 5.611-5.654 6.138v4.16c2.329-.117 4.658-.293 6.826-.571l.205 2.08c-5.552.967-11.66 1.011-16.201.967l-.44-2.286c2.036-.014 4.38-.029 6.826-.087v-4.263c-3.383-.498-5.698-2.871-5.683-6.138-.015-3.691 2.944-6.24 7.06-6.24Zm-4.365 6.24c-.014 2.329 1.846 3.882 4.365 3.867 2.491.015 4.322-1.538 4.336-3.867-.014-2.344-1.845-3.867-4.336-3.896-2.519.029-4.379 1.552-4.365 3.896Zm14.18 18.34v-26.25h2.783v10.664h4.043v2.344h-4.043v13.242h-2.783Zm30.264-24.346v2.256h-2.52v7.94a68.487 68.487 0 0 0 3.223-.323l.117 2.11c-5.054.791-10.943.879-15.147.879l-.351-2.315c.981 0 2.065 0 3.193-.014v-8.277h-2.461v-2.256h13.946Zm-10.489 19.541c-.014-3.061 3.325-4.804 8.877-4.804 5.537 0 8.863 1.743 8.877 4.804-.014 3.003-3.34 4.761-8.877 4.746-5.552.015-8.891-1.743-8.877-4.746Zm1.699-9.052c1.187-.03 2.388-.074 3.604-.132v-8.101h-3.604v8.233Zm1.055 9.052c-.014 1.656 2.241 2.593 6.123 2.608 3.853-.015 6.109-.952 6.123-2.608-.014-1.699-2.27-2.651-6.123-2.636-3.882-.015-6.137.937-6.123 2.636Zm8.115-9.873v-2.226h4.014v-2.549h-4.014v-2.227h4.014v-4.57h2.783v16.143h-2.783v-4.571h-4.014Zm33.223-11.572v16.553h-2.637v-7.324h-3.047v6.416h-2.607v-15.147h2.607v6.445h3.047v-6.943h2.637Zm-22.529 5.186v-2.198h5.302v-2.783h2.754v2.783h5.215v2.198h-13.271Zm1.025 5.742c0-2.725 2.344-4.512 5.625-4.512 3.355 0 5.684 1.787 5.684 4.512 0 2.724-2.329 4.511-5.684 4.511-3.281 0-5.625-1.787-5.625-4.511Zm2.49 0c0 1.494 1.275 2.475 3.135 2.49 1.89-.015 3.179-.996 3.164-2.49.015-1.494-1.274-2.476-3.164-2.461-1.86-.015-3.135.967-3.135 2.461Zm1.348 10.664c-.029-2.974 3.311-4.658 8.877-4.658 5.581 0 8.921 1.684 8.936 4.658-.015 2.944-3.355 4.614-8.936 4.599-5.566.015-8.906-1.655-8.877-4.599Zm2.754 0c-.029 1.582 2.227 2.49 6.123 2.461 3.911.029 6.138-.879 6.152-2.461-.014-1.655-2.241-2.534-6.152-2.52-3.896-.014-6.152.865-6.123 2.52Zm49.775-6.68v2.315h-10.722v9.023h-2.725v-9.023h-10.576v-2.315h24.023Zm-21.416-8.086c.015-3.574 3.794-5.83 9.346-5.83s9.36 2.256 9.346 5.83c.014 3.53-3.794 5.772-9.346 5.772s-9.331-2.242-9.346-5.772Zm2.871 0c-.014 2.183 2.579 3.545 6.475 3.545 3.911 0 6.489-1.362 6.504-3.545-.015-2.212-2.593-3.589-6.504-3.603-3.896.014-6.489 1.391-6.475 3.603Zm44.414 7.969v2.256h-10.664v9.17h-2.724v-9.17h-10.547v-2.256h23.935Zm-22.587-4.19c4.892-.673 8.964-3.588 9.052-6.826h-8.174v-2.226h19.454v2.226h-8.116c.044 3.238 4.087 6.153 9.053 6.826l-1.025 2.198c-4.307-.674-8.028-2.798-9.624-5.786-1.612 2.988-5.318 5.112-9.566 5.786l-1.054-2.198Zm45-8.671v11.806h-12.071V686.1h12.071Zm-10.635 22.002c4.922-.762 8.657-3.545 8.672-7.032v-.761h2.754v.761c-.03 3.487 3.735 6.27 8.701 7.032l-1.114 2.197c-3.999-.689-7.368-2.622-8.95-5.435-1.611 2.813-4.98 4.746-8.979 5.435l-1.084-2.197Zm1.289-12.422h6.592v-7.325h-6.592v7.325Zm14.092 5.888v-17.402h2.783v6.973h3.808v2.343h-3.808v8.086h-2.783Zm32.109 3.282v2.314h-24.023v-2.314h10.576v-5.391h-7.822v-13.506h2.783v4.512h12.89v-4.512h2.754v13.506h-7.851v5.391h10.693Zm-18.486-7.647h12.89v-4.482h-12.89v4.482Zm42.217-13.037v26.25h-2.813v-26.25h2.813Zm-21.563 19.219c6.973-3.325 10.386-8.057 10.928-14.18h-9.668v-2.226h12.48c0 7.69-3.266 14.34-12.275 18.662l-1.465-2.256ZM91.443 778.035l9.463-18.281v-.176H89.978v-2.754h14.268v2.871l-9.434 18.34h-3.369Zm22.969.293c-4.907 0-7.793-3.955-7.793-10.898 0-6.9 2.915-10.899 7.793-10.899 4.863 0 7.778 3.999 7.793 10.899-.015 6.943-2.886 10.898-7.793 10.898Zm-4.57-10.898c-.015 5.288 1.699 8.115 4.57 8.115 2.856 0 4.57-2.827 4.57-8.115 0-5.274-1.728-8.159-4.57-8.174-2.856.015-4.57 2.9-4.57 8.174Zm23.086 10.898c-4.908 0-7.793-3.955-7.793-10.898 0-6.9 2.915-10.899 7.793-10.899 4.863 0 7.778 3.999 7.793 10.899-.015 6.943-2.886 10.898-7.793 10.898Zm-4.571-10.898c-.014 5.288 1.7 8.115 4.571 8.115 2.856 0 4.57-2.827 4.57-8.115 0-5.274-1.729-8.159-4.57-8.174-2.857.015-4.571 2.9-4.571 8.174Zm36.68-13.125v19.394h-2.783v-8.935h-7.207v-2.227h7.207v-2.754h-7.207v-2.226h7.207v-3.252h2.783Zm-20.332 15.644v-13.828h2.754v11.484c3.486-.014 6.797-.205 10.547-.908l.293 2.285c-4.16.777-7.72.938-11.572.967h-2.022Zm3.223 10.02V772h2.812v5.713h14.971v2.256h-17.783Zm50.361-25.664v15.527h-2.783v-3.193h-6.621v-2.285h6.621v-3.194h-6.343c-1.699 4.219-5.64 7.193-11.323 8.819l-1.113-2.168c6.21-1.773 9.843-5.113 10.341-9.346h-8.994v-2.285h12.012c0 .966-.103 1.904-.278 2.783h5.698v-4.658h2.783Zm-17.49 20.947c0-3.179 3.457-5.112 8.847-5.127 5.318.015 8.804 1.948 8.819 5.127-.015 3.193-3.501 5.156-8.819 5.156-5.39 0-8.847-1.963-8.847-5.156Zm2.754 0c0 1.846 2.343 2.915 6.093 2.93 3.677-.015 6.021-1.084 6.036-2.93-.015-1.875-2.359-2.944-6.036-2.93-3.75-.014-6.093 1.055-6.093 2.93Zm31.289-19.395v7.647h-8.672v3.633c4.57 0 7.06-.103 10.019-.645l.264 2.256c-3.208.542-5.903.63-11.133.645h-1.904v-7.998h8.643v-3.311h-8.672v-2.227h11.455Zm-8.438 18.164v-2.255h17.813v8.789h-2.783v-6.534h-15.03Zm10.108-8.203v-2.226h4.922v-3.252h-4.922v-2.227h4.922v-3.808h2.783v16.142h-2.783v-4.629h-4.922Zm20.302-9.668c4.146-.014 7.134 2.549 7.149 6.241-.015 3.691-3.003 6.255-7.149 6.269-4.13-.014-7.163-2.578-7.148-6.269-.015-3.692 3.018-6.255 7.148-6.241Zm-8.408 16.465c4.776 0 11.397-.044 17.139-.879l.205 2.022c-5.933 1.142-12.305 1.172-16.992 1.172l-.352-2.315Zm4.014-10.224c-.029 2.329 1.846 3.838 4.394 3.838 2.549 0 4.424-1.509 4.424-3.838 0-2.3-1.875-3.838-4.424-3.838-2.548 0-4.423 1.538-4.394 3.838Zm14.765 18.193v-26.309h2.784v26.309h-2.784Zm36.094-26.279v19.218h-2.783v-19.218h2.783Zm-21.621 13.3c4.116-1.523 6.548-5.302 6.563-9.257v-2.608h2.841v2.608c-.014 3.838 2.417 7.353 6.475 8.759l-1.435 2.227c-3.033-1.128-5.274-3.355-6.446-6.196-1.157 3.047-3.428 5.478-6.504 6.665l-1.494-2.198Zm4.453 12.364v-8.262h2.813v6.006h15.146v2.256h-17.959Zm45.293-14.942v2.227h-23.965v-2.227h23.965Zm-21.094 6.446v-2.139h18.047v6.357h-15.293v2.344h16.026v2.197h-18.75v-6.591h15.263v-2.168H290.31Zm.264-8.35v-8.086h17.725v2.256h-14.942v3.603h15.205v2.227h-17.988Zm44.531-8.818v19.306h-2.753v-19.306h2.753Zm-20.42 4.043v-2.227h12.071v7.822h-9.287v3.78c4.819-.03 8.115-.176 12.011-.879l.293 2.285c-4.13.718-7.617.864-12.832.879h-2.197v-8.174h9.258v-3.486h-9.317Zm3.077 21.621v-7.881h2.783v5.625h15.293v2.256h-18.076Zm50.683-25.694v26.25h-2.812v-26.25h2.812Zm-21.885 17.579c1.084 0 2.242-.015 3.458-.03v-12.568h-2.754v-2.285h14.941v2.285h-2.725v12.217c1.363-.103 2.71-.235 4.014-.381l.147 2.051c-5.684.922-11.924 1.01-16.758 1.025l-.323-2.314Zm6.153-.074c1.318-.029 2.68-.088 4.043-.146v-12.378h-4.043v12.524Zm41.103-5.053v2.285h-18.281v-12.393h18.047v2.285h-15.293v7.823h15.527Zm-21.269 10.341v-2.314h24.023v2.314h-24.023Zm29.678-21.123v4.014h5.068v-4.014h2.578v12.393h-10.283v-12.393h2.637Zm0 10.137h5.068v-3.955h-5.068v3.955Zm.791 7.705v-2.256h17.841v8.994h-2.754v-6.738h-15.087Zm9.55-3.896v-15.118h2.578v6.211h3.077v-6.679h2.636v15.761h-2.636v-6.796h-3.077v6.621h-2.578ZM63.714 454.393c-.03 1.626.498 4.086 2.212 5.771 1.67-1.655 2.226-4.028 2.24-5.771v-1.172h-1.698v-2.285h7.382v2.285h-3.046v1.172c-.015 2.211 1.215 5.083 4.13 6.445l-1.347 1.992c-2.036-.923-3.325-2.593-4.043-4.438-.571 1.875-1.655 3.676-3.633 4.702-1.948-1.026-3.032-2.827-3.603-4.688-.733 1.831-2.007 3.487-4.014 4.424l-1.348-1.992c2.871-1.377 4.146-4.307 4.16-6.445v-1.172h-3.193v-2.285h7.5v2.285h-1.7v1.172Zm-3.604 12.451v-2.051h8.35v6.182h-5.596v2.431c2.549 0 4.146-.044 6.152-.439l.235 2.08c-2.417.439-4.263.469-7.676.469H60.17v-6.534h5.596v-2.138H60.11Zm9.903 8.672v-10.957h2.52v3.164h3.544v-3.164h2.461v10.957h-8.525Zm2.52-2.139h3.544v-3.574h-3.545v3.574Zm3.251-10.166v-13.682h2.754v5.391h3.193v2.344h-3.193v5.947h-2.754Zm31.377.029v2.227H83.225v-2.227h23.936Zm-21.357-7.588c-.015-3.296 3.662-5.258 9.375-5.244 5.683-.014 9.36 1.948 9.375 5.244-.015 3.311-3.692 5.318-9.375 5.332-5.713-.014-9.39-2.021-9.375-5.332Zm.44 19.571v-7.618h2.812v5.362h15.41v2.256H86.243Zm2.43-19.571c-.014 1.949 2.476 3.047 6.505 3.047 4.013 0 6.518-1.098 6.504-3.047.014-1.875-2.49-3.017-6.504-3.017-4.029 0-6.519 1.142-6.504 3.017Zm37.442.557c-.029 4.79 2.871 9.624 6.944 11.426l-1.67 2.197c-3.018-1.436-5.406-4.38-6.636-7.969-1.216 3.853-3.633 7.017-6.782 8.555l-1.7-2.344c4.131-1.831 7.032-6.855 7.032-11.865v-4.482h2.812v4.482Zm9.317 19.629v-26.309h2.783v26.309h-2.783Zm27.597-26.309v7.764h3.809v2.314h-3.809v8.995h-2.812v-19.073h2.812Zm-20.654 13.975c6.152-1.846 9.961-5.347 10.503-9.668h-9.39v-2.315h12.422c0 6.885-4.687 11.88-12.363 14.209l-1.172-2.226Zm3.984 11.719v-8.584h2.813v6.328h14.941v2.256H146.36Zm53.262-12.92v2.226h-23.965v-2.226h10.635v-2.783h-7.647v-8.79h18.018v2.198h-15.264v4.365h15.44v2.227h-7.852v2.783h10.635Zm-21.123 8.701c0-3.047 3.413-4.761 9.111-4.775 5.655.014 9.038 1.728 9.053 4.775-.015 3.047-3.398 4.761-9.053 4.775-5.698-.014-9.111-1.728-9.111-4.775Zm2.812 0c-.014 1.684 2.286 2.607 6.299 2.578 3.955.029 6.27-.894 6.27-2.578 0-1.655-2.315-2.608-6.27-2.608-4.013 0-6.313.953-6.299 2.608ZM222.21 449.5v7.852h3.808v2.343h-3.808v9.112h-2.783V449.5h2.783Zm-20.215 8.35c-.029-3.824 3.018-6.519 6.973-6.534 3.969.015 6.972 2.71 7.002 6.534-.03 3.823-3.033 6.547-7.002 6.533-3.955.014-7.002-2.71-6.973-6.533Zm2.725 0c-.03 2.446 1.845 4.101 4.248 4.101 2.431 0 4.262-1.655 4.277-4.101-.015-2.447-1.846-4.102-4.277-4.102-2.403 0-4.278 1.655-4.248 4.102Zm.849 17.373v-8.438h2.783v6.182h14.971v2.256h-17.754Zm36.299-23.731c3.926.015 6.724 3.589 6.738 9.199-.014 5.669-2.812 9.244-6.738 9.229-3.926.015-6.724-3.56-6.709-9.229-.015-5.61 2.783-9.184 6.709-9.199Zm-4.043 9.199c-.015 4.175 1.655 6.739 4.043 6.739 2.432 0 4.072-2.564 4.072-6.739 0-4.116-1.64-6.694-4.072-6.709-2.388.015-4.058 2.593-4.043 6.709Zm14.678 15.088v-26.25h2.783v10.283h4.219v2.344h-4.219v13.623h-2.783Zm30-26.25v26.309h-2.783v-26.309h2.783Zm-20.83 11.162c0-5.61 2.827-9.184 6.797-9.199 3.896.015 6.767 3.589 6.767 9.199 0 5.669-2.871 9.244-6.767 9.229-3.97.015-6.797-3.56-6.797-9.229Zm2.695 0c-.015 4.175 1.655 6.739 4.102 6.739 2.402 0 4.072-2.564 4.072-6.739 0-4.116-1.67-6.694-4.072-6.709-2.447.015-4.117 2.593-4.102 6.709Zm44.063-11.162v26.309h-2.784v-26.309h2.784Zm-20.069 19.864v-17.432h12.569v2.314h-9.756v12.745c4.966-.015 8.159-.162 11.865-.821l.293 2.315c-3.926.717-7.354.864-12.803.879h-2.168Zm31.377-17.901c3.574.015 6.167 3.032 6.592 7.881h5.42v-9.844h2.754v26.309h-2.754v-14.209h-5.391c-.307 5.127-2.959 8.306-6.621 8.291-3.911.015-6.679-3.56-6.65-9.229-.029-5.61 2.739-9.184 6.65-9.199Zm-4.013 9.199c.014 4.175 1.64 6.739 4.013 6.739s3.999-2.564 4.014-6.739c-.015-4.116-1.641-6.694-4.014-6.709-2.373.015-3.999 2.593-4.013 6.709Zm51.884-11.162v26.309h-2.783v-26.309h2.783Zm-20.068 19.864v-17.432h12.568v2.314h-9.756v12.745c4.966-.015 8.16-.162 11.866-.821l.293 2.315c-3.926.717-7.354.864-12.803.879h-2.168Zm46.641-19.834v13.711h-2.637v-13.711h2.637Zm-21.27 12.597v-11.103h2.637v3.281h5.068v-3.281h2.578v4.277h3.106v-5.273h2.607v13.066h-2.607v-5.508h-3.106v4.541h-10.283Zm2.637-2.197h5.068v-3.516h-5.068v3.516Zm1.025 6.68v-2.198h17.608v6.446h-14.766v2.461h15.762v2.168h-18.545v-6.709h14.795v-2.168h-14.854Zm45.147-3.809v2.256h-24.024v-2.256h10.635v-2.197h-7.559v-6.387h15.147v-2.051h-15.205v-2.168h17.988v6.27h-15.176v2.168h15.703v2.168h-8.144v2.197h10.635Zm-20.86 12.627v-9.17h2.783v2.285h12.334v-2.285h2.754v9.17h-17.871Zm2.783-2.197h12.334v-2.549h-12.334v2.549Zm41.748-23.731v26.309h-2.783v-26.309h2.783Zm-20.83 11.162c0-5.61 2.828-9.184 6.797-9.199 3.897.015 6.768 3.589 6.768 9.199 0 5.669-2.871 9.244-6.768 9.229-3.969.015-6.797-3.56-6.797-9.229Zm2.696 0c-.015 4.175 1.655 6.739 4.101 6.739 2.403 0 4.073-2.564 4.073-6.739 0-4.116-1.67-6.694-4.073-6.709-2.446.015-4.116 2.593-4.101 6.709ZM180.74 494.529v13.565h-2.812v-13.565h2.812Zm-21.387 10.547c.997 0 2.081-.014 3.194-.029v-6.592h-2.49v-2.197h14.267v2.197h-2.519v6.211a69.43 69.43 0 0 0 3.72-.352l.118 2.022c-5.245.791-11.353.981-15.967.967l-.323-2.227Zm3.956 6.416v-2.197h17.431v6.504h-14.619v2.49h15.527v2.227h-18.252v-6.739h14.59v-2.285h-14.677Zm1.904-6.504c1.289-.044 2.607-.088 3.926-.161v-6.372h-3.926v6.533Zm43.652 10.196v2.314h-24.023v-2.314h5.742v-6.856c-2.153-1.186-3.472-3.061-3.457-5.42-.015-4.131 4.043-6.841 9.668-6.855 5.64.014 9.697 2.724 9.697 6.855 0 2.315-1.26 4.175-3.369 5.362v6.914h5.742Zm-19.043-12.276c0 2.813 2.857 4.644 6.973 4.658 4.087-.014 6.987-1.845 7.002-4.658-.015-2.827-2.915-4.629-7.002-4.629-4.116 0-6.973 1.802-6.973 4.629Zm3.516 12.276h6.972v-5.83c-1.069.249-2.255.38-3.515.38a15.15 15.15 0 0 1-3.457-.38v5.83Zm38.056-20.625v8.437h3.809v2.315h-3.809v8.877h-2.783v-19.629h2.783Zm-20.595 5.302v-2.256h6.445v-3.076h2.783v3.076h6.416v2.256h-15.644Zm1.435 6.211c-.014-3.003 2.578-4.966 6.387-4.951 3.765-.015 6.357 1.948 6.357 4.951 0 2.974-2.592 4.907-6.357 4.922-3.809-.015-6.401-1.948-6.387-4.922Zm2.52 14.151v-7.588h2.783v5.332h14.971v2.256h-17.754Zm.176-14.151c-.03 1.714 1.464 2.769 3.691 2.754 2.227.015 3.721-1.04 3.75-2.754-.029-1.728-1.523-2.798-3.75-2.812-2.227.014-3.721 1.084-3.691 2.812Zm49.746-11.543v6.651h3.779v2.285h-3.779v6.562h-2.813v-15.498h2.813Zm-19.541 13.594v-11.66h11.718v2.256h-8.964v7.148c5.171-.029 8.086-.176 11.396-.849l.264 2.255c-3.516.718-6.651.85-12.334.85h-2.08Zm2.226 7.5c0-3.208 3.399-5.083 8.819-5.098 5.361.015 8.701 1.89 8.701 5.098 0 3.237-3.34 5.112-8.701 5.098-5.42.014-8.819-1.861-8.819-5.098Zm2.754 0c-.014 1.816 2.271 2.886 6.065 2.871 3.72.015 6.02-1.055 6.035-2.871-.015-1.816-2.315-2.856-6.035-2.842-3.794-.014-6.079 1.026-6.065 2.842Zm41.602-21.064v19.218h-2.783v-19.218h2.783Zm-21.621 13.3c4.116-1.523 6.547-5.302 6.562-9.257v-2.608h2.842v2.608c-.015 3.837 2.417 7.353 6.475 8.759l-1.436 2.227c-3.032-1.128-5.273-3.355-6.445-6.196-1.158 3.046-3.428 5.478-6.504 6.665l-1.494-2.198Zm4.453 12.364v-8.262h2.812v6.006h15.147v2.256h-17.959Zm43.916-25.694v26.25h-2.666v-26.25h2.666Zm-22.295 11.338c0-5.683 2.226-9.243 5.654-9.228 3.194-.015 5.347 3.017 5.669 7.939h2.974v-9.551h2.666v24.463h-2.666v-12.656h-2.959c-.249 5.127-2.432 8.306-5.684 8.291-3.428.015-5.654-3.56-5.654-9.258Zm2.578 0c0 4.175 1.187 6.636 3.076 6.621 1.934.015 3.135-2.446 3.135-6.621 0-4.189-1.201-6.636-3.135-6.621-1.889-.015-3.076 2.432-3.076 6.621Zm45.615-11.338v26.25h-2.636v-26.25h2.636Zm-22.646 18.662c5.566-3.31 8.232-7.719 8.716-13.125h-7.486v-2.285h10.254c-.015 2.564-.366 5.01-1.172 7.295h4.16v-9.873h2.637v24.287h-2.637v-12.187h-5.127c-1.552 3.047-4.057 5.713-7.763 7.881l-1.582-1.993Zm29.004 5.303c-1.143-.015-2.095-.937-2.08-2.08-.015-1.143.937-2.08 2.08-2.08 1.128 0 2.065.937 2.08 2.08a2.117 2.117 0 0 1-2.08 2.08Z" fill="#fff"/><g clip-path="url(#a)" fill="#1B1B1B"><path d="M183 894.605h18.56v5.303h-2.651v-2.651h-7.955v13.257h7.955v-2.651h2.651v5.303H183v-18.561ZM204.615 894.605h18.561v18.561h-18.561v-18.561Zm2.652 15.909h7.954v-13.257h-7.954v13.257ZM226.231 894.605h15.909v2.652h2.651v13.257h-2.651v2.652h-15.909v-18.561Zm7.954 15.909h7.955v-13.257h-7.955v13.257ZM247.846 894.605h2.652v5.303h2.651v2.652h2.652v2.651h2.651v-10.606h7.955v18.561h-7.955v-5.303h-2.651v-2.652h-2.652v-2.651h-2.651v10.606h-2.652v-18.561ZM269.462 894.605h18.56v2.652h-5.303v13.257h5.303v2.652h-18.56v-2.652h5.303v-13.257h-5.303v-2.652ZM291.077 894.605h2.652v15.909h7.954v-15.909h7.955v18.561h-18.561v-18.561ZM312.693 894.605h18.56v2.652h-10.606v5.303h10.606v10.606h-18.56v-2.652h10.606v-5.303h-10.606v-10.606Z"/></g><defs><clipPath id="a"><path fill="#fff" transform="translate(183 894.605)" d="M0 0h145.829v18.56H0z"/></clipPath></defs></svg>