<svg width="513" height="955" viewBox="0 0 513 955" fill="none" xmlns="http://www.w3.org/2000/svg">
<rect y="0.285156" width="512.271" height="954.433" rx="37.3921" fill="white"/>
<rect y="110.59" width="512.271" height="285.115" fill="#1B1B1B"/>
<rect y="395.703" width="512.271" height="448.705" fill="black"/>
<path d="M225.939 40.8516V69.1328H220.822V45.8125H220.666L214.064 50.0312V45.3828L221.057 40.8516H225.939ZM248.83 39.2109V42.6875H237.307V50.5391C243.732 50.5 247.58 50.2461 251.955 49.3672L252.424 52.7266C247.678 53.8008 243.381 53.957 235.861 53.9375H233.01V39.2109H248.83ZM236.408 59.9531V56.4766H259.494V65.8516H240.744V68.6641H260.588V72.1797H236.447V62.5703H255.158V59.9531H236.408ZM255.158 54.9531V37.2969H259.494V44.25H264.416V47.8047H259.494V54.9531H255.158ZM296.057 37.3359V63.9375H291.642V59.6797H284.455V56.2422H291.642V37.3359H296.057ZM265.978 50.8906C270.275 50.8711 275.607 50.8125 280.9 50.5C281.447 47.2188 281.603 44.6016 281.662 42.6875H269.182V39.2109H286.017V40.5391C286.017 42.3945 286.017 45.6758 285.295 50.1484C286.525 50.0312 287.736 49.875 288.908 49.7188L289.221 52.8047C286.174 53.332 283.029 53.6836 279.924 53.918V61.6719H275.627V54.1719C272.346 54.3281 269.24 54.3672 266.525 54.3672L265.978 50.8906ZM271.017 71.9062V61.125H275.353V68.3906H296.877V71.9062H271.017Z" fill="#1B1B1B"/>
<path d="M189.252 291.131V283.172C173.871 282.342 164.154 274.48 163.764 260.174H178.021C178.461 266.424 182.855 269.988 189.252 270.77V252.264L184.857 251.189C172.943 248.26 165.619 242.303 165.619 231.951C165.57 219.988 175.385 211.736 189.252 210.662V202.654H194.916V210.662C209.174 211.541 218.354 219.939 218.549 231.756H204.486C203.998 226.873 200.531 223.748 194.916 223.016V240.496L198.334 241.326C210.443 244.109 219.477 250.262 219.525 262.029C219.477 274.285 210.492 282.342 194.916 283.172V291.131H189.252ZM180.658 230.975C180.609 235.32 184.369 237.615 189.252 239.08V223.064C183.734 223.895 180.707 226.971 180.658 230.975ZM194.916 270.721C200.922 269.939 204.682 266.619 204.682 262.029C204.682 257.732 201.166 255.438 194.916 253.68V270.721ZM254.682 283.221C239.936 283.221 229.145 274.529 228.9 262.322H243.158C243.5 267.84 248.529 271.648 254.682 271.6C262.006 271.648 267.23 266.473 267.182 259.1C267.23 251.58 261.908 246.355 254.486 246.307C249.164 246.307 245.453 248.309 243.354 252.264H230.072L233.881 211.541H277.436V223.553H245.99L244.037 241.424H244.623C247.211 237.957 252.582 235.418 258.783 235.467C271.771 235.418 281.439 245.135 281.439 258.709C281.439 273.016 270.6 283.221 254.682 283.221ZM318.842 283.221C301.117 283.221 290.424 270.037 290.424 246.893C290.424 223.797 301.215 210.564 318.842 210.564C336.469 210.564 347.26 223.797 347.26 246.893C347.26 270.135 336.518 283.221 318.842 283.221ZM305.463 246.893C305.365 263.201 310.639 271.111 318.842 271.111C327.045 271.111 332.27 263.201 332.221 246.893C332.27 230.73 326.996 222.625 318.842 222.576C310.688 222.625 305.463 230.73 305.463 246.893Z" fill="white"/>
<path d="M184.314 638.102V635.758L191.668 628.346C193.997 625.929 195.154 624.581 195.154 622.721C195.154 620.626 193.455 619.293 191.228 619.293C188.87 619.293 187.376 620.787 187.361 623.043H184.314C184.285 619.161 187.244 616.598 191.287 616.598C195.374 616.598 198.201 619.19 198.23 622.633C198.201 625.006 197.088 626.896 193.103 630.807L188.797 635.172V635.348H198.582V638.102H184.314ZM209.539 638.395C204.632 638.395 201.746 634.439 201.746 627.496C201.746 620.597 204.661 616.598 209.539 616.598C214.402 616.598 217.317 620.597 217.332 627.496C217.317 634.439 214.446 638.395 209.539 638.395ZM204.969 627.496C204.954 632.784 206.668 635.611 209.539 635.611C212.395 635.611 214.109 632.784 214.109 627.496C214.109 622.223 212.381 619.337 209.539 619.322C206.683 619.337 204.969 622.223 204.969 627.496ZM241.473 614.342V640.592H238.689V614.342H241.473ZM219.91 633.443C222.078 633.429 224.539 633.414 227.117 633.355V630.719C224.056 630.309 222.063 628.507 222.078 625.943C222.063 622.984 224.642 621.036 228.435 621.021C232.273 621.036 234.895 622.984 234.91 625.943C234.895 628.478 232.918 630.265 229.871 630.704V633.253C232.303 633.136 234.764 632.96 237.078 632.652L237.283 634.732C231.453 635.699 225.096 635.772 220.291 635.758L219.91 633.443ZM220.467 619.703V617.477H227.117V614.4H229.9V617.477H236.492V619.703H220.467ZM224.715 625.943C224.685 627.613 226.238 628.653 228.435 628.639C230.706 628.653 232.244 627.613 232.244 625.943C232.244 624.259 230.706 623.189 228.435 623.189C226.238 623.189 224.685 624.259 224.715 625.943ZM274.754 614.342V627.906H272V614.342H274.754ZM253.309 625.826C257.381 624.566 259.915 621.402 259.93 618.004H254.041V615.748H268.514V618.004H262.742C262.742 621.212 265.247 624.171 269.334 625.328L267.986 627.467C264.881 626.544 262.566 624.566 261.38 622.047C260.223 624.83 257.82 627.013 254.598 628.023L253.309 625.826ZM257.527 631.246V629.107H274.783V635.611H260.31V638.16H275.662V640.328H257.615V633.59H272.029V631.246H257.527ZM302.937 627.613V629.869H292.508V634.967H289.754V629.869H278.914V627.613H302.937ZM281.902 640.035V632.477H284.685V637.779H300.271V640.035H281.902ZM281.99 624.889V615.572H299.832V624.889H281.99ZM284.715 622.691H297.078V617.77H284.715V622.691ZM326.844 614.371V634.176H324.031V630.748H318.465V628.521H324.031V614.371H326.844ZM304.695 624.596C307.991 624.581 312.093 624.537 316.15 624.273C316.59 621.607 316.707 619.557 316.722 618.092H307.068V615.836H319.519V616.861C319.505 618.282 319.505 620.714 318.963 624.054C319.93 623.951 320.882 623.849 321.805 623.717L322.01 625.738C319.651 626.134 317.205 626.397 314.803 626.559V632.477H312.019V626.705C309.515 626.822 307.142 626.852 305.076 626.852L304.695 624.596ZM308.533 640.035V632.037H311.316V637.779H327.488V640.035H308.533Z" fill="white"/>
<path d="M98.7675 686.883V689.344C98.7529 692.537 98.7822 696.17 97.6542 701.619L94.9296 701.326C95.413 699.085 95.6767 697.107 95.8378 695.335L80.0468 696.258L79.6367 693.855L95.9697 693.211C96.0283 691.79 96.0429 690.53 96.0429 689.344V689.168H80.4277V686.883H98.7675ZM77.5859 707.303V704.988H86.6972V698.338H89.4511V704.988H101.521V707.303H77.5859ZM124.783 696.902V699.188H106.502V686.795H124.549V689.08H109.256V696.902H124.783ZM103.514 707.244V704.93H127.537V707.244H103.514ZM151.238 684.451V710.701H148.455V684.451H151.238ZM131.053 704.021V687H133.807V701.619C137.644 701.604 141.673 701.268 145.877 700.418L146.258 702.762C141.614 703.714 137.395 704.036 133.25 704.021H131.053ZM179.363 699.363V701.678H168.641V710.701H165.916V701.678H155.34V699.363H179.363ZM157.947 691.277C157.962 687.703 161.741 685.447 167.293 685.447C172.845 685.447 176.653 687.703 176.639 691.277C176.653 694.808 172.845 697.049 167.293 697.049C161.741 697.049 157.962 694.808 157.947 691.277ZM160.818 691.277C160.804 693.46 163.396 694.822 167.293 694.822C171.204 694.822 173.782 693.46 173.797 691.277C173.782 689.065 171.204 687.688 167.293 687.674C163.396 687.688 160.804 689.065 160.818 691.277ZM194.627 688.172C194.627 692.449 199.183 696.492 204.236 697.4L202.947 699.715C198.743 698.807 194.891 696.053 193.191 692.361C191.463 696.038 187.61 698.777 183.406 699.715L182.176 697.4C187.156 696.463 191.683 692.449 191.697 688.172V686.18H194.627V688.172ZM181.297 707.244V704.93H205.32V707.244H181.297ZM215.105 686.121C219.148 686.121 222.151 688.67 222.166 692.361C222.151 695.613 219.822 697.972 216.512 698.499V702.659C218.841 702.542 221.17 702.366 223.338 702.088L223.543 704.168C217.991 705.135 211.883 705.179 207.342 705.135L206.902 702.85C208.938 702.835 211.282 702.82 213.728 702.762V698.499C210.345 698.001 208.03 695.628 208.045 692.361C208.03 688.67 210.989 686.121 215.105 686.121ZM210.74 692.361C210.726 694.69 212.586 696.243 215.105 696.229C217.596 696.243 219.427 694.69 219.441 692.361C219.427 690.018 217.596 688.494 215.105 688.465C212.586 688.494 210.726 690.018 210.74 692.361ZM224.92 710.701V684.451H227.703V695.115H231.746V697.459H227.703V710.701H224.92ZM255.184 686.355V688.611H252.664V696.551C253.777 696.463 254.847 696.36 255.887 696.229L256.004 698.338C250.95 699.129 245.061 699.217 240.857 699.217L240.506 696.902C241.487 696.902 242.571 696.902 243.699 696.888V688.611H241.238V686.355H255.184ZM244.695 705.896C244.681 702.835 248.02 701.092 253.572 701.092C259.109 701.092 262.435 702.835 262.449 705.896C262.435 708.899 259.109 710.657 253.572 710.643C248.02 710.657 244.681 708.899 244.695 705.896ZM246.394 696.844C247.581 696.814 248.782 696.771 249.998 696.712V688.611H246.394V696.844ZM247.449 705.896C247.435 707.552 249.69 708.489 253.572 708.504C257.425 708.489 259.681 707.552 259.695 705.896C259.681 704.197 257.425 703.245 253.572 703.26C249.69 703.245 247.435 704.197 247.449 705.896ZM255.564 696.023V693.797H259.578V691.248H255.564V689.021H259.578V684.451H262.361V700.594H259.578V696.023H255.564ZM288.787 684.451V701.004H286.15V693.68H283.103V700.096H280.496V684.949H283.103V691.395H286.15V684.451H288.787ZM266.258 689.637V687.439H271.56V684.656H274.314V687.439H279.529V689.637H266.258ZM267.283 695.379C267.283 692.654 269.627 690.867 272.908 690.867C276.263 690.867 278.592 692.654 278.592 695.379C278.592 698.104 276.263 699.891 272.908 699.891C269.627 699.891 267.283 698.104 267.283 695.379ZM269.773 695.379C269.773 696.873 271.048 697.854 272.908 697.869C274.798 697.854 276.087 696.873 276.072 695.379C276.087 693.885 274.798 692.903 272.908 692.918C271.048 692.903 269.773 693.885 269.773 695.379ZM271.121 706.043C271.092 703.069 274.432 701.385 279.998 701.385C285.579 701.385 288.919 703.069 288.934 706.043C288.919 708.987 285.579 710.657 279.998 710.643C274.432 710.657 271.092 708.987 271.121 706.043ZM273.875 706.043C273.846 707.625 276.102 708.533 279.998 708.504C283.909 708.533 286.136 707.625 286.15 706.043C286.136 704.388 283.909 703.509 279.998 703.523C276.102 703.509 273.846 704.388 273.875 706.043ZM323.65 699.363V701.678H312.928V710.701H310.203V701.678H299.627V699.363H323.65ZM302.234 691.277C302.249 687.703 306.028 685.447 311.58 685.447C317.132 685.447 320.94 687.703 320.926 691.277C320.94 694.808 317.132 697.049 311.58 697.049C306.028 697.049 302.249 694.808 302.234 691.277ZM305.105 691.277C305.091 693.46 307.684 694.822 311.58 694.822C315.491 694.822 318.069 693.46 318.084 691.277C318.069 689.065 315.491 687.688 311.58 687.674C307.684 687.688 305.091 689.065 305.105 691.277ZM349.519 699.246V701.502H338.855V710.672H336.131V701.502H325.584V699.246H349.519ZM326.932 695.057C331.824 694.383 335.896 691.468 335.984 688.23H327.81V686.004H347.264V688.23H339.148C339.192 691.468 343.235 694.383 348.201 695.057L347.176 697.254C342.869 696.58 339.148 694.456 337.552 691.468C335.94 694.456 332.234 696.58 327.986 697.254L326.932 695.057ZM371.932 686.385V698.191H359.861V686.385H371.932ZM361.297 708.387C366.219 707.625 369.954 704.842 369.969 701.355V700.594H372.723V701.355C372.693 704.842 376.458 707.625 381.424 708.387L380.31 710.584C376.311 709.896 372.942 707.962 371.36 705.149C369.749 707.962 366.38 709.896 362.381 710.584L361.297 708.387ZM362.586 695.965H369.178V688.641H362.586V695.965ZM376.678 701.854V684.451H379.461V691.424H383.269V693.768H379.461V701.854H376.678ZM408.787 705.135V707.449H384.764V705.135H395.34V699.744H387.518V686.238H390.301V690.75H403.191V686.238H405.945V699.744H398.094V705.135H408.787ZM390.301 697.488H403.191V693.006H390.301V697.488ZM432.518 684.451V710.701H429.705V684.451H432.518ZM410.955 703.67C417.928 700.345 421.341 695.613 421.883 689.49H412.215V687.264H424.695C424.695 694.954 421.429 701.604 412.42 705.926L410.955 703.67Z" fill="white"/>
<path d="M91.4433 778.32L100.906 760.039V759.863H89.9785V757.109H104.246V759.98L94.8124 778.32H91.4433ZM114.412 778.613C109.505 778.613 106.619 774.658 106.619 767.715C106.619 760.815 109.534 756.816 114.412 756.816C119.275 756.816 122.19 760.815 122.205 767.715C122.19 774.658 119.319 778.613 114.412 778.613ZM109.842 767.715C109.827 773.003 111.541 775.83 114.412 775.83C117.268 775.83 118.982 773.003 118.982 767.715C118.982 762.441 117.254 759.556 114.412 759.541C111.556 759.556 109.842 762.441 109.842 767.715ZM132.928 778.613C128.02 778.613 125.135 774.658 125.135 767.715C125.135 760.815 128.05 756.816 132.928 756.816C137.791 756.816 140.706 760.815 140.721 767.715C140.706 774.658 137.835 778.613 132.928 778.613ZM128.357 767.715C128.343 773.003 130.057 775.83 132.928 775.83C135.784 775.83 137.498 773.003 137.498 767.715C137.498 762.441 135.769 759.556 132.928 759.541C130.071 759.556 128.357 762.441 128.357 767.715ZM165.037 754.59V773.984H162.254V765.049H155.047V762.822H162.254V760.068H155.047V757.842H162.254V754.59H165.037ZM144.705 770.234V756.406H147.459V767.891C150.945 767.876 154.256 767.686 158.006 766.982L158.299 769.268C154.139 770.044 150.579 770.205 146.727 770.234H144.705ZM147.928 780.254V772.285H150.74V777.998H165.711V780.254H147.928ZM198.289 754.59V770.117H195.506V766.924H188.885V764.639H195.506V761.445H189.163C187.464 765.664 183.523 768.638 177.84 770.264L176.727 768.096C182.937 766.323 186.57 762.983 187.068 758.75H178.074V756.465H190.086C190.086 757.432 189.983 758.369 189.808 759.248H195.506V754.59H198.289ZM180.799 775.537C180.799 772.358 184.256 770.425 189.646 770.41C194.964 770.425 198.45 772.358 198.465 775.537C198.45 778.73 194.964 780.693 189.646 780.693C184.256 780.693 180.799 778.73 180.799 775.537ZM183.553 775.537C183.553 777.383 185.896 778.452 189.646 778.467C193.323 778.452 195.667 777.383 195.682 775.537C195.667 773.662 193.323 772.593 189.646 772.607C185.896 772.593 183.553 773.662 183.553 775.537ZM214.842 756.143V763.789H206.17V767.422C210.74 767.422 213.23 767.319 216.189 766.777L216.453 769.033C213.245 769.575 210.55 769.663 205.32 769.678H203.416V761.68H212.059V758.369H203.387V756.143H214.842ZM206.404 774.307V772.051H224.217V780.84H221.434V774.307H206.404ZM216.512 766.104V763.877H221.434V760.625H216.512V758.398H221.434V754.59H224.217V770.732H221.434V766.104H216.512ZM236.814 756.436C240.96 756.421 243.948 758.984 243.963 762.676C243.948 766.367 240.96 768.931 236.814 768.945C232.684 768.931 229.651 766.367 229.666 762.676C229.651 758.984 232.684 756.421 236.814 756.436ZM228.406 772.9C233.182 772.9 239.803 772.856 245.545 772.021L245.75 774.043C239.817 775.186 233.445 775.215 228.758 775.215L228.406 772.9ZM232.42 762.676C232.391 765.005 234.266 766.514 236.814 766.514C239.363 766.514 241.238 765.005 241.238 762.676C241.238 760.376 239.363 758.838 236.814 758.838C234.266 758.838 232.391 760.376 232.42 762.676ZM247.185 780.869V754.561H249.969V780.869H247.185ZM283.279 754.59V773.809H280.496V754.59H283.279ZM261.658 767.891C265.774 766.367 268.206 762.588 268.221 758.633V756.025H271.062V758.633C271.048 762.471 273.479 765.986 277.537 767.393L276.102 769.619C273.069 768.491 270.828 766.265 269.656 763.423C268.499 766.47 266.228 768.901 263.152 770.088L261.658 767.891ZM266.111 780.254V771.992H268.924V777.998H284.07V780.254H266.111ZM311.404 765.312V767.539H287.439V765.312H311.404ZM290.31 771.758V769.619H308.357V775.977H293.064V778.32H309.09V780.518H290.34V773.926H305.603V771.758H290.31ZM290.574 763.408V755.322H308.299V757.578H293.357V761.182H308.562V763.408H290.574ZM335.105 754.59V773.896H332.352V754.59H335.105ZM314.685 758.633V756.406H326.756V764.229H317.469V768.008C322.288 767.979 325.584 767.832 329.48 767.129L329.773 769.414C325.643 770.132 322.156 770.278 316.941 770.293H314.744V762.119H324.002V758.633H314.685ZM317.762 780.254V772.373H320.545V777.998H335.838V780.254H317.762ZM368.445 754.561V780.811H365.633V754.561H368.445ZM346.56 772.139C347.644 772.139 348.802 772.124 350.018 772.109V759.541H347.264V757.256H362.205V759.541H359.48V771.758C360.843 771.655 362.19 771.523 363.494 771.377L363.641 773.428C357.957 774.351 351.717 774.438 346.883 774.453L346.56 772.139ZM352.713 772.065C354.031 772.036 355.393 771.978 356.756 771.919V759.541H352.713V772.065ZM393.816 767.012V769.297H375.535V756.904H393.582V759.189H378.289V767.012H393.816ZM372.547 777.354V775.039H396.57V777.354H372.547ZM402.225 756.23V760.244H407.293V756.23H409.871V768.623H399.588V756.23H402.225ZM402.225 766.367H407.293V762.412H402.225V766.367ZM403.016 774.072V771.816H420.857V780.811H418.103V774.072H403.016ZM412.566 770.176V755.059H415.144V761.27H418.221V754.59H420.857V770.352H418.221V763.555H415.144V770.176H412.566Z" fill="white"/>
<path d="M63.7138 454.678C63.6845 456.304 64.2119 458.765 65.9257 460.449C67.5956 458.794 68.1523 456.421 68.1669 454.678V453.506H66.4677V451.221H73.8505V453.506H70.8036V454.678C70.789 456.89 72.0195 459.761 74.9345 461.123L73.5869 463.115C71.5507 462.192 70.2617 460.522 69.5439 458.677C68.9726 460.552 67.8886 462.354 65.9111 463.379C63.9628 462.354 62.8788 460.552 62.3076 458.691C61.5751 460.522 60.3007 462.178 58.2939 463.115L56.9462 461.123C59.8173 459.746 61.0917 456.816 61.1064 454.678V453.506H57.913V451.221H65.413V453.506H63.7138V454.678ZM60.1103 467.129V465.078H68.4599V471.26H62.8642V473.691C65.413 473.691 67.0097 473.647 69.0165 473.252L69.2509 475.332C66.8339 475.771 64.9882 475.801 61.5751 475.801H60.1689V469.268H65.7646V467.129H60.1103ZM70.0126 475.801V464.844H72.5322V468.008H76.0771V464.844H78.538V475.801H70.0126ZM72.5322 473.662H76.0771V470.088H72.5322V473.662ZM75.7841 463.496V449.814H78.538V455.205H81.7314V457.549H78.538V463.496H75.7841ZM107.161 463.525V465.752H83.2255V463.525H107.161ZM85.8036 455.938C85.789 452.642 89.4658 450.679 95.1786 450.693C100.862 450.679 104.539 452.642 104.554 455.938C104.539 459.248 100.862 461.255 95.1786 461.27C89.4658 461.255 85.789 459.248 85.8036 455.938ZM86.2431 475.508V467.891H89.0556V473.252H104.466V475.508H86.2431ZM88.6747 455.938C88.6601 457.886 91.1503 458.984 95.1786 458.984C99.1923 458.984 101.697 457.886 101.683 455.938C101.697 454.062 99.1923 452.92 95.1786 452.92C91.1503 452.92 88.6601 454.062 88.6747 455.938ZM126.116 456.494C126.087 461.284 128.987 466.118 133.06 467.92L131.39 470.117C128.372 468.682 125.984 465.737 124.754 462.148C123.538 466.001 121.121 469.165 117.972 470.703L116.272 468.359C120.403 466.528 123.304 461.504 123.304 456.494V452.012H126.116V456.494ZM135.433 476.123V449.814H138.216V476.123H135.433ZM163.03 449.814V457.578H166.839V459.893H163.03V468.887H160.218V449.814H163.03ZM142.376 463.789C148.528 461.943 152.337 458.442 152.879 454.121H143.489V451.807H155.911C155.911 458.691 151.224 463.687 143.548 466.016L142.376 463.789ZM146.36 475.508V466.924H149.173V473.252H164.114V475.508H146.36ZM199.622 462.588V464.814H175.657V462.588H186.292V459.805H178.645V451.016H196.663V453.213H181.399V457.578H196.839V459.805H188.987V462.588H199.622ZM178.499 471.289C178.499 468.242 181.912 466.528 187.61 466.514C193.265 466.528 196.648 468.242 196.663 471.289C196.648 474.336 193.265 476.05 187.61 476.064C181.912 476.05 178.499 474.336 178.499 471.289ZM181.311 471.289C181.297 472.974 183.597 473.896 187.61 473.867C191.565 473.896 193.88 472.974 193.88 471.289C193.88 469.634 191.565 468.682 187.61 468.682C183.597 468.682 181.297 469.634 181.311 471.289ZM222.21 449.785V457.637H226.018V459.98H222.21V469.092H219.427V449.785H222.21ZM201.995 458.135C201.966 454.312 205.013 451.616 208.968 451.602C212.937 451.616 215.94 454.312 215.97 458.135C215.94 461.958 212.937 464.683 208.968 464.668C205.013 464.683 201.966 461.958 201.995 458.135ZM204.72 458.135C204.69 460.581 206.565 462.236 208.968 462.236C211.399 462.236 213.23 460.581 213.245 458.135C213.23 455.688 211.399 454.033 208.968 454.033C206.565 454.033 204.69 455.688 204.72 458.135ZM205.569 475.508V467.07H208.352V473.252H223.323V475.508H205.569ZM241.868 451.777C245.794 451.792 248.592 455.366 248.606 460.977C248.592 466.646 245.794 470.22 241.868 470.205C237.942 470.22 235.144 466.646 235.159 460.977C235.144 455.366 237.942 451.792 241.868 451.777ZM237.825 460.977C237.81 465.151 239.48 467.715 241.868 467.715C244.3 467.715 245.94 465.151 245.94 460.977C245.94 456.86 244.3 454.282 241.868 454.268C239.48 454.282 237.81 456.86 237.825 460.977ZM252.503 476.064V449.814H255.286V460.098H259.505V462.441H255.286V476.064H252.503ZM282.503 449.814V476.123H279.72V449.814H282.503ZM261.673 460.977C261.673 455.366 264.5 451.792 268.47 451.777C272.366 451.792 275.237 455.366 275.237 460.977C275.237 466.646 272.366 470.22 268.47 470.205C264.5 470.22 261.673 466.646 261.673 460.977ZM264.368 460.977C264.353 465.151 266.023 467.715 268.47 467.715C270.872 467.715 272.542 465.151 272.542 460.977C272.542 456.86 270.872 454.282 268.47 454.268C266.023 454.282 264.353 456.86 264.368 460.977ZM308.431 449.814V476.123H305.647V449.814H308.431ZM288.362 469.678V452.246H300.931V454.561H291.175V467.305C296.141 467.29 299.334 467.144 303.04 466.484L303.333 468.799C299.407 469.517 295.979 469.663 290.53 469.678H288.362ZM319.739 451.777C323.313 451.792 325.906 454.81 326.331 459.658H331.751V449.814H334.505V476.123H331.751V461.914H326.36C326.053 467.041 323.401 470.22 319.739 470.205C315.828 470.22 313.06 466.646 313.089 460.977C313.06 455.366 315.828 451.792 319.739 451.777ZM315.726 460.977C315.74 465.151 317.366 467.715 319.739 467.715C322.112 467.715 323.738 465.151 323.753 460.977C323.738 456.86 322.112 454.282 319.739 454.268C317.366 454.282 315.74 456.86 315.726 460.977ZM367.61 449.814V476.123H364.827V449.814H367.61ZM347.542 469.678V452.246H360.11V454.561H350.354V467.305C355.32 467.29 358.514 467.144 362.22 466.484L362.513 468.799C358.587 469.517 355.159 469.663 349.71 469.678H347.542ZM394.183 449.844V463.555H391.546V449.844H394.183ZM372.913 462.441V451.338H375.55V454.619H380.618V451.338H383.196V455.615H386.302V450.342H388.909V463.408H386.302V457.9H383.196V462.441H372.913ZM375.55 460.244H380.618V456.729H375.55V460.244ZM376.575 466.924V464.727H394.183V471.172H379.417V473.633H395.179V475.801H376.634V469.092H391.429V466.924H376.575ZM421.722 463.115V465.371H397.698V463.115H408.333V460.918H400.774V454.531H415.921V452.48H400.716V450.312H418.704V456.582H403.528V458.75H419.231V460.918H411.087V463.115H421.722ZM400.862 475.742V466.572H403.645V468.857H415.979V466.572H418.733V475.742H400.862ZM403.645 473.545H415.979V470.996H403.645V473.545ZM445.393 449.814V476.123H442.61V449.814H445.393ZM424.563 460.977C424.563 455.366 427.391 451.792 431.36 451.777C435.257 451.792 438.128 455.366 438.128 460.977C438.128 466.646 435.257 470.22 431.36 470.205C427.391 470.22 424.563 466.646 424.563 460.977ZM427.259 460.977C427.244 465.151 428.914 467.715 431.36 467.715C433.763 467.715 435.433 465.151 435.433 460.977C435.433 456.86 433.763 454.282 431.36 454.268C428.914 454.282 427.244 456.86 427.259 460.977ZM180.74 494.814V508.379H177.928V494.814H180.74ZM159.353 505.361C160.35 505.361 161.434 505.347 162.547 505.332V498.74H160.057V496.543H174.324V498.74H171.805V504.951C173.079 504.863 174.339 504.746 175.525 504.6L175.643 506.621C170.398 507.412 164.29 507.603 159.676 507.588L159.353 505.361ZM163.309 511.777V509.58H180.74V516.084H166.121V518.574H181.648V520.801H163.396V514.062H177.986V511.777H163.309ZM165.213 505.273C166.502 505.229 167.82 505.186 169.139 505.112V498.74H165.213V505.273ZM208.865 515.469V517.783H184.842V515.469H190.584V508.613C188.431 507.427 187.112 505.552 187.127 503.193C187.112 499.062 191.17 496.353 196.795 496.338C202.435 496.353 206.492 499.062 206.492 503.193C206.492 505.508 205.232 507.368 203.123 508.555V515.469H208.865ZM189.822 503.193C189.822 506.006 192.679 507.837 196.795 507.852C200.882 507.837 203.782 506.006 203.797 503.193C203.782 500.366 200.882 498.564 196.795 498.564C192.679 498.564 189.822 500.366 189.822 503.193ZM193.338 515.469H200.31V509.639C199.241 509.888 198.055 510.02 196.795 510.02C195.564 510.02 194.393 509.888 193.338 509.639V515.469ZM231.394 494.844V503.281H235.203V505.596H231.394V514.473H228.611V494.844H231.394ZM210.799 500.146V497.891H217.244V494.814H220.027V497.891H226.443V500.146H210.799ZM212.234 506.357C212.22 503.354 214.812 501.392 218.621 501.406C222.386 501.392 224.978 503.354 224.978 506.357C224.978 509.331 222.386 511.265 218.621 511.279C214.812 511.265 212.22 509.331 212.234 506.357ZM214.754 520.508V512.92H217.537V518.252H232.508V520.508H214.754ZM214.93 506.357C214.9 508.071 216.394 509.126 218.621 509.111C220.848 509.126 222.342 508.071 222.371 506.357C222.342 504.629 220.848 503.56 218.621 503.545C216.394 503.56 214.9 504.629 214.93 506.357ZM264.676 494.814V501.465H268.455V503.75H264.676V510.312H261.863V494.814H264.676ZM245.135 508.408V496.748H256.853V499.004H247.889V506.152C253.06 506.123 255.975 505.977 259.285 505.303L259.549 507.559C256.033 508.276 252.898 508.408 247.215 508.408H245.135ZM247.361 515.908C247.361 512.7 250.76 510.825 256.18 510.811C261.541 510.825 264.881 512.7 264.881 515.908C264.881 519.146 261.541 521.021 256.18 521.006C250.76 521.021 247.361 519.146 247.361 515.908ZM250.115 515.908C250.101 517.725 252.386 518.794 256.18 518.779C259.9 518.794 262.2 517.725 262.215 515.908C262.2 514.092 259.9 513.052 256.18 513.066C252.386 513.052 250.101 514.092 250.115 515.908ZM291.717 494.844V514.062H288.934V494.844H291.717ZM270.096 508.145C274.212 506.621 276.643 502.842 276.658 498.887V496.279H279.5V498.887C279.485 502.725 281.917 506.24 285.975 507.646L284.539 509.873C281.507 508.745 279.266 506.519 278.094 503.677C276.936 506.724 274.666 509.155 271.59 510.342L270.096 508.145ZM274.549 520.508V512.246H277.361V518.252H292.508V520.508H274.549ZM318.465 494.814V521.064H315.799V494.814H318.465ZM296.17 506.152C296.17 500.469 298.396 496.909 301.824 496.924C305.018 496.909 307.171 499.941 307.493 504.863H310.467V495.312H313.133V519.775H310.467V507.119H307.508C307.259 512.246 305.076 515.425 301.824 515.41C298.396 515.425 296.17 511.851 296.17 506.152ZM298.748 506.152C298.748 510.327 299.935 512.788 301.824 512.773C303.758 512.788 304.959 510.327 304.959 506.152C304.959 501.963 303.758 499.517 301.824 499.531C299.935 499.517 298.748 501.963 298.748 506.152ZM344.363 494.814V521.064H341.727V494.814H344.363ZM321.717 513.477C327.283 510.166 329.949 505.757 330.433 500.352H322.947V498.066H333.201C333.186 500.63 332.835 503.076 332.029 505.361H336.189V495.488H338.826V519.775H336.189V507.588H331.062C329.51 510.635 327.005 513.301 323.299 515.469L321.717 513.477ZM350.721 518.779C349.578 518.765 348.626 517.842 348.641 516.699C348.626 515.557 349.578 514.619 350.721 514.619C351.849 514.619 352.786 515.557 352.801 516.699C352.786 517.842 351.849 518.765 350.721 518.779Z" fill="white"/>
<g clip-path="url(#clip0_184_281)">
<path d="M183 894.891H201.56V900.194H198.909V897.542H190.954V910.8H198.909V908.148H201.56V913.451H183V894.891Z" fill="#1B1B1B"/>
<path d="M204.615 894.891H223.176V913.451H204.615V894.891ZM207.267 910.8H215.221V897.542H207.267V910.8Z" fill="#1B1B1B"/>
<path d="M226.231 894.891H242.14V897.542H244.791V910.8H242.14V913.451H226.231V894.891ZM234.185 910.8H242.14V897.542H234.185V910.8Z" fill="#1B1B1B"/>
<path d="M247.846 894.891H250.498V900.194H253.149V902.845H255.801V905.497H258.452V894.891H266.407V913.451H258.452V908.148H255.801V905.497H253.149V902.845H250.498V913.451H247.846V894.891Z" fill="#1B1B1B"/>
<path d="M269.462 894.891H288.022V897.542H282.719V910.8H288.022V913.451H269.462V910.8H274.765V897.542H269.462V894.891Z" fill="#1B1B1B"/>
<path d="M291.077 894.891H293.729V910.8H301.683V894.891H309.638V913.451H291.077V894.891Z" fill="#1B1B1B"/>
<path d="M312.693 894.891H331.253V897.542H320.647V902.845H331.253V913.451H312.693V910.8H323.299V905.497H312.693V894.891Z" fill="#1B1B1B"/>
</g>
<defs>
<clipPath id="clip0_184_281">
<rect width="145.829" height="18.5604" fill="white" transform="translate(183 894.891)"/>
</clipPath>
</defs>
</svg>
