<svg width="514" height="955" viewBox="0 0 514 955" fill="none" xmlns="http://www.w3.org/2000/svg">
<rect x="1" y="0.285156" width="512.271" height="954.433" rx="37.3921" fill="white"/>
<rect x="1" y="110.59" width="512.271" height="285.115" fill="#1B1B1B"/>
<rect x="1" y="395.703" width="512.271" height="448.705" fill="black"/>
<path d="M226.939 40.8516V69.1328H221.822V45.8125H221.666L215.064 50.0312V45.3828L222.057 40.8516H226.939ZM262.213 37.3359V63.3516H257.877V51.5938H248.658V48.1562H257.877V44.9531H248.658V41.5156H257.877V37.3359H262.213ZM234.674 58.5469V39.6797H238.971V54.9531C243.463 54.8945 247.721 54.6211 252.447 53.7812L252.877 57.2969C247.447 58.332 242.682 58.5273 237.447 58.5469H234.674ZM239.01 71.9062V61.0469H243.385V68.3906H263.111V71.9062H239.01ZM297.057 37.3359V63.9375H292.642V59.6797H285.455V56.2422H292.642V37.3359H297.057ZM266.978 50.8906C271.275 50.8711 276.607 50.8125 281.9 50.5C282.447 47.2188 282.603 44.6016 282.662 42.6875H270.182V39.2109H287.017V40.5391C287.017 42.3945 287.017 45.6758 286.295 50.1484C287.525 50.0312 288.736 49.875 289.908 49.7188L290.221 52.8047C287.174 53.332 284.029 53.6836 280.924 53.918V61.6719H276.627V54.1719C273.346 54.3281 270.24 54.3672 267.525 54.3672L266.978 50.8906ZM272.017 71.9062V61.125H276.353V68.3906H297.877V71.9062H272.017Z" fill="#1B1B1B"/>
<path d="M186.039 616.891V638.102H182.787V620.113H182.67L177.602 623.424V620.348L182.875 616.891H186.039ZM198.813 638.395C193.905 638.395 191.02 634.439 191.02 627.496C191.02 620.597 193.935 616.598 198.813 616.598C203.676 616.598 206.591 620.597 206.606 627.496C206.591 634.439 203.72 638.395 198.813 638.395ZM194.242 627.496C194.228 632.784 195.941 635.611 198.813 635.611C201.669 635.611 203.383 632.784 203.383 627.496C203.383 622.223 201.654 619.337 198.813 619.322C195.956 619.337 194.242 622.223 194.242 627.496ZM217.328 638.395C212.421 638.395 209.535 634.439 209.535 627.496C209.535 620.597 212.45 616.598 217.328 616.598C222.191 616.598 225.107 620.597 225.121 627.496C225.107 634.439 222.235 638.395 217.328 638.395ZM212.758 627.496C212.743 632.784 214.457 635.611 217.328 635.611C220.185 635.611 221.898 632.784 221.898 627.496C221.898 622.223 220.17 619.337 217.328 619.322C214.472 619.337 212.758 622.223 212.758 627.496ZM249.262 614.342V640.592H246.479V614.342H249.262ZM227.699 633.443C229.867 633.429 232.328 633.414 234.906 633.355V630.719C231.845 630.309 229.853 628.507 229.867 625.943C229.853 622.984 232.431 621.036 236.225 621.021C240.063 621.036 242.685 622.984 242.699 625.943C242.685 628.478 240.707 630.265 237.66 630.704V633.253C240.092 633.136 242.553 632.96 244.867 632.652L245.072 634.732C239.242 635.699 232.885 635.772 228.08 635.758L227.699 633.443ZM228.256 619.703V617.477H234.906V614.4H237.69V617.477H244.281V619.703H228.256ZM232.504 625.943C232.475 627.613 234.027 628.653 236.225 628.639C238.495 628.653 240.033 627.613 240.033 625.943C240.033 624.259 238.495 623.189 236.225 623.189C234.027 623.189 232.475 624.259 232.504 625.943ZM282.543 614.342V627.906H279.789V614.342H282.543ZM261.098 625.826C265.17 624.566 267.704 621.402 267.719 618.004H261.83V615.748H276.303V618.004H270.531C270.531 621.212 273.036 624.171 277.123 625.328L275.775 627.467C272.67 626.544 270.356 624.566 269.169 622.047C268.012 624.83 265.609 627.013 262.387 628.023L261.098 625.826ZM265.316 631.246V629.107H282.572V635.611H268.1V638.16H283.451V640.328H265.404V633.59H279.818V631.246H265.316ZM310.727 627.613V629.869H300.297V634.967H297.543V629.869H286.703V627.613H310.727ZM289.691 640.035V632.477H292.475V637.779H308.061V640.035H289.691ZM289.779 624.889V615.572H307.621V624.889H289.779ZM292.504 622.691H304.867V617.77H292.504V622.691ZM334.633 614.371V634.176H331.82V630.748H326.254V628.521H331.82V614.371H334.633ZM312.484 624.596C315.78 624.581 319.882 624.537 323.94 624.273C324.379 621.607 324.496 619.557 324.511 618.092H314.857V615.836H327.309V616.861C327.294 618.282 327.294 620.714 326.752 624.054C327.719 623.951 328.671 623.849 329.594 623.717L329.799 625.738C327.44 626.134 324.994 626.397 322.592 626.559V632.477H319.809V626.705C317.304 626.822 314.931 626.852 312.865 626.852L312.484 624.596ZM316.322 640.035V632.037H319.106V637.779H335.277V640.035H316.322Z" fill="white"/>
<path d="M86.5323 686.883V689.344C86.5176 692.537 86.5469 696.17 85.419 701.619L82.6944 701.326C83.1778 699.085 83.4415 697.107 83.6026 695.335L67.8116 696.258L67.4014 693.855L83.7344 693.211C83.793 691.79 83.8077 690.53 83.8077 689.344V689.168H68.1924V686.883H86.5323ZM65.3506 707.303V704.988H74.462V698.338H77.2159V704.988H89.2862V707.303H65.3506ZM112.548 696.902V699.188H94.2667V686.795H112.314V689.08H97.0206V696.902H112.548ZM91.2784 707.244V704.93H115.302V707.244H91.2784ZM139.003 684.451V710.701H136.22V684.451H139.003ZM118.817 704.021V687H121.571V701.619C125.409 701.604 129.438 701.268 133.642 700.418L134.023 702.762C129.379 703.714 125.16 704.036 121.015 704.021H118.817ZM167.128 699.363V701.678H156.405V710.701H153.681V701.678H143.105V699.363H167.128ZM145.712 691.277C145.727 687.703 149.506 685.447 155.058 685.447C160.609 685.447 164.418 687.703 164.403 691.277C164.418 694.808 160.609 697.049 155.058 697.049C149.506 697.049 145.727 694.808 145.712 691.277ZM148.583 691.277C148.568 693.46 151.161 694.822 155.058 694.822C158.969 694.822 161.547 693.46 161.562 691.277C161.547 689.065 158.969 687.688 155.058 687.674C151.161 687.688 148.568 689.065 148.583 691.277ZM182.392 688.172C182.392 692.449 186.947 696.492 192.001 697.4L190.712 699.715C186.508 698.807 182.655 696.053 180.956 692.361C179.228 696.038 175.375 698.777 171.171 699.715L169.94 697.4C174.921 696.463 179.447 692.449 179.462 688.172V686.18H182.392V688.172ZM169.062 707.244V704.93H193.085V707.244H169.062ZM202.87 686.121C206.913 686.121 209.916 688.67 209.931 692.361C209.916 695.613 207.587 697.972 204.276 698.499V702.659C206.606 702.542 208.935 702.366 211.103 702.088L211.308 704.168C205.756 705.135 199.648 705.179 195.107 705.135L194.667 702.85C196.703 702.835 199.047 702.82 201.493 702.762V698.499C198.109 698.001 195.795 695.628 195.81 692.361C195.795 688.67 198.754 686.121 202.87 686.121ZM198.505 692.361C198.49 694.69 200.351 696.243 202.87 696.229C205.36 696.243 207.191 694.69 207.206 692.361C207.191 690.018 205.36 688.494 202.87 688.465C200.351 688.494 198.49 690.018 198.505 692.361ZM212.685 710.701V684.451H215.468V695.115H219.511V697.459H215.468V710.701H212.685ZM242.948 686.355V688.611H240.429V696.551C241.542 696.463 242.611 696.36 243.651 696.229L243.769 698.338C238.715 699.129 232.826 699.217 228.622 699.217L228.271 696.902C229.252 696.902 230.336 696.902 231.464 696.888V688.611H229.003V686.355H242.948ZM232.46 705.896C232.445 702.835 235.785 701.092 241.337 701.092C246.874 701.092 250.199 702.835 250.214 705.896C250.199 708.899 246.874 710.657 241.337 710.643C235.785 710.657 232.445 708.899 232.46 705.896ZM234.159 696.844C235.346 696.814 236.547 696.771 237.763 696.712V688.611H234.159V696.844ZM235.214 705.896C235.199 707.552 237.455 708.489 241.337 708.504C245.19 708.489 247.445 707.552 247.46 705.896C247.445 704.197 245.19 703.245 241.337 703.26C237.455 703.245 235.199 704.197 235.214 705.896ZM243.329 696.023V693.797H247.343V691.248H243.329V689.021H247.343V684.451H250.126V700.594H247.343V696.023H243.329ZM276.552 684.451V701.004H273.915V693.68H270.868V700.096H268.261V684.949H270.868V691.395H273.915V684.451H276.552ZM254.023 689.637V687.439H259.325V684.656H262.079V687.439H267.294V689.637H254.023ZM255.048 695.379C255.048 692.654 257.392 690.867 260.673 690.867C264.027 690.867 266.357 692.654 266.357 695.379C266.357 698.104 264.027 699.891 260.673 699.891C257.392 699.891 255.048 698.104 255.048 695.379ZM257.538 695.379C257.538 696.873 258.813 697.854 260.673 697.869C262.563 697.854 263.852 696.873 263.837 695.379C263.852 693.885 262.563 692.903 260.673 692.918C258.813 692.903 257.538 693.885 257.538 695.379ZM258.886 706.043C258.857 703.069 262.196 701.385 267.763 701.385C273.344 701.385 276.684 703.069 276.698 706.043C276.684 708.987 273.344 710.657 267.763 710.643C262.196 710.657 258.857 708.987 258.886 706.043ZM261.64 706.043C261.61 707.625 263.866 708.533 267.763 708.504C271.674 708.533 273.9 707.625 273.915 706.043C273.9 704.388 271.674 703.509 267.763 703.523C263.866 703.509 261.61 704.388 261.64 706.043ZM304.091 699.363V701.678H293.368V710.701H290.644V701.678H280.067V699.363H304.091ZM282.675 691.277C282.69 687.703 286.469 685.447 292.021 685.447C297.572 685.447 301.381 687.703 301.366 691.277C301.381 694.808 297.572 697.049 292.021 697.049C286.469 697.049 282.69 694.808 282.675 691.277ZM285.546 691.277C285.531 693.46 288.124 694.822 292.021 694.822C295.932 694.822 298.51 693.46 298.524 691.277C298.51 689.065 295.932 687.688 292.021 687.674C288.124 687.688 285.531 689.065 285.546 691.277ZM329.96 699.246V701.502H319.296V710.672H316.571V701.502H306.024V699.246H329.96ZM307.372 695.057C312.265 694.383 316.337 691.468 316.425 688.23H308.251V686.004H327.704V688.23H319.589C319.633 691.468 323.676 694.383 328.642 695.057L327.616 697.254C323.31 696.58 319.589 694.456 317.992 691.468C316.381 694.456 312.675 696.58 308.427 697.254L307.372 695.057ZM363.271 697.723V699.979H352.841V705.076H350.087V699.979H339.247V697.723H363.271ZM342.235 710.145V702.586H345.019V707.889H360.605V710.145H342.235ZM342.323 694.998V685.682H360.165V694.998H342.323ZM345.048 692.801H357.411V687.879H345.048V692.801ZM385.771 684.451V695.438H389.726V697.781H385.771V710.701H382.987V684.451H385.771ZM364.882 703.553C366.947 703.553 369.35 703.553 371.855 703.479V700.813C368.896 700.374 366.962 698.587 366.991 696.053C366.962 693.094 369.525 691.146 373.261 691.131C376.982 691.146 379.574 693.094 379.589 696.053C379.574 698.587 377.611 700.389 374.638 700.813V703.377C376.967 703.26 379.311 703.069 381.493 702.762L381.669 704.812C375.985 705.823 369.848 705.882 365.321 705.867L364.882 703.553ZM365.38 689.783V687.557H371.855V684.51H374.638V687.557H381.112V689.783H365.38ZM369.599 696.053C369.599 697.723 371.064 698.763 373.261 698.748C375.458 698.763 376.908 697.723 376.923 696.053C376.908 694.368 375.458 693.299 373.261 693.299C371.064 693.299 369.599 694.368 369.599 696.053ZM422.392 698.25V700.447H398.398V698.25H422.392ZM401.122 704.959V702.732H419.345V710.701H416.503V704.959H401.122ZM401.532 696.023V685.125H419.462V687.322H404.345V689.461H418.788V691.57H404.345V693.885H419.638V696.023H401.532ZM445.009 684.451V691.072H448.817V693.328H445.009V700.037H442.226V684.451H445.009ZM424.355 697.986C430.507 696.258 434.272 692.83 434.784 688.582H425.526V686.326H437.802C437.802 693.108 433.188 698.016 425.497 700.242L424.355 697.986ZM427.929 705.486C427.899 702.293 431.357 700.315 436.63 700.33C441.918 700.315 445.302 702.293 445.302 705.486C445.302 708.709 441.918 710.657 436.63 710.672C431.357 710.657 427.899 708.709 427.929 705.486ZM430.683 705.486C430.668 707.332 432.953 708.46 436.63 708.475C440.277 708.46 442.577 707.332 442.577 705.486C442.577 703.641 440.277 702.513 436.63 702.527C432.953 702.513 430.668 703.641 430.683 705.486Z" fill="white"/>
<path d="M50.4678 756.465V758.721H47.9483V766.66C49.0616 766.572 50.1309 766.47 51.171 766.338L51.2881 768.447C46.2344 769.238 40.3458 769.326 36.1417 769.326L35.7901 767.012C36.7715 767.012 37.8555 767.012 38.9835 766.997V758.721H36.5225V756.465H50.4678ZM39.9796 776.006C39.9649 772.944 43.3047 771.201 48.8565 771.201C54.3936 771.201 57.7188 772.944 57.7335 776.006C57.7188 779.009 54.3936 780.767 48.8565 780.752C43.3047 780.767 39.9649 779.009 39.9796 776.006ZM41.6788 766.953C42.8653 766.924 44.0665 766.88 45.2823 766.821V758.721H41.6788V766.953ZM42.7335 776.006C42.7188 777.661 44.9747 778.599 48.8565 778.613C52.709 778.599 54.9649 777.661 54.9796 776.006C54.9649 774.307 52.709 773.354 48.8565 773.369C44.9747 773.354 42.7188 774.307 42.7335 776.006ZM50.8487 766.133V763.906H54.8624V761.357H50.8487V759.131H54.8624V754.561H57.6456V770.703H54.8624V766.133H50.8487ZM84.0714 754.561V771.113H81.4346V763.789H78.3878V770.205H75.7803V755.059H78.3878V761.504H81.4346V754.561H84.0714ZM61.5421 759.746V757.549H66.8448V754.766H69.5987V757.549H74.8135V759.746H61.5421ZM62.5674 765.488C62.5674 762.764 64.9112 760.977 68.1924 760.977C71.5469 760.977 73.876 762.764 73.876 765.488C73.876 768.213 71.5469 770 68.1924 770C64.9112 770 62.5674 768.213 62.5674 765.488ZM65.0577 765.488C65.0577 766.982 66.3321 767.964 68.1924 767.979C70.0821 767.964 71.3712 766.982 71.3565 765.488C71.3712 763.994 70.0821 763.013 68.1924 763.027C66.3321 763.013 65.0577 763.994 65.0577 765.488ZM66.4053 776.152C66.376 773.179 69.7159 771.494 75.2823 771.494C80.8633 771.494 84.2032 773.179 84.2178 776.152C84.2032 779.097 80.8633 780.767 75.2823 780.752C69.7159 780.767 66.376 779.097 66.4053 776.152ZM69.1592 776.152C69.1299 777.734 71.3858 778.643 75.2823 778.613C79.1934 778.643 81.42 777.734 81.4346 776.152C81.42 774.497 79.1934 773.618 75.2823 773.633C71.3858 773.618 69.1299 774.497 69.1592 776.152ZM111.61 769.473V771.787H100.888V780.811H98.1631V771.787H87.587V769.473H111.61ZM90.1944 761.387C90.209 757.812 93.9883 755.557 99.5401 755.557C105.092 755.557 108.9 757.812 108.886 761.387C108.9 764.917 105.092 767.158 99.5401 767.158C93.9883 767.158 90.209 764.917 90.1944 761.387ZM93.0655 761.387C93.0508 763.569 95.6436 764.932 99.5401 764.932C103.451 764.932 106.029 763.569 106.044 761.387C106.029 759.175 103.451 757.798 99.5401 757.783C95.6436 757.798 93.0508 759.175 93.0655 761.387ZM137.48 769.355V771.611H126.815V780.781H124.091V771.611H113.544V769.355H137.48ZM114.892 765.166C119.784 764.492 123.857 761.577 123.944 758.34H115.771V756.113H135.224V758.34H127.108C127.152 761.577 131.195 764.492 136.161 765.166L135.136 767.363C130.829 766.689 127.108 764.565 125.512 761.577C123.9 764.565 120.194 766.689 115.946 767.363L114.892 765.166ZM162.06 754.561V780.811H159.394V754.561H162.06ZM139.765 765.898C139.765 760.215 141.991 756.655 145.419 756.67C148.612 756.655 150.766 759.688 151.088 764.609H154.062V755.059H156.728V779.521H154.062V766.865H151.103C150.854 771.992 148.671 775.171 145.419 775.156C141.991 775.171 139.765 771.597 139.765 765.898ZM142.343 765.898C142.343 770.073 143.529 772.534 145.419 772.52C147.353 772.534 148.554 770.073 148.554 765.898C148.554 761.709 147.353 759.263 145.419 759.277C143.529 759.263 142.343 761.709 142.343 765.898ZM193.993 766.66V768.887H186.054V775.303H196.747V777.588H172.724V775.303H183.3V768.887H175.712V756.582H193.759V758.838H178.495V766.66H193.993ZM222.558 766.074V768.154H211.982V770.352H219.569V776.27H204.276V778.438H220.302V780.547H201.552V774.336H216.815V772.373H201.523V770.352H209.228V768.154H198.681V766.074H222.558ZM199.853 762.939C204.877 762.661 208.422 761.123 208.993 758.896H201.054V756.758H209.228V754.443H211.982V756.758H220.185V758.896H212.201C212.758 761.123 216.303 762.661 221.386 762.939L220.536 765.049C215.966 764.712 212.245 763.379 210.605 761.079C208.964 763.379 205.243 764.712 200.644 765.049L199.853 762.939ZM245.204 754.59V763.027H249.013V765.342H245.204V774.219H242.421V754.59H245.204ZM224.608 759.893V757.637H231.054V754.561H233.837V757.637H240.253V759.893H224.608ZM226.044 766.104C226.029 763.101 228.622 761.138 232.431 761.152C236.195 761.138 238.788 763.101 238.788 766.104C238.788 769.077 236.195 771.011 232.431 771.025C228.622 771.011 226.029 769.077 226.044 766.104ZM228.564 780.254V772.666H231.347V777.998H246.317V780.254H228.564ZM228.739 766.104C228.71 767.817 230.204 768.872 232.431 768.857C234.657 768.872 236.151 767.817 236.181 766.104C236.151 764.375 234.657 763.306 232.431 763.291C230.204 763.306 228.71 764.375 228.739 766.104ZM264.862 756.523C268.788 756.538 271.586 760.112 271.601 765.723C271.586 771.392 268.788 774.966 264.862 774.951C260.937 774.966 258.139 771.392 258.153 765.723C258.139 760.112 260.937 756.538 264.862 756.523ZM260.819 765.723C260.805 769.897 262.475 772.461 264.862 772.461C267.294 772.461 268.935 769.897 268.935 765.723C268.935 761.606 267.294 759.028 264.862 759.014C262.475 759.028 260.805 761.606 260.819 765.723ZM275.497 780.811V754.561H278.28V764.844H282.499V767.188H278.28V780.811H275.497ZM305.497 754.561V780.869H302.714V754.561H305.497ZM284.667 765.723C284.667 760.112 287.494 756.538 291.464 756.523C295.36 756.538 298.232 760.112 298.232 765.723C298.232 771.392 295.36 774.966 291.464 774.951C287.494 774.966 284.667 771.392 284.667 765.723ZM287.362 765.723C287.348 769.897 289.018 772.461 291.464 772.461C293.866 772.461 295.536 769.897 295.536 765.723C295.536 761.606 293.866 759.028 291.464 759.014C289.018 759.028 287.348 761.606 287.362 765.723ZM331.425 754.561V780.869H328.642V754.561H331.425ZM311.357 774.424V756.992H323.925V759.307H314.169V772.051C319.135 772.036 322.328 771.89 326.034 771.23L326.327 773.545C322.401 774.263 318.974 774.409 313.524 774.424H311.357ZM342.733 756.523C346.308 756.538 348.9 759.556 349.325 764.404H354.745V754.561H357.499V780.869H354.745V766.66H349.355C349.047 771.787 346.396 774.966 342.733 774.951C338.822 774.966 336.054 771.392 336.083 765.723C336.054 760.112 338.822 756.538 342.733 756.523ZM338.72 765.723C338.734 769.897 340.36 772.461 342.733 772.461C345.107 772.461 346.732 769.897 346.747 765.723C346.732 761.606 345.107 759.028 342.733 759.014C340.36 759.028 338.734 761.606 338.72 765.723ZM389.491 754.59V762.324H393.3V764.668H389.491V773.867H386.708V754.59H389.491ZM369.892 769.531V756.465H372.616V760.654H379.501V756.465H382.255V769.531H369.892ZM372.616 767.305H379.501V762.852H372.616V767.305ZM372.851 780.254V771.963H375.634V777.998H390.605V780.254H372.851ZM418.73 767.158V769.385H394.794V767.158H418.73ZM397.372 760.244C397.357 757.109 401.005 755.19 406.747 755.176C412.475 755.19 416.107 757.109 416.122 760.244C416.107 763.394 412.475 765.254 406.747 765.254C401.005 765.254 397.357 763.394 397.372 760.244ZM397.636 776.094C397.636 773.047 401.034 771.348 406.747 771.377C412.387 771.348 415.785 773.047 415.8 776.094C415.785 779.126 412.387 780.825 406.747 780.811C401.034 780.825 397.636 779.126 397.636 776.094ZM400.243 760.244C400.229 762.046 402.704 763.071 406.747 763.086C410.761 763.071 413.266 762.046 413.251 760.244C413.266 758.413 410.761 757.388 406.747 757.402C402.704 757.388 400.229 758.413 400.243 760.244ZM400.448 776.094C400.434 777.734 402.733 778.657 406.747 778.643C410.702 778.657 413.017 777.734 413.017 776.094C413.017 774.395 410.702 773.486 406.747 773.486C402.733 773.486 400.434 774.395 400.448 776.094ZM449.931 754.59V773.809H447.148V763.936H442.138V761.68H447.148V754.59H449.931ZM428.075 768.33C432.104 766.968 434.623 763.511 434.608 759.893V758.867H428.925V756.582H443.075V758.867H437.45V759.893C437.436 763.159 439.809 766.455 443.778 767.773L442.343 770C439.398 768.975 437.216 766.865 436.073 764.258C434.931 767.158 432.631 769.473 429.511 770.586L428.075 768.33ZM432.88 780.254V772.08H435.663V777.998H450.634V780.254H432.88ZM466.806 756.025V758.252H457.841V764.639C462.792 764.639 465.766 764.448 469.179 763.76L469.501 765.957C465.868 766.733 462.66 766.865 457.167 766.865H455.087V756.025H466.806ZM457.636 771.201V768.975H474.599V775.684H460.419V778.232H475.507V780.488H457.694V773.545H471.845V771.201H457.636ZM471.815 767.744V754.561H474.599V759.922H478.407V762.207H474.599V767.744H471.815Z" fill="white"/>
<path d="M70.0235 458.457V460.713H51.7715V451.104H54.5547V458.457H70.0235ZM48.7247 466.631V464.346H72.7481V466.631H61.9962V476.064H59.2422V466.631H48.7247ZM95.5411 451.455V453.77C95.5411 456.26 95.5411 458.97 94.8087 462.705H98.588V464.99H87.9532V476.094H85.1407V464.99H74.6524V462.705H91.9962C92.7725 458.955 92.7725 456.216 92.7872 453.77V453.74H77.5821V451.455H95.5411ZM124.604 470.498V472.812H100.58V470.498H111.156V465.107H103.334V451.602H106.117V456.113H119.008V451.602H121.762V465.107H113.91V470.498H124.604ZM106.117 462.852H119.008V458.369H106.117V462.852ZM146.957 449.814V459.98H151.176V462.266H146.957V476.123H144.174V449.814H146.957ZM127.621 469.59V452.334H139.897V454.59H130.404V467.275C134.814 467.261 138.109 467.07 141.859 466.396L142.211 468.74C138.095 469.473 134.608 469.604 129.731 469.59H127.621ZM182.348 449.814V476.064H179.682V462.383H176.43V474.775H173.793V450.312H176.43V460.098H179.682V449.814H182.348ZM160.639 469.15V452.773H170.834V469.15H160.639ZM163.275 466.924H168.227V454.971H163.275V466.924ZM199.076 451.631C199.091 454.912 203.295 458.091 208.275 458.809L207.191 461.006C203.017 460.317 199.355 458.164 197.67 455.22C196 458.208 192.309 460.376 188.119 461.064L187.065 458.867C192.045 458.105 196.22 455.015 196.234 451.631V450.488H199.076V451.631ZM185.658 465.283V463.027H209.682V465.283H199.252V470.352H196.498V465.283H185.658ZM188.647 475.508V467.891H191.43V473.252H207.016V475.508H188.647ZM232.24 449.814V457.578H236.049V459.893H232.24V468.887H229.428V449.814H232.24ZM211.586 463.789C217.738 461.943 221.547 458.442 222.089 454.121H212.699V451.807H225.121C225.121 458.691 220.434 463.687 212.758 466.016L211.586 463.789ZM215.57 475.508V466.924H218.383V473.252H233.324V475.508H215.57ZM251.898 451.777C255.824 451.792 258.622 455.366 258.637 460.977C258.622 466.646 255.824 470.22 251.898 470.205C247.973 470.22 245.175 466.646 245.19 460.977C245.175 455.366 247.973 451.792 251.898 451.777ZM247.856 460.977C247.841 465.151 249.511 467.715 251.898 467.715C254.33 467.715 255.971 465.151 255.971 460.977C255.971 456.86 254.33 454.282 251.898 454.268C249.511 454.282 247.841 456.86 247.856 460.977ZM262.533 476.064V449.814H265.316V460.098H269.535V462.441H265.316V476.064H262.533ZM292.533 449.814V476.123H289.75V449.814H292.533ZM271.703 460.977C271.703 455.366 274.53 451.792 278.5 451.777C282.397 451.792 285.268 455.366 285.268 460.977C285.268 466.646 282.397 470.22 278.5 470.205C274.53 470.22 271.703 466.646 271.703 460.977ZM274.398 460.977C274.384 465.151 276.054 467.715 278.5 467.715C280.902 467.715 282.572 465.151 282.572 460.977C282.572 456.86 280.902 454.282 278.5 454.268C276.054 454.282 274.384 456.86 274.398 460.977ZM318.461 449.814V476.123H315.678V449.814H318.461ZM298.393 469.678V452.246H310.961V454.561H301.205V467.305C306.171 467.29 309.364 467.144 313.07 466.484L313.363 468.799C309.438 469.517 306.01 469.663 300.561 469.678H298.393ZM329.77 451.777C333.344 451.792 335.937 454.81 336.361 459.658H341.781V449.814H344.535V476.123H341.781V461.914H336.391C336.083 467.041 333.432 470.22 329.77 470.205C325.858 470.22 323.09 466.646 323.119 460.977C323.09 455.366 325.858 451.792 329.77 451.777ZM325.756 460.977C325.771 465.151 327.397 467.715 329.77 467.715C332.143 467.715 333.769 465.151 333.783 460.977C333.769 456.86 332.143 454.282 329.77 454.268C327.397 454.282 325.771 456.86 325.756 460.977ZM377.641 449.814V476.123H374.857V449.814H377.641ZM357.572 469.678V452.246H370.141V454.561H360.385V467.305C365.351 467.29 368.544 467.144 372.25 466.484L372.543 468.799C368.617 469.517 365.19 469.663 359.74 469.678H357.572ZM404.213 449.844V463.555H401.576V449.844H404.213ZM382.943 462.441V451.338H385.58V454.619H390.648V451.338H393.227V455.615H396.332V450.342H398.94V463.408H396.332V457.9H393.227V462.441H382.943ZM385.58 460.244H390.648V456.729H385.58V460.244ZM386.606 466.924V464.727H404.213V471.172H389.447V473.633H405.209V475.801H386.664V469.092H401.459V466.924H386.606ZM431.752 463.115V465.371H407.729V463.115H418.363V460.918H410.805V454.531H425.951V452.48H410.746V450.312H428.734V456.582H413.559V458.75H429.262V460.918H421.117V463.115H431.752ZM410.893 475.742V466.572H413.676V468.857H426.01V466.572H428.764V475.742H410.893ZM413.676 473.545H426.01V470.996H413.676V473.545ZM455.424 449.814V476.123H452.641V449.814H455.424ZM434.594 460.977C434.594 455.366 437.421 451.792 441.391 451.777C445.287 451.792 448.158 455.366 448.158 460.977C448.158 466.646 445.287 470.22 441.391 470.205C437.421 470.22 434.594 466.646 434.594 460.977ZM437.289 460.977C437.274 465.151 438.944 467.715 441.391 467.715C443.793 467.715 445.463 465.151 445.463 460.977C445.463 456.86 443.793 454.282 441.391 454.268C438.944 454.282 437.274 456.86 437.289 460.977ZM181.469 494.814V508.379H178.656V494.814H181.469ZM160.082 505.361C161.078 505.361 162.162 505.347 163.275 505.332V498.74H160.785V496.543H175.053V498.74H172.533V504.951C173.808 504.863 175.067 504.746 176.254 504.6L176.371 506.621C171.127 507.412 165.019 507.603 160.404 507.588L160.082 505.361ZM164.037 511.777V509.58H181.469V516.084H166.85V518.574H182.377V520.801H164.125V514.062H178.715V511.777H164.037ZM165.941 505.273C167.231 505.229 168.549 505.186 169.867 505.112V498.74H165.941V505.273ZM209.594 515.469V517.783H185.57V515.469H191.313V508.613C189.159 507.427 187.841 505.552 187.856 503.193C187.841 499.062 191.898 496.353 197.523 496.338C203.163 496.353 207.221 499.062 207.221 503.193C207.221 505.508 205.961 507.368 203.852 508.555V515.469H209.594ZM190.551 503.193C190.551 506.006 193.407 507.837 197.523 507.852C201.61 507.837 204.511 506.006 204.525 503.193C204.511 500.366 201.61 498.564 197.523 498.564C193.407 498.564 190.551 500.366 190.551 503.193ZM194.066 515.469H201.039V509.639C199.97 509.888 198.783 510.02 197.523 510.02C196.293 510.02 195.121 509.888 194.066 509.639V515.469ZM232.123 494.844V503.281H235.932V505.596H232.123V514.473H229.34V494.844H232.123ZM211.527 500.146V497.891H217.973V494.814H220.756V497.891H227.172V500.146H211.527ZM212.963 506.357C212.948 503.354 215.541 501.392 219.35 501.406C223.114 501.392 225.707 503.354 225.707 506.357C225.707 509.331 223.114 511.265 219.35 511.279C215.541 511.265 212.948 509.331 212.963 506.357ZM215.482 520.508V512.92H218.266V518.252H233.236V520.508H215.482ZM215.658 506.357C215.629 508.071 217.123 509.126 219.35 509.111C221.576 509.126 223.07 508.071 223.1 506.357C223.07 504.629 221.576 503.56 219.35 503.545C217.123 503.56 215.629 504.629 215.658 506.357ZM265.404 494.814V501.465H269.184V503.75H265.404V510.312H262.592V494.814H265.404ZM245.863 508.408V496.748H257.582V499.004H248.617V506.152C253.788 506.123 256.703 505.977 260.014 505.303L260.277 507.559C256.762 508.276 253.627 508.408 247.943 508.408H245.863ZM248.09 515.908C248.09 512.7 251.488 510.825 256.908 510.811C262.27 510.825 265.609 512.7 265.609 515.908C265.609 519.146 262.27 521.021 256.908 521.006C251.488 521.021 248.09 519.146 248.09 515.908ZM250.844 515.908C250.829 517.725 253.114 518.794 256.908 518.779C260.629 518.794 262.929 517.725 262.943 515.908C262.929 514.092 260.629 513.052 256.908 513.066C253.114 513.052 250.829 514.092 250.844 515.908ZM292.445 494.844V514.062H289.662V494.844H292.445ZM270.824 508.145C274.94 506.621 277.372 502.842 277.387 498.887V496.279H280.229V498.887C280.214 502.725 282.646 506.24 286.703 507.646L285.268 509.873C282.235 508.745 279.994 506.519 278.822 503.677C277.665 506.724 275.395 509.155 272.318 510.342L270.824 508.145ZM275.277 520.508V512.246H278.09V518.252H293.236V520.508H275.277ZM319.193 494.814V521.064H316.527V494.814H319.193ZM296.898 506.152C296.898 500.469 299.125 496.909 302.553 496.924C305.746 496.909 307.899 499.941 308.222 504.863H311.195V495.312H313.861V519.775H311.195V507.119H308.236C307.987 512.246 305.805 515.425 302.553 515.41C299.125 515.425 296.898 511.851 296.898 506.152ZM299.477 506.152C299.477 510.327 300.663 512.788 302.553 512.773C304.486 512.788 305.688 510.327 305.688 506.152C305.688 501.963 304.486 499.517 302.553 499.531C300.663 499.517 299.477 501.963 299.477 506.152ZM345.092 494.814V521.064H342.455V494.814H345.092ZM322.445 513.477C328.012 510.166 330.678 505.757 331.161 500.352H323.676V498.066H333.93C333.915 500.63 333.564 503.076 332.758 505.361H336.918V495.488H339.555V519.775H336.918V507.588H331.791C330.238 510.635 327.733 513.301 324.027 515.469L322.445 513.477ZM351.449 518.779C350.307 518.765 349.355 517.842 349.369 516.699C349.355 515.557 350.307 514.619 351.449 514.619C352.577 514.619 353.515 515.557 353.529 516.699C353.515 517.842 352.577 518.765 351.449 518.779Z" fill="white"/>
<path d="M155.523 291.131V283.172C140.143 282.342 130.426 274.48 130.035 260.174H144.293C144.732 266.424 149.127 269.988 155.523 270.77V252.264L151.129 251.189C139.215 248.26 131.891 242.303 131.891 231.951C131.842 219.988 141.656 211.736 155.523 210.662V202.654H161.188V210.662C175.445 211.541 184.625 219.939 184.82 231.756H170.758C170.27 226.873 166.803 223.748 161.188 223.016V240.496L164.605 241.326C176.715 244.109 185.748 250.262 185.797 262.029C185.748 274.285 176.764 282.342 161.188 283.172V291.131H155.523ZM146.93 230.975C146.881 235.32 150.641 237.615 155.523 239.08V223.064C150.006 223.895 146.979 226.971 146.93 230.975ZM161.188 270.721C167.193 269.939 170.953 266.619 170.953 262.029C170.953 257.732 167.438 255.438 161.188 253.68V270.721ZM193.805 269.744V258.123L223.688 211.541H242.145V257.928H251.129V269.744H242.145V282.244H228.18V269.744H193.805ZM208.648 257.928H228.375V227.654H227.691L208.648 257.342V257.928ZM259.527 269.744V258.123L289.41 211.541H307.867V257.928H316.852V269.744H307.867V282.244H293.902V269.744H259.527ZM274.371 257.928H294.098V227.654H293.414L274.371 257.342V257.928ZM325.25 269.744V258.123L355.133 211.541H373.59V257.928H382.574V269.744H373.59V282.244H359.625V269.744H325.25ZM340.094 257.928H359.82V227.654H359.137L340.094 257.342V257.928Z" fill="white"/>
<g clip-path="url(#clip0_184_280)">
<path d="M184 894.891H202.56V900.194H199.909V897.542H191.954V910.8H199.909V908.148H202.56V913.451H184V894.891Z" fill="black"/>
<path d="M205.615 894.891H224.176V913.451H205.615V894.891ZM208.267 910.8H216.221V897.542H208.267V910.8Z" fill="black"/>
<path d="M227.231 894.891H243.14V897.542H245.791V910.8H243.14V913.451H227.231V894.891ZM235.185 910.8H243.14V897.542H235.185V910.8Z" fill="black"/>
<path d="M248.846 894.891H251.498V900.194H254.149V902.845H256.801V905.497H259.452V894.891H267.407V913.451H259.452V908.148H256.801V905.497H254.149V902.845H251.498V913.451H248.846V894.891Z" fill="black"/>
<path d="M270.462 894.891H289.022V897.542H283.719V910.8H289.022V913.451H270.462V910.8H275.765V897.542H270.462V894.891Z" fill="black"/>
<path d="M292.077 894.891H294.729V910.8H302.683V894.891H310.638V913.451H292.077V894.891Z" fill="black"/>
<path d="M313.693 894.891H332.253V897.542H321.647V902.845H332.253V913.451H313.693V910.8H324.299V905.497H313.693V894.891Z" fill="black"/>
</g>
<defs>
<clipPath id="clip0_184_280">
<rect width="145.829" height="18.5604" fill="white" transform="translate(184 894.891)"/>
</clipPath>
</defs>
</svg>
